<?xml version="1.0" encoding="UTF-8" standalone="no"?>
<!-- Created with Inkscape (http://www.inkscape.org/) -->

<svg
   width="113.02915mm"
   height="113.02915mm"
   viewBox="0 0 113.02915 113.02915"
   version="1.1"
   id="svg5"
   inkscape:version="1.1.2 (b8e25be833, 2022-02-05)"
   sodipodi:docname="jdc_logo_v10_exp.svg"
   xmlns:inkscape="http://www.inkscape.org/namespaces/inkscape"
   xmlns:sodipodi="http://sodipodi.sourceforge.net/DTD/sodipodi-0.dtd"
   xmlns="http://www.w3.org/2000/svg"
   xmlns:svg="http://www.w3.org/2000/svg">
  <sodipodi:namedview
     id="namedview7"
     pagecolor="#505050"
     bordercolor="#ffffff"
     borderopacity="1"
     inkscape:pageshadow="0"
     inkscape:pageopacity="0"
     inkscape:pagecheckerboard="1"
     inkscape:document-units="mm"
     showgrid="false"
     inkscape:zoom="0.7071068"
     inkscape:cx="-79.903064"
     inkscape:cy="166.8772"
     inkscape:window-width="1920"
     inkscape:window-height="1009"
     inkscape:window-x="-8"
     inkscape:window-y="-8"
     inkscape:window-maximized="1"
     inkscape:current-layer="layer1"
     inkscape:snap-global="false"
     fit-margin-top="0"
     fit-margin-left="0"
     fit-margin-right="0"
     fit-margin-bottom="0" />
  <defs
     id="defs2">
    <clipPath
       clipPathUnits="userSpaceOnUse"
       id="clipPath236136">
      <path
         style="fill:#d2816c;fill-opacity:1;stroke:#000000;stroke-width:0.155818px;stroke-linecap:butt;stroke-linejoin:miter;stroke-opacity:0"
         d="m -21.790594,22.908004 c 0,0 2.062552,22.403066 1.75107,23.330253 -0.311477,0.927186 0.512898,1.123479 3.502807,0.524826 2.989911,-0.598658 13.4491217,-1.001789 13.4817602,-1.664045 0.032633,-0.662252 -0.5220008,-23.818105 -1.6354647,-23.913888 -1.1134531,-0.09578 -14.6668125,0.417323 -15.8333605,0.654957 -1.166542,0.237633 -1.212929,0.815715 -1.266812,1.067897 z"
         id="path236138" />
    </clipPath>
  </defs>
  <g
     inkscape:label="Ebene 1"
     inkscape:groupmode="layer"
     id="layer1"
     transform="translate(-70.48542,-22.569242)">
    <rect
       style="fill:none;fill-opacity:1;stroke:none;stroke-width:0.577508;stroke-linecap:round;stroke-linejoin:round;stroke-miterlimit:4;stroke-dasharray:none;stroke-opacity:1;paint-order:markers stroke fill"
       id="rect236162"
       width="113.02915"
       height="113.02915"
       x="70.48542"
       y="22.569242"
       inkscape:export-filename="C:\Users\jonas\Documents\Sciebo\DominionCompanion\logo.png"
       inkscape:export-xdpi="300"
       inkscape:export-ydpi="300" />
    <g
       id="g133300"
       transform="matrix(1.8502693,0.65354157,-0.65354157,1.8502693,182.8809,3.5219431)"
       clip-path="url(#clipPath236136)"
       inkscape:export-filename="C:\Users\jonas\Documents\Sciebo\DominionCompanion\g133300.png"
       inkscape:export-xdpi="299.93079"
       inkscape:export-ydpi="299.93079">
      <path
         style="fill:#624233;fill-opacity:1;stroke:#000000;stroke-width:0.264583px;stroke-linecap:butt;stroke-linejoin:miter;stroke-opacity:0"
         d="m -25.790976,24.947382 c 0,0 -2.38125,2.513542 -2.116667,7.011459 0.264584,4.497916 2.93373,6.742483 2.593904,11.013684 -0.33073,4.15688 3.138124,11.57502 4.525324,12.154904 1.066413,0.445788 -2.54429,-8.058806 -1.673058,-10.253129 2.813757,-7.086846 1.426679,0.210534 0.143154,-6.300876 -1.204396,-6.109978 4.20026,-13.890625 3.009635,-15.875 -1.190625,-1.984375 -6.482292,2.248958 -6.482292,2.248958 z"
         id="path658764"
         sodipodi:nodetypes="cssssssc" />
      <path
         style="opacity:1;fill:#d79974;fill-opacity:1;stroke:#000000;stroke-width:0.264583px;stroke-linecap:butt;stroke-linejoin:miter;stroke-opacity:0"
         d="m -19.831399,59.120018 c 0.187089,0.42095 9.447978,10.102789 14.0316491,11.225325 4.583673,1.12253 7.577092,3.64822 15.9960809,-0.654816 8.418991,-4.303038 13.189752,-6.828734 14.03165,-8.418989 0.841899,-1.590254 3.367596,-2.712786 4.115951,-9.167344 0.748356,-6.45456 0.654812,-15.060638 1.028989,-16.463803 0.374176,-1.403165 0.841899,-2.15152 -0.280633,-4.95785 -1.122532,-2.80633 -2.432153,-6.173925 -2.899876,-9.635067 -0.46772,-3.461138 1.403165,-5.893292 -0.561266,-9.0738 C 23.666716,8.7931683 21.702285,5.4255713 15.715447,4.3030393 9.7286111,3.1805073 7.9512671,0.18708834 -3.6482299,4.6772163 -15.247727,9.1673443 -19.924943,11.412408 -21.234564,19.083044 c -1.30962,7.670636 -2.245064,13.844561 -2.057975,17.492789 0.187089,3.648231 0.467722,13.283295 1.122532,15.996081 0.65481,2.712786 2.151519,6.127155 2.338608,6.548104 z"
         id="path384135"
         sodipodi:nodetypes="zsssssssssssssz" />
      <path
         id="path170939"
         style="fill:#cb916e;fill-opacity:1;stroke:#000000;stroke-width:0.264583px;stroke-linecap:butt;stroke-linejoin:miter;stroke-opacity:0"
         d="m -23.257798,33.804722 c -0.05957,1.036431 -0.07579,1.968095 -0.03462,2.770892 0.187089,3.648231 0.467602,13.283652 1.122412,15.996438 0.274061,1.135396 1.200382,3.804547 1.611657,4.914834 1.010079,-1.749634 3.826002,-6.387092 4.391078,-4.845587 0,0 3.430196,-3.372237 6.6574751,-4.962488 3.227279,-1.590255 3.882245,-5.753026 3.367752,-6.782015 -0.514493,-1.028988 0.9766353,-1.531779 -7.1137781,-3.863848 -4.283588,-1.234748 -8.996944,-1.625642 -9.911579,-2.964764 -0.24814,-0.363304 0.01486,0.08102 -0.09039,-0.263462 z"
         sodipodi:nodetypes="cssccsssscc" />
      <path
         style="fill:#cb916e;fill-opacity:1;stroke:#000000;stroke-width:0.264583px;stroke-linecap:butt;stroke-linejoin:miter;stroke-opacity:0"
         d="m -13.236604,31.023007 c 0,0 -4.723988,-0.935445 -4.349811,-2.057977 0.374176,-1.122532 2.525696,-2.759556 3.928862,-2.759556 1.403165,0 6.7842861,-1.588821 8.1733481,0.527846 1.389063,2.116666 2.645834,4.7625 1.521355,6.614583 -1.12448,1.852084 -1.91823,2.248959 -3.439584,1.719792 -1.521354,-0.529167 -5.8341701,-4.044688 -5.8341701,-4.044688 z"
         id="path133543"
         sodipodi:nodetypes="csssssc" />
      <path
         style="fill:#c1805a;fill-opacity:1;stroke:#000000;stroke-width:0.264583px;stroke-linecap:butt;stroke-linejoin:miter;stroke-opacity:0"
         d="m -15.808992,53.13318 c 0,0 -1.014596,-1.918215 1.122531,-3.461139 2.192019,-1.582555 9.1995501,-6.850391 8.9321081,-5.246105 -0.643667,3.86112 6.793739,4.8807 8.373594,1.87851 0,0 -2.80632898,2.338607 -2.15151998,4.490127 0.65481198,2.15152 6.73519398,3.180506 -1.122532,3.367595 -7.85772202,0.18709 -12.81557212,0.374179 -13.47038412,0.18709 -0.65481,-0.18709 -1.683797,-1.216078 -1.683797,-1.216078 z"
         id="path252736"
         sodipodi:nodetypes="csscsssc" />
      <path
         style="fill:#c1805a;fill-opacity:1;stroke:#000000;stroke-width:0.264583px;stroke-linecap:butt;stroke-linejoin:miter;stroke-opacity:0"
         d="m -5.9472259,26.799466 c -1.121538,4.699777 -0.9177168,8.575769 2.4440722,9.732957 0.893978,0.307723 0.8999288,-7.625773 0.8632198,-9.732957 -0.07239,-4.155094 3.35828002,-5.647193 5.622396,-6.879167 2.62937,-1.43072 2.645833,-5.423958 0.529166,-6.482291 -2.116666,-1.058333 -8.929687,1.190625 -14.3536461,1.852083 -5.423958,0.661458 -7.276041,0.926042 -8.863541,2.38125 -1.5875,1.455208 -1.169181,0.08103 -2.066571,3.894579 -0.891303,3.787681 -0.684047,4.649839 -0.926042,6.482292 -0.401634,3.041287 0.801176,-0.124989 2.728029,-1.248746 1.842661,-1.074656 8.466667,-4.233334 10.9802091,-4.365625 2.513541,-0.132292 4.233333,-0.132292 3.042708,4.365625 z"
         id="path271391"
         sodipodi:nodetypes="cssssssssssc" />
      <path
         style="opacity:1;fill:#d5a995;fill-opacity:1;stroke:#000000;stroke-width:0.264583px;stroke-linecap:butt;stroke-linejoin:miter;stroke-opacity:0"
         d="m -3.8353169,53.671062 c 0,0 -1.196014,2.692236 -0.681521,2.902709 0.514493,0.210476 3.370921,1.096309 3.55800802,0.418113 0.187089,-0.678195 0.420949,-3.414368 0.420949,-3.414368 L -3.6716159,52.829161 c 0,0 -0.09354,0.631425 -0.163701,0.841901 z"
         id="path402720"
         sodipodi:nodetypes="cssccc" />
      <path
         style="opacity:1;fill:#d5a995;fill-opacity:1;stroke:#000000;stroke-width:0.264583px;stroke-linecap:butt;stroke-linejoin:miter;stroke-opacity:0"
         d="m -0.63142388,53.226726 c 0,0 -0.74835602,3.999018 -0.18709,3.928861 0.561266,-0.07016 3.39098198,-0.116929 3.36759598,-0.701582 -0.02339,-0.584652 -0.193938,-3.260839 -0.147165,-3.588245 0.04677,-0.327406 -2.12128298,0.103717 -2.12128298,0.103717 z"
         id="path402722"
         sodipodi:nodetypes="cssscc" />
      <path
         style="opacity:1;fill:#d5a995;fill-opacity:1;stroke:#000000;stroke-width:0.264583px;stroke-linecap:butt;stroke-linejoin:miter;stroke-opacity:0"
         d="m 2.3619951,52.922707 c 0,0 -0.11693,3.695001 0.327406,3.624842 0.444333,-0.07016 2.829716,-0.42095 2.782943,-0.818513 -0.04677,-0.397563 0.04677,-2.782945 -0.210474,-3.086964 -0.257249,-0.304017 -2.899875,0.280639 -2.899875,0.280639 z"
         id="path402724"
         sodipodi:nodetypes="cssscc" />
      <path
         style="opacity:1;fill:#d5a995;fill-opacity:1;stroke:#000000;stroke-width:0.264583px;stroke-linecap:butt;stroke-linejoin:miter;stroke-opacity:0"
         d="m 5.1652741,52.513658 c 0,0 0.08268,3.423047 0.363802,3.290755 0.28112,-0.132291 2.265495,-0.51263 2.116666,-0.992187 -0.148828,-0.479557 -0.08268,-2.397787 -0.380338,-2.38125 -0.297656,0.01654 -2.10013,0.08268 -2.10013,0.08268 z"
         id="path402726" />
      <path
         style="opacity:1;fill:#793236;fill-opacity:1;stroke:#000000;stroke-width:0.264583px;stroke-linecap:butt;stroke-linejoin:miter;stroke-opacity:0"
         d="m 7.3976961,52.530195 c 0,0 -0.115756,2.480468 0.281119,2.315104 0.396875,-0.165365 4.3821619,-1.653646 4.6963539,-1.86862 0.314193,-0.214974 -3.4561189,-0.396875 -3.4561189,-0.396875 z"
         id="path402728" />
      <path
         style="opacity:1;fill:#d5a995;fill-opacity:1;stroke:#000000;stroke-width:0.264583px;stroke-linecap:butt;stroke-linejoin:miter;stroke-opacity:0"
         d="m -6.2118089,52.811314 c 0,0 -0.959115,2.364714 -0.413412,2.728516 0.545703,0.363802 1.918229,1.058333 2.050521,0.777214 0.132292,-0.28112 1.041797,-3.356901 0.810286,-3.472657 -0.23151,-0.115755 -2.530078,-0.06615 -2.530078,-0.06615 z"
         id="path402730" />
      <path
         style="opacity:1;fill:#d5a995;fill-opacity:1;stroke:#000000;stroke-width:0.264583px;stroke-linecap:butt;stroke-linejoin:miter;stroke-opacity:0"
         d="m -8.2954029,52.794778 c 0,0 -0.711068,1.471745 -0.264583,1.719792 0.446484,0.248046 1.620572,1.058333 1.670182,0.79375 0.04961,-0.264584 0.677995,-2.315105 0.644922,-2.43086 -0.03307,-0.115755 -0.545703,-0.132291 -0.611849,-0.132291 -0.06615,0 -1.438672,0.04961 -1.438672,0.04961 z"
         id="path402732" />
      <path
         style="fill:#794a39;fill-opacity:1;stroke:#000000;stroke-width:0.264583px;stroke-linecap:butt;stroke-linejoin:miter;stroke-opacity:0"
         d="m -1.5551709,57.178974 c 0,0 0.84768202,-0.215782 0.88182102,-1.038918 0.03566,-0.859853 0.06874,-1.078153 0.06874,-1.078153 0.10273,-0.01652 -0.09094,1.481825 0.382445,1.789665 0.484214,0.314884 0.596345,0.280633 0.596345,0.280633 0,0 0.09354,0.11693 -0.619731,0.152009 -0.713276,0.03508 -1.30962102,-0.105236 -1.30962102,-0.105236 z"
         id="path47162"
         sodipodi:nodetypes="cscscscc" />
      <path
         id="path158778"
         style="opacity:1;fill:#c1805a;fill-opacity:1;stroke:#000000;stroke-width:0.264583px;stroke-linecap:butt;stroke-linejoin:miter;stroke-opacity:0"
         d="m -14.72757,51.592268 c -0.687903,8.5e-5 3.407852,-2.796524 2.587829,-2.388674 -3.813005,1.896446 -6.954908,5.173006 -5.883234,5.513546 1.780809,0.565878 7.890866,11.101374 8.9844651,13.521655 0.554398,0.403654 1.09796,0.771904 1.622124,1.094508 1.474771,-0.347155 2.310722,-3.043823 2.812745,-4.607986 0.863182,-2.689418 3.83160902,-3.579622 6.419766,-4.584735 4.641416,-1.802497 -3.677881,-2.301626 -7.544245,-2.949172 -3.232988,-0.541468 -5.2847661,-5.599597 -8.9994501,-5.599142 z"
         sodipodi:nodetypes="sssccssss" />
      <path
         style="opacity:1;fill:#793236;fill-opacity:1;stroke:#000000;stroke-width:0.264583px;stroke-linecap:butt;stroke-linejoin:miter;stroke-opacity:0"
         d="m -8.4732919,52.683522 c 0,0 -3.6585701,-0.285616 -3.9396901,-0.236006 -0.281119,0.04961 3.7041671,2.323373 3.7868501,1.876888 0.08268,-0.446484 0.442228,-1.541659 0.442228,-1.541659 z"
         id="path402734"
         sodipodi:nodetypes="csscc" />
      <path
         style="fill:#794a39;fill-opacity:1;stroke:#000000;stroke-width:0.264583px;stroke-linecap:butt;stroke-linejoin:miter;stroke-opacity:0"
         d="m 1.7071831,56.78141 c 0.04045,0.05393 0.499137,-0.574718 0.413411,-1.35599 -0.05732,-0.522401 0.08269,0.694531 0.56224,0.876433 0.479557,0.181901 0.231511,0.694531 -0.396875,0.644921 -0.628385,-0.04961 -0.578776,-0.165364 -0.578776,-0.165364 z"
         id="path53595"
         sodipodi:nodetypes="csssc" />
      <path
         style="fill:#794a39;fill-opacity:1;stroke:#000000;stroke-width:0.264583px;stroke-linecap:butt;stroke-linejoin:miter;stroke-opacity:0"
         d="m 4.4868751,55.957692 c 0,0 0.330729,-0.198438 0.380338,-0.56224 0.04961,-0.363802 -0.03307,-0.06615 0.644922,0.132292 0.677995,0.198438 0.314193,0.51263 0.06615,0.595313 -0.248047,0.08268 -0.760677,0.214973 -0.909505,0.115755 -0.148828,-0.09922 -0.181901,-0.28112 -0.181901,-0.28112 z"
         id="path59135" />
      <path
         style="fill:#c1805a;fill-opacity:1;stroke:#000000;stroke-width:0.264583px;stroke-linecap:butt;stroke-linejoin:miter;stroke-opacity:0"
         d="m 0.65481012,60.569955 c 0,0 2.24506398,-0.982215 4.02240698,-0.233859 1.777342,0.748355 2.99342,0.467722 3.648229,-1.403165 0.654809,-1.870887 0.561266,-2.619243 1.403165,-3.741775 0.8418989,-1.122532 0.3741789,-1.122532 -1.964431,0.09355 -2.338607,1.216076 -3.274052,2.057974 -3.928861,2.432151 -0.654812,0.374179 -3.18050898,2.853102 -3.18050898,2.853102 z"
         id="path193341" />
      <path
         style="opacity:1;fill:#ac5460;fill-opacity:1;stroke:#000000;stroke-width:0.264583px;stroke-linecap:butt;stroke-linejoin:miter;stroke-opacity:0"
         d="m -13.144927,52.295739 c 0,0 2.926954,2.960026 3.9191411,4.084505 0.992188,1.124479 4.101042,3.241146 6.746875,3.241146 2.64583302,0 8.334375,-0.264584 9.921875,-2.38125 1.5875,-2.116667 5.2930509,-4.040751 5.6057579,-4.612254 0.304108,-0.555788 -2.708999,1.026721 -5.8703409,2.231004 -3.168769,1.207112 -7.01145898,2.447396 -10.384896,1.455208 -3.373437,-0.992187 -4.034896,-1.322917 -4.960937,-2.116667 -0.926042,-0.79375 -4.9774751,-1.901692 -4.9774751,-1.901692 z"
         id="path388424"
         sodipodi:nodetypes="csssssssc" />
      <path
         style="fill:#794a39;fill-opacity:1;stroke:#000000;stroke-width:0.264583px;stroke-linecap:butt;stroke-linejoin:miter;stroke-opacity:0"
         d="m 2.0864831,54.894907 c 0,0 -0.02038,-1.852766 0.293816,-2.233105 0.314193,-0.380338 0.221824,0.01722 -0.390025,0.03376 -0.611849,0.01654 -0.727605,-0.06615 -0.727605,-0.06615 0,0 0.529167,0.03307 0.611849,0.959115 0.08268,0.926041 0.211965,1.30638 0.211965,1.30638 z"
         id="path73016"
         sodipodi:nodetypes="csscssc" />
      <path
         style="fill:#794a39;fill-opacity:1;stroke:#000000;stroke-width:0.264583px;stroke-linecap:butt;stroke-linejoin:miter;stroke-opacity:0"
         d="m -1.7203139,52.845697 c 0,0 1.26284902,0.374176 1.14591802,1.520095 -0.11693,1.145918 -0.02339,-0.02339 0.280633,-0.701583 0.304019,-0.678196 0.07016,-0.654809 0.748355,-0.795126 0.67819598,-0.140316 0.86528498,-0.280632 -0.53788,-0.374179 -1.40316502,-0.09354 -1.63702602,0.350793 -1.63702602,0.350793 z"
         id="path82035" />
      <path
         style="fill:#794a39;fill-opacity:1;stroke:#000000;stroke-width:0.264583px;stroke-linecap:butt;stroke-linejoin:miter;stroke-opacity:0"
         d="m 4.8285261,54.464129 c 0,0 -0.165364,-1.852083 0.959115,-2.017448 1.124479,-0.165365 -2.248958,-0.132292 -2.248958,-0.132292 l 0.694531,0.198438 c 0,0 0.529166,1.852083 0.595312,1.951302 z"
         id="path87696" />
      <path
         style="fill:#794a39;fill-opacity:1;stroke:#000000;stroke-width:0.264583px;stroke-linecap:butt;stroke-linejoin:miter;stroke-opacity:0"
         d="m -3.9222649,52.633395 c 0.119034,-0.16876 0.721746,0.938937 0.489559,2.102967 -0.150884,0.75643 0.648531,-2.211498 0.979178,-1.826691 0.256167,0.298127 0.160004,-0.258736 -0.732965,-0.374491 -0.892969,-0.115756 -0.735772,0.09822 -0.735772,0.09822 z"
         id="path99562"
         sodipodi:nodetypes="cssscc" />
      <path
         style="fill:#794a39;fill-opacity:1;stroke:#000000;stroke-width:0.264583px;stroke-linecap:butt;stroke-linejoin:miter;stroke-opacity:0"
         d="m -6.3539069,52.927709 c 0,0 0.413411,0.264584 0.214974,1.289844 -0.198438,1.025261 0.264583,-1.041797 0.661458,-1.405599 0.396875,-0.363802 0.727604,-0.429948 -0.01654,-0.479557 -0.744141,-0.04961 -0.859896,0.595312 -0.859896,0.595312 z"
         id="path103774" />
      <path
         style="opacity:1;fill:#ac5460;fill-opacity:1;stroke:#000000;stroke-width:0.264583px;stroke-linecap:butt;stroke-linejoin:miter;stroke-opacity:0"
         d="m -13.244146,52.229593 c -0.08107,0.506705 6.7887741,0.721572 8.3798411,0.763267 1.590396,0.04167 2.712786,0.982215 6.314241,0.140316 3.601458,-0.841899 7.595092,-0.289309 8.9451769,-0.128621 1.891451,0.225121 2.660616,-0.623485 2.560777,-0.502801 0,0 -5.7529749,-0.49111 -7.2496859,-0.444337 -1.496708,0.04677 -3.133736,0 -5.79974898,0.280633 -2.66601302,0.280633 -2.10474702,-0.04677 -4.39658402,-0.04677 -2.291836,0 -8.7540171,-0.06169 -8.7540171,-0.06169 z"
         id="path393615"
         sodipodi:nodetypes="cssscsssc" />
      <path
         style="fill:#cb916e;fill-opacity:1;stroke:#000000;stroke-width:0.264583px;stroke-linecap:butt;stroke-linejoin:miter;stroke-opacity:0"
         d="m 25.405898,10.924466 c 0,0 -8.863541,1.455208 -6.349999,9.789583 2.513541,8.334375 -2.526553,8.092265 0,10.31875 2.579479,2.273125 8.418261,5.113619 7.408333,9.789583 -0.817602,3.785494 1.984375,0.926042 2.645833,-0.926041 0.661458,-1.852084 2.116667,-8.73125 1.058333,-16.007292 -1.058333,-7.276041 -4.7625,-12.964583 -4.7625,-12.964583 z"
         id="path408404"
         sodipodi:nodetypes="csssssc" />
      <path
         style="opacity:1;fill:#413129;fill-opacity:1;stroke:#000000;stroke-width:0.264583px;stroke-linecap:butt;stroke-linejoin:miter;stroke-opacity:0"
         d="m 16.211628,8.2786333 c 0,0 8.797395,0.132291 9.19427,5.9531247 0.396875,5.820833 1.521355,16.999479 3.108855,16.602604 1.5875,-0.396875 2.444641,-5.914378 2.180058,-3.070107 -0.264583,2.844271 -0.661458,5.390885 -0.694531,7.176823 -0.03307,1.785937 -0.165365,6.416146 -0.463021,7.242969 -0.297656,0.826822 -1.644243,5.169346 -2.73565,6.6907 -1.091406,1.521354 5.811431,-4.568192 7.531223,-15.548401 1.719792,-10.980208 5.22827,-11.620109 0.86265,-19.756047 C 30.829857,5.4343623 29.440794,1.3994663 25.009023,-0.84949166 20.577253,-3.0984507 11.713711,-3.8922007 12.242878,0.20884134 c 0.529166,4.10104196 3.96875,8.06979196 3.96875,8.06979196 z"
         id="path417583"
         sodipodi:nodetypes="cssssssssssc" />
      <path
         style="opacity:1;fill:#624133;fill-opacity:1;stroke:#000000;stroke-width:0.264583px;stroke-linecap:butt;stroke-linejoin:miter;stroke-opacity:0"
         d="m -28.205299,31.628112 c 0,0 -1.686718,-2.182813 4.134115,-7.209896 5.820833,-5.027083 9.657291,-3.704167 19.0500001,-5.953125 9.392708,-2.248958 20.5296539,0.3242 23.4156239,-9.2604167 2.73729,-9.09083396 6.901749,-9.54328496 3.307292,-12.567708 C 17.488983,-6.9076957 10.853815,-11.8297 3.3131901,-10.771367 -4.2274339,-9.7130337 -13.090976,-7.7286587 -19.970143,2.3255083 -26.849309,12.379674 -30.421184,21.375507 -30.156601,26.005716 c 0.264584,4.630208 1.951302,5.622396 1.951302,5.622396 z"
         id="path414414"
         sodipodi:nodetypes="csssssssc" />
      <path
         style="fill:#cb916e;fill-opacity:1;stroke:#000000;stroke-width:0.264583px;stroke-linecap:butt;stroke-linejoin:miter;stroke-opacity:0"
         d="m 2.5958561,32.085706 c -0.875434,-1.890722 -0.07214,-5.801572 0.744341,-6.635 0.83321,-0.850499 4.283666,-1.316267 5.593288,-1.035634 1.3096179,0.280633 0.04677,0.841897 0.23386,1.309619 0.187087,0.467723 11.9736749,0.701578 11.9736749,0.701578 0.100319,0.08107 -9.535054,2.288192 -13.4703859,2.666014 1.29152,1.433609 -3.495588,6.404082 -5.074778,2.993423 z"
         id="path5435"
         sodipodi:nodetypes="ssssccs" />
      <path
         style="opacity:1;fill:#693f31;fill-opacity:1;stroke:#000000;stroke-width:0.264583px;stroke-linecap:butt;stroke-linejoin:miter;stroke-opacity:0"
         d="m 8.4189901,24.274753 c 0,0 -3.695002,2.104748 -1.777341,2.432154 1.917657,0.327406 4.8175329,0.140316 8.3722149,-0.04677 3.554685,-0.187087 5.292453,-0.176303 5.986838,-0.140317 1.053213,0.05458 -1.564512,-1.592481 -3.928861,-1.824114 -2.165919,-0.212193 -8.3722179,-0.561266 -8.6528509,-0.42095 z"
         id="path430622"
         sodipodi:nodetypes="csssssc" />
      <path
         style="opacity:1;fill:#693f31;fill-opacity:1;stroke:#000000;stroke-width:0.264583px;stroke-linecap:butt;stroke-linejoin:miter;stroke-opacity:0"
         d="m -19.835368,30.869215 c 0,0 1.719792,-1.719792 4.663282,-1.951302 2.943489,-0.23151 6.4822915,0.03307 6.1184895,-1.058333 -0.3638021,-1.091407 -0.5622391,-2.38125 -2.5135425,-2.248959 -1.951302,0.132292 -7.639843,1.686719 -7.937499,3.472657 -0.297657,1.785937 -0.33073,1.785937 -0.33073,1.785937 z"
         id="path436855" />
      <path
         style="fill:#cb916e;fill-opacity:1;stroke:#000000;stroke-width:0.264583px;stroke-linecap:butt;stroke-linejoin:miter;stroke-opacity:0"
         d="m 2.8998741,30.401908 c 0,0 -1.769496,3.872037 -1.372621,6.980891 0.396875,3.108854 0.992187,4.960937 1.852083,4.101042 0.859896,-0.859896 0.315666,-2.990349 0.876932,-3.738702 0.561266,-0.748355 0.561265,-1.356393 2.712785,-1.824115 2.151521,-0.467723 4.7239889,-0.280633 5.0981649,-1.870888 0.374179,-1.590254 2.245064,-1.777341 -1.216075,-2.899873 -3.4611409,-1.122531 -4.6772169,-1.683797 -5.7997489,-1.49671 -1.122531,0.187089 -2.15152,0.748355 -2.15152,0.748355 z"
         id="path197201"
         sodipodi:nodetypes="csssssssc" />
      <path
         style="fill:#cb916e;fill-opacity:1;stroke:#000000;stroke-width:0.264583px;stroke-linecap:butt;stroke-linejoin:miter;stroke-opacity:0"
         d="m 17.071841,32.179249 c 0,0 1.169305,0.420952 3.414369,0.09355 2.245063,-0.327406 2.011203,-0.748355 0.608039,-1.543481 -1.403168,-0.795128 -5.612662,-2.057977 -6.828737,-1.91766 -1.216078,0.140316 0.935442,1.496711 0.935442,1.496711 z"
         id="path509144" />
      <path
         style="opacity:1;fill:#cea8aa;fill-opacity:1;stroke:#000000;stroke-width:0.264583px;stroke-linecap:butt;stroke-linejoin:miter;stroke-opacity:0"
         d="m 6.5071781,32.173404 c 0,0 3.40852,-2.636781 5.0689339,-2.543238 1.660411,0.09355 4.583671,0.350793 5.472343,1.403167 0.888671,1.052373 0.631425,1.0056 -1.239462,1.379779 -1.870887,0.374176 -4.718142,0.742507 -9.3018149,-0.239708 z"
         id="path447297"
         sodipodi:nodetypes="csssc" />
      <path
         id="path255326"
         style="fill:#cb916e;fill-opacity:1;stroke:#000000;stroke-width:0.264583px;stroke-linecap:butt;stroke-linejoin:miter;stroke-opacity:0"
         d="m -18.724741,52.506425 c -1.008902,0.0066 -2.298452,0.178493 -3.356384,0.412892 0.691478,2.648929 2.070258,5.797421 2.249475,6.200656 0.162488,0.365599 7.168399,7.71379 12.0111521,10.376112 0.01352,-0.416346 -0.03721,-0.74104 -0.03721,-0.74104 0,0 -2.2452811,-9.822032 -2.8065471,-10.851017 -0.561268,-1.028989 -4.95102,-4.754682 -5.886464,-5.409491 -0.263093,-0.184163 -1.483381,0.0074 -2.174027,0.01188 z"
         sodipodi:nodetypes="scsccsss" />
      <path
         style="fill:#d79974;fill-opacity:1;stroke:#000000;stroke-width:0.264583px;stroke-linecap:butt;stroke-linejoin:miter;stroke-opacity:0"
         d="m -10.664053,37.137099 c 0,0 -5.893294,2.15152 -5.144939,5.238483 0.748354,3.086965 2.525696,3.928864 4.396583,3.461141 1.8708871,-0.467722 3.7949071,-3.596627 5.1449391,-4.022407 3.500918,-1.104137 -3.59045,-4.735736 -4.3965831,-4.677217 z"
         id="path378912"
         sodipodi:nodetypes="csssc" />
      <path
         style="opacity:1;fill:#c1805a;fill-opacity:1;stroke:#000000;stroke-width:0.264583px;stroke-linecap:butt;stroke-linejoin:miter;stroke-opacity:0"
         d="m -5.0747805,27.946368 c 0,0 -3.1571204,9.424594 -5.2618675,9.56491 -2.104749,0.140316 -1.880711,0.113557 1.9644311,1.262848 2.5516,0.762658 1.776069,1.905725 1.403165,3.601456 -0.283126,1.28748 -0.705573,3.234262 0.848545,4.281316 0.519789,0.350196 1.028507,0.762314 1.37166,0.942677 0.343152,0.180364 0.520738,0.128972 0.378261,-0.44785 -0.168781,-0.683318 0.466327,-1.626225 0.80186,-2.685147 0.335534,-1.058923 0.3714976,-2.233861 0.501138,-3.007066 0.551082,-3.28678 1.3136324,-19.780612 -2.0071926,-13.513144 z"
         id="path507103"
         sodipodi:nodetypes="cssssssssc" />
      <path
         style="fill:#cb916e;fill-opacity:1;stroke:#000000;stroke-width:0.264583px;stroke-linecap:butt;stroke-linejoin:miter;stroke-opacity:0"
         d="m 7.3480861,34.406236 c 0,0 1.653646,1.819011 4.0018229,1.852084 2.348177,0.03307 4.332552,-0.132291 4.729427,-0.330729 0.396875,-0.198438 1.231215,-2.767687 -0.130027,-1.643592 -1.220359,1.007756 -3.086962,0.841899 -3.086962,0.841899 L 8.7463961,34.751719 Z"
         id="path522036"
         sodipodi:nodetypes="csssccc" />
      <path
         style="opacity:1;fill:#a87258;fill-opacity:1;stroke:#000000;stroke-width:0.264583px;stroke-linecap:butt;stroke-linejoin:miter;stroke-opacity:0"
         d="m 7.1561421,33.629187 c 0,0 3.9756339,1.964431 7.4367729,0.888672 3.461141,-1.075761 0.157745,0.480446 -0.964783,0.807852 -1.122532,0.327403 -6.7058459,0.501763 -6.4719859,-1.696524 z"
         id="path522761"
         sodipodi:nodetypes="csssc" />
      <path
         style="opacity:1;fill:#c1805a;fill-opacity:1;stroke:#000000;stroke-width:0.264583px;stroke-linecap:butt;stroke-linejoin:miter;stroke-opacity:0"
         d="m 5.4723441,32.646972 c 0,0 -1.54312,-1.068489 -0.748356,-3.367596 1.218707,-3.525496 5.7700099,-1.478903 7.6097609,-0.717632 2.390718,0.989258 2.025306,0.390226 0.668914,0.670859 -1.356394,0.280633 -4.3965839,1.028989 -5.2852549,1.730571 -0.888672,0.701582 -2.245064,1.683798 -2.245064,1.683798 z"
         id="path547655"
         sodipodi:nodetypes="cssssc" />
      <path
         style="fill:#a87258;fill-opacity:1;stroke:#000000;stroke-width:0.264583px;stroke-linecap:butt;stroke-linejoin:miter;stroke-opacity:0"
         d="m 5.3320271,32.085706 c 0,0 1.496709,-2.61924 2.61924,-3.180506 1.122532,-0.561266 6.2674719,-0.935445 8.3254479,0.374176 2.057974,1.309622 0.374177,1.309622 0.374177,1.309622 l -3.741775,-0.748356 c -1.122532,0.249452 -2.152501,-0.796976 -3.3675949,0.748356 -1.403165,0.498903 -4.597833,2.789308 -4.209495,1.496708 z"
         id="path20577"
         sodipodi:nodetypes="csscccc" />
      <path
         style="opacity:1;fill:#2e2120;fill-opacity:1;stroke:#000000;stroke-width:0.264583px;stroke-linecap:butt;stroke-linejoin:miter;stroke-opacity:0"
         d="m 10.336648,29.747099 c 0,0 -0.6963189,0.679539 -0.4677199,2.011201 0.2461579,1.433945 0.09354,1.239464 1.4265509,1.309621 1.333005,0.07016 2.876486,0.30402 3.320822,-0.724969 0.444336,-1.028986 0.444336,-2.455537 -0.02339,-2.595853 -0.46772,-0.140317 -1.941044,-0.654812 -1.941044,-0.654812 z"
         id="path552221"
         sodipodi:nodetypes="csssscc" />
      <path
         style="fill:#392a27;fill-opacity:1;stroke:none;stroke-width:0.264583px;stroke-linecap:butt;stroke-linejoin:miter;stroke-opacity:1"
         d="m 10.208025,32.249409 c 0,0 -0.140316,-1.625333 0.853592,-1.099146 0.993909,0.526185 1.929352,0.456028 2.642627,0.105236 0.713276,-0.35079 0.970523,0.140316 0.900365,0.514495 -0.07016,0.374177 -0.08185,0.619731 -0.245554,0.783434 -0.163703,0.163703 -1.239463,0.514493 -1.286235,0.514493 -0.04677,0 -1.601947,-0.128625 -1.718877,-0.128625 -0.11693,0 -0.748354,-0.175395 -0.748354,-0.175395 z"
         id="path58717" />
      <path
         style="fill:#40322f;fill-opacity:1;stroke:none;stroke-width:0.264583px;stroke-linecap:butt;stroke-linejoin:miter;stroke-opacity:1"
         d="m 10.570509,32.68205 c 0,0 -0.26894,-1.087453 0.210475,-0.900364 0.479415,0.18709 1.672105,0.654812 2.315222,0.292328 0.643118,-0.362485 1.601947,-0.374179 1.145918,0.526184 -0.456028,0.900364 -2.701092,0.643118 -2.701092,0.643118 l -0.643117,-0.222168 z"
         id="path60290" />
      <path
         style="fill:#40322f;fill-opacity:1;stroke:none;stroke-width:0.264583px;stroke-linecap:butt;stroke-linejoin:miter;stroke-opacity:1"
         d="m 9.9741642,30.401908 c 0,0 0.1169308,-0.280633 0.1987818,-0.23386 0.08185,0.04677 -0.07016,0.537879 -0.08185,0.689888 -0.01169,0.152011 -0.01169,0.771742 0.03508,1.028988 0.04677,0.257247 0.163698,0.374177 0.315712,0.53788 0.152009,0.163703 0.684043,0.263095 0.684043,0.263095 l 1.291594,0.125125 0.700021,-0.107831 c 0,0 1.15966,-0.198538 1.288283,-0.502557 0.128624,-0.30402 0.374177,-0.865286 0.350791,-1.169305 -0.02339,-0.304017 -0.03508,-0.713275 -0.140316,-1.064067 -0.105238,-0.35079 0.254108,0.168431 0.254108,0.168431 l 0.01654,0.264583 0.05374,0.51263 -0.07855,0.553972 -0.148828,0.570508 -0.318326,0.702799 -0.512631,0.272852 -2.05052,0.173632 -1.372527,-0.165364 -0.396874,-0.248047 -0.04134,-0.31006 -0.1405595,-0.938443 0.00827,-0.582911 z"
         id="path56329"
         sodipodi:nodetypes="csssscccssscccccccccccccc" />
      <path
         style="fill:#1e0803;fill-opacity:1;stroke:#000000;stroke-width:0.264583px;stroke-linecap:butt;stroke-linejoin:miter;stroke-opacity:0"
         d="m 10.091096,30.29667 c 0,0 -0.2689409,0.678199 -0.1286249,1.508403 0.1403169,0.830207 0.1520109,0.958829 0.2923279,1.04068 0.140316,0.08185 2.38538,0.222168 2.701091,0.175398 0.315712,-0.04677 1.262849,-0.198784 1.297927,-0.245555 0.03508,-0.04677 0.796126,-1.242568 0.626626,-2.19755 -0.169497,-0.954979 -0.08682,-0.843359 0.03721,-0.740005 0.124024,0.103352 -0.05374,0.194302 -0.05374,0.194302 0,0 0.161232,0.603581 0.07855,1.087274 -0.08268,0.48369 -0.198438,1.244367 -0.487826,1.570963 -0.289388,0.326594 -1.029395,0.409276 -1.029395,0.409276 l -1.430404,0.05788 -1.86862,-0.190169 -0.06142,-0.151043 c 0,0 -0.3065099,-1.126397 -0.2610359,-1.643163 0.04548,-0.516763 0.103354,-0.818555 0.144696,-0.859896 0.04134,-0.04134 0.1426499,-0.0168 0.1426499,-0.0168 z"
         id="path555832" />
      <path
         style="fill:#72473d;fill-opacity:1;stroke:#000000;stroke-width:0.264583px;stroke-linecap:butt;stroke-linejoin:miter;stroke-opacity:0"
         d="m 8.3072011,32.537617 c 0,0 -0.496094,-0.777214 -0.165365,-1.190625 0.330729,-0.413412 -0.363802,-0.09922 -0.363802,-0.09922 l -1.174088,0.677995 -0.03307,0.23151 0.246171,0.09798 z"
         id="path500577" />
      <path
         style="opacity:1;fill:#72473d;fill-opacity:1;stroke:#000000;stroke-width:0.264583px;stroke-linecap:butt;stroke-linejoin:miter;stroke-opacity:0"
         d="m 6.4551171,32.157278 c 0,0 5.1263019,1.025261 7.6067709,0.56224 2.480469,-0.463021 3.638021,-0.992188 3.505729,-0.694531 -0.132291,0.297656 -3.505729,1.355989 -5.886979,1.25677 -2.3812499,-0.09922 -5.0601559,-1.02526 -5.2255209,-1.124479 z"
         id="path534917" />
      <path
         style="fill:#72473d;fill-opacity:1;stroke:#000000;stroke-width:0.264583px;stroke-linecap:butt;stroke-linejoin:miter;stroke-opacity:0"
         d="m 17.303034,32.091132 c 0,0 0.460467,-0.196422 -0.165365,-0.992187 -0.63455,-0.80685 0.382718,-1.264063 1.215673,0.140317 0.247118,0.416645 1.286728,1.028201 0.07417,0.918016 -1.054505,-0.09582 -1.124479,-0.06615 -1.124479,-0.06615 z"
         id="path515333"
         sodipodi:nodetypes="cssscc" />
      <path
         style="opacity:1;fill:#1e0803;fill-opacity:1;stroke:#000000;stroke-width:0.264583px;stroke-linecap:butt;stroke-linejoin:miter;stroke-opacity:0"
         d="m 6.6535551,32.223424 c 0,0 -1.885156,0.892969 -1.157552,0.06615 0.727604,-0.826823 3.326027,-2.695269 5.2255209,-3.141927 1.005419,-0.23642 2.265491,-0.478728 3.671093,-0.165365 1.30384,0.290676 3.476887,0.971652 3.538802,1.422136 0.02092,0.15222 -0.325643,1.269598 -1.190624,0.79375 -1.050009,-0.577638 -3.208073,-2.083594 -5.192448,-1.455209 -1.9843749,0.628386 -4.6302089,2.38125 -4.8947919,2.480469 z"
         id="path527790"
         sodipodi:nodetypes="csssssssc" />
      <path
         style="opacity:1;fill:#150403;fill-opacity:1;stroke:#000000;stroke-width:0.343106px;stroke-linecap:butt;stroke-linejoin:miter;stroke-opacity:0"
         d="m 12.121262,30.673229 c 0,0 -0.606535,0.363919 -0.333596,0.9098 0.272941,0.545879 0.576207,0.394246 0.849148,0.212287 0.272938,-0.181961 0.485225,-0.576207 0.212287,-0.849146 -0.272941,-0.272941 -0.636861,-0.303268 -0.727839,-0.272941 z"
         id="path560239" />
      <path
         style="opacity:1;fill:#a87258;fill-opacity:1;stroke:#000000;stroke-width:0.235751px;stroke-linecap:butt;stroke-linejoin:miter;stroke-opacity:0"
         d="m -13.248964,48.675158 c 0,0 -3.123698,1.82707 -2.652196,3.418388 0.471502,1.591318 -0.05894,3.300512 -0.589377,1.355568 -0.53044,-1.944945 -0.412564,-3.300513 3.241573,-4.773956 z"
         id="path570094" />
      <path
         style="opacity:1;fill:#794a39;fill-opacity:1;stroke:#000000;stroke-width:0.264583px;stroke-linecap:butt;stroke-linejoin:miter;stroke-opacity:0"
         d="m -5.6826429,46.709361 c 0,0 3.307292,1.5875 5.09322902,0.859896 1.78593798,-0.727604 3.70416698,-1.5875 4.56406298,-1.389062 0.859896,0.198437 0.264583,0.529166 -0.727604,1.190625 -0.992188,0.661458 -3.17499998,1.719791 -4.894792,1.389062 -1.719792,-0.330729 -4.828646,-1.918229 -4.034896,-2.050521 z"
         id="path570096" />
      <path
         style="fill:#c1805a;fill-opacity:1;stroke:#000000;stroke-width:0.218223px;stroke-linecap:butt;stroke-linejoin:miter;stroke-opacity:0"
         d="m 5.2142381,43.301682 c 0,0 -2.388266,-3.1106 -2.6868,-0.877349 -0.298533,2.23325 0.956184,4.442703 2.255099,3.151439 1.043659,-1.037511 0.553597,-1.730404 0.431701,-2.27409 z"
         id="path185908"
         sodipodi:nodetypes="cssc" />
      <path
         style="opacity:1;fill:#794a39;fill-opacity:1;stroke:#000000;stroke-width:0.237973px;stroke-linecap:butt;stroke-linejoin:miter;stroke-opacity:0"
         d="m 2.5374711,41.687275 c 0,0 -0.465118,1.932034 0.01083,2.40798 0.475946,0.475945 0.435185,0.05099 0.535439,-0.535439 0.392407,-2.295364 -0.482248,-2.14995 -0.546266,-1.872541 z"
         id="path570098"
         sodipodi:nodetypes="cssc" />
      <path
         style="fill:#cea8aa;fill-opacity:1;stroke:#000000;stroke-width:0.290351px;stroke-linecap:butt;stroke-linejoin:miter;stroke-opacity:0"
         d="m 11.452184,31.186698 c 0,0 0.23591,0.290352 0.47182,0.03629 0.235911,-0.254058 0.381086,-0.635143 0.127029,-0.635143 -0.254057,0 -0.671437,0.544407 -0.598849,0.598849 z"
         id="path704876" />
      <path
         style="fill:#bb6774;fill-opacity:1;stroke:#000000;stroke-width:0.264583px;stroke-linecap:butt;stroke-linejoin:miter;stroke-opacity:0"
         d="m -1.2177179,57.392553 c 0,0 -2.513541,-0.198437 -3.96875,0.09922 -1.455208,0.297656 -2.116666,0.562239 -1.289843,0.826823 0.826822,0.264583 3.175,0.198437 4.266406,0.198437 1.091406,0 4.927864,0.09922 5.886979,-0.396875 0.959114,-0.496094 3.538802,-1.091406 4.067968,-1.686719 0.529167,-0.595312 1.124479,-0.926041 0.727604,-1.091406 -0.396875,-0.165364 -2.546614,0.06615 -3.108854,0.330729 -0.562239,0.264584 -3.208072,1.521355 -4.167187,1.554427 -0.95911398,0.03307 -2.282031,0.165365 -2.414323,0.165364 z"
         id="path115098" />
      <path
         id="path163168"
         style="fill:#a87258;fill-opacity:1;stroke:#000000;stroke-width:0.264583px;stroke-linecap:butt;stroke-linejoin:miter;stroke-opacity:0"
         d="m -8.6292339,63.862836 c -0.01371,0.0059 -0.02584,0.08277 -0.02532,0.325046 0.03666,-0.144666 0.06253,-0.23358 0.06253,-0.23358 0,0 -0.01994,-0.09887 -0.03721,-0.09147 z m -0.02532,0.325046 c -0.194207,0.766291 -0.737193,3.295041 0.102319,4.857067 0.497952,0.31242 0.978506,0.584856 1.432986,0.80305 -0.284075,-0.386172 -1.351251,-1.969585 -1.472776,-4.116543 -0.04591,-0.810985 -0.06196,-1.27747 -0.062529,-1.543574 z" />
      <path
         id="path163170"
         style="fill:#a87258;fill-opacity:1;stroke:#000000;stroke-width:0.264583px;stroke-linecap:butt;stroke-linejoin:miter;stroke-opacity:0"
         d="m 20.389149,63.323851 c 0,0 -1.777338,1.496583 -4.864301,3.601331 -0.03167,0.0216 -0.06287,0.04156 -0.09405,0.06201 1.17507,-0.616903 2.24745,-1.190641 3.193603,-1.71514 1.167445,-1.135891 1.764749,-1.948201 1.764748,-1.948201 z m -8.699727,2.338358 c 0,0 0.374044,-0.795134 -1.169437,2.478918 -1.1350969,2.407786 -5.6566909,3.524666 -7.9716049,3.947566 2.020705,-0.11204 4.439917,-0.75856 7.6481089,-2.398306 1.594538,-0.814986 3.014578,-1.546979 4.345472,-2.240174 -2.267479,0.842483 -2.852539,-1.788004 -2.852539,-1.788004 z" />
      <path
         id="path176972"
         style="fill:#cb916e;fill-opacity:1;stroke:#000000;stroke-width:0.264583px;stroke-linecap:butt;stroke-linejoin:miter;stroke-opacity:0"
         d="m 29.257858,36.432987 c -1.884862,-3.089653 -1.182851,6.236166 -7.215063,9.150345 -4.065794,1.964198 -3.96875,7.408333 -3.96875,7.408333 4.377217,3.950803 -11.9747099,13.766715 -4.652946,15.013038 5.453705,-2.306836 10.193448,-5.491618 10.807094,-6.732924 0.772385,-1.562407 3.386341,-2.655287 4.115511,-9.167399 0.637429,-5.692773 0.665753,-13.046139 0.914154,-15.671393 z"
         sodipodi:nodetypes="csccssc" />
      <path
         style="fill:#c1805a;fill-opacity:1;stroke:#000000;stroke-width:0.264583px;stroke-linecap:butt;stroke-linejoin:miter;stroke-opacity:0"
         d="m 6.8347181,47.1286 c 0,0 3.7703119,4.101042 5.9531239,3.96875 2.182813,-0.132291 2.248959,1.124479 2.447396,2.447396 0.198438,1.322917 3.638021,2.182812 4.828646,-1.190629 1.190625,-3.373433 3.373437,-5.820829 -1.058333,-6.482288 -4.431771,-0.661458 -12.6783939,-2.44711 -14.3320399,-2.976276 -1.653646,-0.529167 -0.220043,1.190339 0.573707,2.380964 0.79375,1.190625 1.5875,1.852083 1.5875,1.852083 z"
         id="path176970"
         sodipodi:nodetypes="cssssssc" />
      <path
         style="fill:#a87258;fill-opacity:1;stroke:#000000;stroke-width:0.420941px;stroke-linecap:butt;stroke-linejoin:miter;stroke-opacity:0"
         d="m 14.424972,55.078241 c -0.216948,0 1.368059,-2.104706 0.105242,-2.94659 -1.262824,-0.84188 -3.262294,-1.420674 -3.262294,-1.420674 0,0 2.736118,-0.05262 3.78847,0.894499 1.052353,0.947118 0.07059,3.472765 -0.631413,3.472765 z"
         id="path128744"
         sodipodi:nodetypes="sscsss" />
      <path
         style="opacity:1;fill:#c1805a;fill-opacity:1;stroke:#000000;stroke-width:0.264583px;stroke-linecap:butt;stroke-linejoin:miter;stroke-opacity:0"
         d="m -8.2085139,34.377542 c -0.172023,-0.417446 -0.190194,0.958433 -3.5925791,1.809441 -3.112645,0.778539 -4.731863,-0.06181 -4.782234,0.164345 -0.185875,0.834537 3.188374,0.663947 5.531848,1.626979 2.9152908,1.198015 3.1395351,-0.01839 4.4799901,-2.337919 1.30642,-2.260639 2.08136,-2.57247 1.145918,-3.063576 -0.935445,-0.491109 -2.782943,1.800727 -2.782943,1.800727 z"
         id="path484464"
         sodipodi:nodetypes="cssssscc" />
      <path
         style="opacity:1;fill:#a87258;fill-opacity:1;stroke:#000000;stroke-width:0.264583px;stroke-linecap:butt;stroke-linejoin:miter;stroke-opacity:0"
         d="m -12.394624,31.197034 c 0,0 5.4132841,1.459777 5.0688631,1.717114 -0.745855,0.557272 -3.3108951,1.364662 -3.3108951,1.364662 0,0 2.9660211,1.244651 4.1587101,0.355979 1.192692,-0.888672 3.0432306,-2.966021 1.9908586,-3.784533 -1.052375,-0.818513 -4.2125356,-1.874899 -8.3284867,-0.144328 -4.11595,1.73057 0.42095,0.491106 0.42095,0.491106 z"
         id="path477600"
         sodipodi:nodetypes="cscsssc" />
      <path
         style="fill:#a87258;fill-opacity:1;stroke:none;stroke-width:0.264583px;stroke-linecap:butt;stroke-linejoin:miter;stroke-opacity:1"
         d="m -7.6234283,35.245219 c 0,0 1.8955935,-1.23523 2.0875183,-0.356258 0.1919248,0.878972 -0.1327995,2.537766 0.2983481,2.699978 0.4311476,0.162211 0.9584091,0.365656 1.0881771,-1.422301 0.1297679,-1.787961 0.1233709,-4.485012 -0.035808,-4.803674 -0.159179,-0.318662 -0.1808215,-0.446777 -0.8427026,-0.548652 -0.6618814,-0.101874 -1.1695588,-0.119108 -1.3839197,0.221378 -0.2143607,0.340492 -0.036383,1.782502 -0.036383,1.782502 l 0.3716821,0.837359 z"
         id="path68225"
         sodipodi:nodetypes="cssssssccc" />
      <path
         style="opacity:1;fill:#cea8aa;fill-opacity:1;stroke:#000000;stroke-width:0.264583px;stroke-linecap:butt;stroke-linejoin:miter;stroke-opacity:0"
         d="m -17.522747,34.042434 c 0,0 1.223698,-2.61276 4.134115,-2.711979 2.910416,-0.09922 6.5319011,0.595313 6.1350251,1.620573 -0.198437,0.51263 -0.430034,0.675659 -0.922079,0.801481 -0.492046,0.125822 -1.128785,0.181365 -1.9059991,0.412875 -1.554427,0.463021 -4.92752,0.836165 -7.441062,-0.122948 z"
         id="path441270"
         sodipodi:nodetypes="csssssc" />
      <path
         style="opacity:1;fill:#2e2120;fill-opacity:1;stroke:#000000;stroke-width:0.264583px;stroke-linecap:butt;stroke-linejoin:miter;stroke-opacity:0"
         d="m -14.218739,32.062319 c 0.0083,-0.02073 -0.838222,0.821016 -0.11693,2.03459 0.590332,0.993233 2.676799,0.579802 3.531299,0.07016 0.8071841,-0.481423 0.749403,-1.418929 0.678196,-2.151517 -0.08965,-0.922286 -1.824114,-0.608039 -1.941044,-0.631426 -0.11693,-0.02339 -2.151521,0.678196 -2.151521,0.678196 z"
         id="path458764"
         sodipodi:nodetypes="csssscc" />
      <path
         style="fill:#392a27;fill-opacity:1;stroke:#000000;stroke-width:0.264583px;stroke-linecap:butt;stroke-linejoin:miter;stroke-opacity:0"
         d="m -14.155208,34.280078 c 0,0 -0.309033,-1.588345 0.177889,-1.487795 1.765625,0.364604 4.0207515,1.254025 1.091406,0.56224 -0.505099,-0.119283 0.515955,-0.008 0.697856,-0.206466 0.181901,-0.198438 0.873108,-0.71958 1.203837,-0.752653 0.330729,-0.03307 0.830835,0.495607 0.71508,0.909019 -0.115755,0.413411 -0.190169,0.669726 -0.7028,0.967382 -0.51263,0.297657 -1.488281,0.338998 -1.752864,0.355534 -0.264584,0.01654 -1.025261,-0.09095 -1.025261,-0.09095 z"
         id="path31399"
         sodipodi:nodetypes="cssssssscc" />
      <path
         style="fill:#40322f;fill-opacity:1;stroke:none;stroke-width:0.264583px;stroke-linecap:butt;stroke-linejoin:miter;stroke-opacity:1"
         d="m -13.617773,34.371028 c 0,0 -0.661458,-0.264583 -0.702799,-0.8847 -0.04134,-0.620117 0.05788,-1.174089 0.115755,-1.231966 0.05788,-0.05788 1.976106,-0.603581 2.009179,-0.611849 0.03307,-0.0083 1.050065,-0.03307 1.050065,-0.03307 l 0.587045,0.04961 0.181901,0.107487 c 0,0 0.190169,1.116211 0.0083,1.579232 -0.181901,0.463021 -0.694531,0.835091 -0.752409,0.859896 -0.05788,0.02479 -0.868164,0.14056 -0.868164,0.14056 l -0.0083,0.248046 1.132747,-0.190169 0.04961,-0.223242 0.355534,-0.297656 0.206705,-0.314193 0.148828,-0.396875 -0.01654,-1.02526 -0.132292,-0.7028 -3.232877,0.14056 -1.033529,0.463021 -0.03307,0.669726 -0.03307,0.785482 0.173633,0.429948 0.256315,0.355534 0.570508,0.305924 0.28112,0.04961 z"
         id="path42008" />
      <path
         style="fill:#40322f;fill-opacity:1;stroke:none;stroke-width:0.264583px;stroke-linecap:butt;stroke-linejoin:miter;stroke-opacity:1"
         d="m -13.49377,34.658175 c -0.152052,0 -0.79349,-1.232843 -0.280632,-1.262848 0.455894,-0.02667 1.375004,0.906104 1.952737,0.222166 0.429035,-0.507905 0.713276,-0.654811 0.947137,-0.514494 0.233861,0.140316 0.339098,0.783434 0.08185,1.064067 -0.257247,0.280633 -0.900364,0.432644 -1.321314,0.467723 -0.420949,0.03508 -0.830206,-0.03507 -0.830206,-0.03507 z"
         id="path40801"
         sodipodi:nodetypes="cssssscc" />
      <path
         style="fill:#1e0803;fill-opacity:1;stroke:#000000;stroke-width:0.264583px;stroke-linecap:butt;stroke-linejoin:miter;stroke-opacity:0"
         d="m -14.382442,32.436498 c 0,0 -0.315711,1.531787 0.491109,1.929352 0.806821,0.397563 1.952736,0.23386 2.256756,0.140317 0.304019,-0.09355 1.543481,-0.561266 1.438246,-1.625333 -0.105238,-1.064067 0.152008,-1.216078 -0.666504,-1.333008 -0.818512,-0.11693 0.8641771,-0.101616 0.8641771,-0.101616 l -0.1736331,0.198438 c 0,0 0.2976561,1.157552 -0.02479,1.860352 -0.322474,0.702799 -1.306393,1.083138 -1.306393,1.083138 0,0 -2.199349,0.09922 -2.232422,0.09095 -0.03307,-0.0083 -1.000456,-0.65319 -0.942578,-1.405599 0.05788,-0.752409 0.132292,-0.909505 0.132292,-0.909505 z"
         id="path550378" />
      <path
         style="fill:#794a39;fill-opacity:1;stroke:#000000;stroke-width:0.264583px;stroke-linecap:butt;stroke-linejoin:miter;stroke-opacity:0"
         d="m -7.1967949,45.06438 c 0,0 0.314193,-0.744141 0.84336,-0.744141 0.529166,0 0.496093,0.33073 0.760676,-0.09922 0.264584,-0.429948 0.03307,-0.644922 -0.165362,-1.240234 -0.198437,-0.595313 -0.777213,-0.06615 -1.008724,0.396874 -0.23151,0.463021 -0.429948,1.686719 -0.429948,1.686719 z"
         id="path416836"
         sodipodi:nodetypes="csssscc" />
      <path
         style="opacity:1;fill:#150403;fill-opacity:1;stroke:#000000;stroke-width:0.312149px;stroke-linecap:butt;stroke-linejoin:miter;stroke-opacity:0"
         d="m -12.569473,32.434892 c 0,0 -0.786326,0.386263 -0.358675,0.965662 0.42765,0.579395 1.076021,0.09656 1.103612,-0.151749 0.0276,-0.248311 0.09657,-1.11741 -0.744937,-0.813913 z"
         id="path466269" />
      <path
         style="fill:#cea8aa;fill-opacity:1;stroke:#000000;stroke-width:0.277932px;stroke-linecap:butt;stroke-linejoin:miter;stroke-opacity:0"
         d="m -12.919462,32.493815 c 0,0 -0.393057,0.257943 -0.147396,0.442188 0.245658,0.184246 0.503602,0 0.515884,-0.12283 0.01228,-0.122829 -0.331641,-0.380773 -0.368488,-0.319358 z"
         id="path700185" />
      <path
         style="fill:#a87258;fill-opacity:1;stroke:#000000;stroke-width:0.264583px;stroke-linecap:butt;stroke-linejoin:miter;stroke-opacity:0"
         d="m 5.4298571,31.561966 c 0,0 -0.330729,0.694531 -0.198437,0.859896 0.132291,0.165364 0.562239,-0.595313 1.02526,-1.289844 0.463021,-0.694531 1.190625,-1.719792 1.752865,-2.017448 0.562239,-0.297656 1.9996989,-0.51339 2.0932429,-0.51339 0.09355,0 3.975634,-0.11693 4.607059,0.163703 0.631423,0.280633 1.850669,0.723739 1.850669,0.723739 0,0 -0.985383,-0.840671 -2.528867,-1.004372 -1.543481,-0.163703 -5.5424999,-0.350792 -6.5948739,0.65481 -1.052375,1.005602 -2.006918,2.422906 -2.006918,2.422906 z"
         id="path532870"
         sodipodi:nodetypes="cssssscssc" />
      <path
         style="fill:#a87258;fill-opacity:1;stroke:#000000;stroke-width:0.264583px;stroke-linecap:butt;stroke-linejoin:miter;stroke-opacity:0"
         d="m -17.901473,35.922152 c 0.132291,0.03307 3.879608,0.247206 6.133851,-0.90002 3.7082786,-1.887213 6.133424,-0.9961 5.1363328,-0.315653 -0.9019057,0.615489 -4.7036348,1.662485 -6.7061218,2.108641 -2.121085,0.47258 -4.614308,-0.527196 -4.564062,-0.892968 z"
         id="path563880"
         sodipodi:nodetypes="csssc" />
      <path
         style="fill:#a87258;fill-opacity:1;stroke:#000000;stroke-width:0.264583px;stroke-linecap:butt;stroke-linejoin:miter;stroke-opacity:0"
         d="m -6.9394139,45.22108 c 0,0 0.661459,1.025261 0.84336,1.141016 0.181901,0.115755 -0.181901,0.314192 -0.545703,-0.314193 -0.363802,-0.628385 -0.297657,-0.826823 -0.297657,-0.826823 z"
         id="path573825" />
      <path
         style="fill:#a87258;fill-opacity:1;stroke:#000000;stroke-width:0.264583px;stroke-linecap:butt;stroke-linejoin:miter;stroke-opacity:0"
         d="m 4.5699611,45.78332 c 0,0 0.926042,-1.157552 0.694531,-1.719792 -0.23151,-0.56224 0.03307,-0.79375 0.132292,-0.330729 0.09922,0.463021 0.145717,0.303197 0.07556,0.653986 -0.07016,0.350793 -0.495144,1.436675 -0.902383,1.396535 z"
         id="path580186" />
      <path
         style="fill:#413129;fill-opacity:1;stroke:#000000;stroke-width:0.264583px;stroke-linecap:butt;stroke-linejoin:miter;stroke-opacity:0"
         d="m -28.039934,32.091132 c 0.501014,-0.02947 -4.445378,-2.602232 -0.661458,-15.213541 3.953933,-13.1779413 10.715624,-18.5208327 12.303124,-19.8437497 1.5875,-1.322917 6.4357971,-5.733464 14.3402921,-7.0898573 7.904496,-1.356393 8.559308,-1.403165 10.757599,-0.841899 2.1982929,0.561266 7.3878349,2.8251503 8.0448119,3.4143683 4.378109,3.926564 -5.496349,0.290008 -9.6818369,2.970033 -4.159626,2.663464 -11.178548,15.6452887 -11.178548,15.6452887 l -16.9315251,9.72861 c 0,0 -4.303039,1.028988 -5.519116,3.741774 -1.216076,2.712787 -1.473343,7.488973 -1.473343,7.488973 z"
         id="path704174"
         sodipodi:nodetypes="cssssssccsc" />
      <path
         id="path491594"
         style="fill:#72473d;fill-opacity:1;stroke:#000000;stroke-width:0.999999px;stroke-linecap:butt;stroke-linejoin:miter;stroke-opacity:0"
         d="m -31.785156,119.19141 c -0.226453,0.005 -0.105593,0.32425 -0.08984,0.68945 0.05543,1.28535 -0.917936,0.84093 -1.292969,0.62305 0.744221,0.46341 6.472453,4.10265 4.453125,5.12695 -5.139801,2.38364 -11.38675,3.30977 -15.921875,4.38867 -7.778181,1.85616 -20.771484,-1.50195 -20.771484,-1.50195 0,0 -1.962682,0.16475 3.712891,2.38476 8.9153,3.48724 22.82989,-0.49073 26.314453,-1.55859 3.012239,-0.92312 12.779805,-3.66067 11.289062,-5.54102 -1.372127,-1.31726 -5.065432,-3.16959 -6.597656,-4.0957 -0.622465,-0.37623 -0.940762,-0.51929 -1.095703,-0.51562 z m -1.527344,1.2207 c 0,0 0.05308,0.0379 0.138672,0.0879 -0.04655,-0.029 -0.138672,-0.0879 -0.138672,-0.0879 z"
         sodipodi:nodetypes="ssccccsscssccc"
         transform="scale(0.26458333)" />
      <path
         style="opacity:1;fill:#1e0803;fill-opacity:1;stroke:#000000;stroke-width:0.264583px;stroke-linecap:butt;stroke-linejoin:miter;stroke-opacity:0"
         d="m -17.870012,34.058971 c 0.565769,0.155063 0.877175,-0.832849 2.761588,-1.389063 1.826381,-0.539085 2.315825,-0.890496 4.48138,-0.859896 2.1555421,0.03046 3.0398911,0.525511 2.6326211,0.08649 -0.59737,-0.643941 -0.236758,-0.526036 -1.447671,-0.798734 -2.1043771,-0.414066 -5.7371761,-0.06637 -7.2703661,1.059508 -0.588172,0.652538 -1.235994,1.247194 -1.15755,1.901695 z"
         id="path451830"
         sodipodi:nodetypes="sssscccs" />
      <path
         style="fill:#4b3831;fill-opacity:1;stroke:#000000;stroke-width:0.264583px;stroke-linecap:butt;stroke-linejoin:miter;stroke-opacity:0"
         d="m -24.335768,22.698424 c 0.661459,-2.38125 5.027084,-18.6531247 12.170834,-22.48958266 7.1437501,-3.83645804 12.08944412,-9.30467104 19.7623611,-8.37863004 7.6729159,0.926042 11.1938879,2.690089 7.6220129,6.526547 -3.571875,3.836458 -30.559374,22.6218747 -39.555208,24.3416657 z"
         id="path712284"
         sodipodi:nodetypes="csssc" />
      <path
         style="fill:#4a362d;fill-opacity:1;stroke:#000000;stroke-width:0.264583px;stroke-linecap:butt;stroke-linejoin:miter;stroke-opacity:0"
         d="m -4.8888929,-5.6119917 c 0,0 -14.0229161,6.879166 -16.2718751,14.816666 -2.248958,7.9374997 -5.159375,12.6999997 -6.614583,14.6843747 -1.455208,1.984375 -1.81901,4.597136 -0.363802,6.581511 1.455208,1.984375 -2.600336,3.85567 1.338702,-3.997514 3.814658,-7.60521 4.156678,-9.479022 7.156141,-13.657473 3.000265,-4.1795687 7.296459,-8.5125337 11.3188631,-10.1027877 4.022408,-1.590253 5.425573,-3.08696296 8.41899202,-6.080381 2.99341898,-2.993419 5.61265898,-4.490128 6.92227998,-4.864306 1.309621,-0.374177 -3.320825,-0.467717 -6.59487498,0.467722 -3.27405202,0.935444 -5.30984302,2.152188 -5.30984302,2.152188 z"
         id="path716689"
         sodipodi:nodetypes="csssssssssc" />
      <path
         style="fill:#46322b;fill-opacity:1;stroke:#000000;stroke-width:0.264583px;stroke-linecap:butt;stroke-linejoin:miter;stroke-opacity:0"
         d="m 7.0817811,-8.4267987 c 0,0 -14.484215,4.005432 -17.7915071,10.22314 -3.307292,6.217708 -5.423958,13.4937497 -10.31875,17.8593747 -4.894792,4.365625 -6.35,5.688541 -6.879167,8.995833 -0.529166,3.307292 -0.165364,4.365625 -0.165364,4.365625 0,0 -3.023168,-2.927843 1.210165,-7.558052 4.233334,-4.630208 10.464574,-6.994031 14.036449,-9.110698 3.5718751,-2.116666 5.9531251,-11.9062497 9.2604171,-14.0229157 3.30729102,-2.11666696 11.505264,-6.017939 12.567708,-7.672917 1.2422419,-1.935052 -0.131621,-3.372663 -1.919951,-3.07939 z"
         id="path763706"
         sodipodi:nodetypes="cssscssssc" />
      <path
         style="fill:#4b352c;fill-opacity:1;stroke:#000000;stroke-width:0.264583px;stroke-linecap:butt;stroke-linejoin:miter;stroke-opacity:0"
         d="m 8.8547681,-8.0533097 c 0,0 -2.763453,3.102776 -8.98116098,6.806943 -6.21770802,3.704166 -8.20208302,9.789583 -9.65729102,10.847916 -1.4552091,1.0583337 -4.7625001,4.7624997 -9.1281251,6.4822917 -4.365625,1.719792 -8.069792,4.696355 -8.069792,4.696355 0,0 3.704167,-1.389063 6.879167,-2.050522 3.175,-0.661458 14.8166661,-5.953125 16.1395831,-7.408333 1.322917,-1.4552077 5.656323,-8.1498947 9.392708,-11.24479166 4.8569649,-4.02308804 4.518911,-7.99310904 3.424911,-8.12985904 z"
         id="path769905"
         sodipodi:nodetypes="cssscsssc" />
      <path
         style="fill:#624233;fill-opacity:1;stroke:#000000;stroke-width:0.264583px;stroke-linecap:butt;stroke-linejoin:miter;stroke-opacity:0"
         d="m 12.41724,-7.3003717 c 0,0 -8.1780079,15.049838 -15.7186329,18.6217127 -7.5406251,3.571875 -21.0343751,5.820833 -24.4739581,9.789583 -3.439583,3.96875 -2.910416,3.704167 -0.661458,2.513542 2.248958,-1.190625 9.657291,-3.307292 13.890625,-4.233333 4.233333,-0.926042 30.956249,-9.7895837 31.882291,-15.8749997 0.926042,-6.085417 2.034581,-9.231474 -4.918867,-10.816505 z"
         id="path778751"
         sodipodi:nodetypes="csssssc" />
      <path
         style="fill:#85624e;fill-opacity:1;stroke:#000000;stroke-width:0.264583px;stroke-linecap:butt;stroke-linejoin:miter;stroke-opacity:0"
         d="m 12.301078,5.8932943 c 0,0 -9.6818379,8.6996217 -21.6555119,11.1317747 -11.9736751,2.432151 -20.7668421,3.928862 -20.9539311,7.670634 -0.187088,3.741774 0.862067,6.093752 2.178918,8.627802 1.298273,2.498299 0.551865,2.168544 0.374178,-2.61924 -0.168822,-4.548934 7.92387,-8.814892 14.284884,-9.563247 6.3610151,-0.748353 23.526399,-7.202912 25.771463,-15.2477237 z"
         id="path840370"
         sodipodi:nodetypes="csssssc" />
      <path
         style="fill:#4b352c;fill-opacity:1;stroke:#000000;stroke-width:0.264583px;stroke-linecap:butt;stroke-linejoin:miter;stroke-opacity:0"
         d="m 21.234564,2.2918353 c 0,0 5.799748,14.6864597 10.476965,18.1476017 4.677217,3.461139 4.677217,3.414367 4.677217,3.414367 0,0 -4.844444,-7.286866 -6.735194,-12.862347 -1.857853,-5.4784717 -2.19688,-7.2001007 -5.051393,-8.3254437 -2.782058,-1.096779 -3.345575,-0.175999 -3.367595,-0.374178 z"
         id="path1003875"
         sodipodi:nodetypes="cscssc" />
      <path
         style="fill:#735241;fill-opacity:1;stroke:#000000;stroke-width:0.264583px;stroke-linecap:butt;stroke-linejoin:miter;stroke-opacity:0"
         d="m 16.039329,-6.2068537 c 0,0 -5.773491,10.060815 -9.7422409,12.640503 -3.96875,2.579687 -5.55624998,3.175 -5.55624998,3.175 0,0 8.34973898,-1.787985 11.44460588,-3.5478 4.834805,-2.749185 6.704465,-11.949931 3.853885,-12.267703 z"
         id="path887812"
         sodipodi:nodetypes="cscsc" />
      <path
         style="fill:#ac8774;fill-opacity:1;stroke:#000000;stroke-width:0.264583px;stroke-linecap:butt;stroke-linejoin:miter;stroke-opacity:0"
         d="m 17.007797,-5.5523977 c 0.237372,0.09288 -5.604227,16.8873577 -11.5591369,18.6467137 -4.76904198,1.408996 -9.525,5.027083 -15.08125,5.688542 -5.5562501,0.661458 -8.5989581,1.058333 -8.5989581,1.058333 0,0 3.175,0.661458 7.276041,0.529167 4.1010421,-0.132292 21.32896,-2.593502 24.077083,-6.879167 2.637477,-4.1131147 6.414518,-17.8792577 3.886221,-19.0435887 z"
         id="path853543"
         sodipodi:nodetypes="csscssc" />
      <path
         style="fill:#85624e;fill-opacity:1;stroke:#000000;stroke-width:0.264583px;stroke-linecap:butt;stroke-linejoin:miter;stroke-opacity:0"
         d="m 17.35491,9.9193163 c 0,0 5.027083,0.2645837 7.276041,3.3072917 2.248958,3.042708 2.778125,4.630208 2.778125,4.630208 0,0 1.190625,-10.7156247 -1.852083,-14.0229157 C 22.514285,0.52660834 21.455951,0.12973334 21.455951,0.12973334 L 19.206993,1.9818163 18.14866,4.7599413 Z"
         id="path997107" />
      <path
         style="fill:#ad8271;fill-opacity:1;stroke:#000000;stroke-width:0.264583px;stroke-linecap:butt;stroke-linejoin:miter;stroke-opacity:0"
         d="m 16.65089,-5.2384827 c 0,0 -0.467722,16.2767137 -3.928861,18.6153207 -3.4611409,2.33861 -6.6416469,3.554685 -6.6416469,3.554685 0,0 8.9802539,-0.374176 11.5059529,-3.835318 2.525697,-3.4611387 4.994096,-13.26412766 6.019356,-13.85943966 1.02526,-0.59531304 -4.101042,-5.52317804 -5.55625,-5.62239604 -1.455208,-0.09922 -1.398551,1.147148 -1.398551,1.147148 z"
         id="path923323"
         sodipodi:nodetypes="cscsssc" />
      <path
         id="path938502"
         style="fill:#413129;fill-opacity:1;stroke:#000000;stroke-width:0.264583px;stroke-linecap:butt;stroke-linejoin:miter;stroke-opacity:0"
         d="m 16.038195,-6.8527861 c -0.535543,0.011668 -0.535369,0.2356446 -0.535369,0.2356446 l 1.322917,0.9260416 c 0.857118,0.2380882 4.243078,4.2067067 5.615678,7.2024676 0.46065,0.3648178 1.027491,0.1626251 1.926497,1.0729952 -0.119668,-1.870447 -0.266133,-3.38067119 -0.266133,-3.38067119 0,0 -1.455209,-3.96875071 -5.027084,-5.29166661 -1.674315,-0.6201174 -2.563971,-0.7751061 -3.036506,-0.7648112 z"
         sodipodi:nodetypes="scccccss" />
      <path
         style="fill:#cb916e;fill-opacity:1;stroke:#000000;stroke-width:0.230413px;stroke-linecap:butt;stroke-linejoin:miter;stroke-opacity:0"
         d="m 28.41293,31.342509 c 0.319946,0.158744 1.716538,-3.885809 1.902987,-4.770614 0.26492,-1.257192 1.502358,-0.132517 1.402201,1.722722 -0.100158,1.855238 -0.200315,7.951022 -0.300471,9.938777 -0.100158,1.987756 -1.85291,7.619728 -3.054797,7.884763 -1.201886,0.265033 0.250394,-9.740002 0.150237,-11.330206 C 28.41293,33.197747 28.41293,31.342509 28.41293,31.342509 Z"
         id="path973193"
         sodipodi:nodetypes="csssssc" />
      <path
         style="fill:#413129;fill-opacity:1;stroke:#000000;stroke-width:0.264583px;stroke-linecap:butt;stroke-linejoin:miter;stroke-opacity:0"
         d="m 28.437477,30.682541 c 0,0 0.608038,7.717407 0.420951,8.418989 -0.18709,0.701583 0.656354,-4.396443 0.748354,-5.42557 0.10311,-1.153405 -0.179378,-4.824228 -0.5145,-4.069179 -0.246668,0.555756 -0.654809,1.07576 -0.654809,1.07576 z"
         id="path978782"
         sodipodi:nodetypes="cssscc" />
      <path
         style="fill:#413129;fill-opacity:1;stroke:#000000;stroke-width:0.264583px;stroke-linecap:butt;stroke-linejoin:miter;stroke-opacity:0"
         d="m 28.110071,28.71811 c 0,0 0.888672,1.917658 1.777344,2.478924 0.888669,0.561265 0.631422,0.397563 0.631422,0.397563 0,0 -0.818512,-1.286233 -1.005601,-3.531296 -0.187087,-2.245067 -0.841899,-2.993419 -0.841899,-2.993419 l -0.841899,2.057974 z"
         id="path987520"
         sodipodi:nodetypes="cscsccc" />
      <path
         style="fill:#413129;fill-opacity:1;stroke:#000000;stroke-width:0.295702px;stroke-linecap:butt;stroke-linejoin:miter;stroke-opacity:0"
         d="m 30.495788,31.643835 c 0,0 -0.670512,-0.771283 0.408128,-4.130381 1.078648,-3.359099 -0.746756,-2.766317 -0.746756,-2.766317 0,0 -1.825404,2.634587 -1.742433,2.898046 0.08298,0.263459 0.165947,1.514887 0.165947,1.514887 z"
         id="path992350"
         sodipodi:nodetypes="cscscc" />
      <path
         id="path1015104"
         style="fill:#624233;fill-opacity:1;stroke:#000000;stroke-width:0.264583px;stroke-linecap:butt;stroke-linejoin:miter;stroke-opacity:0"
         d="m 24.893984,13.587309 c -0.124005,1.558663 -0.8968,12.619077 1.868104,15.875516 2.976562,3.505729 3.902604,2.182813 3.902604,2.182813 0,0 -3.704166,-2.71198 -3.439583,-6.813021 0.177977,-2.758649 1.580703,-5.152758 2.4815,-6.428031 -0.710358,-0.890879 -1.423865,-1.944984 -2.119249,-3.080433 -0.06714,1.503699 -0.178284,2.532663 -0.178284,2.532663 0,0 -0.48837,-1.462651 -2.515092,-4.269507 z" />
    </g>
    <path
       style="fill:#693f31;fill-opacity:1;stroke:#000000;stroke-width:0.264583px;stroke-linecap:butt;stroke-linejoin:miter;stroke-opacity:0"
       d="m 115.88962,76.314091 c 0,0 5.02475,-13.547689 7.35474,-23.096818 2.33,-9.549129 4.88993,-20.588986 5.5191,-21.090674 0.62916,-0.501691 1.18148,-0.733471 3.21201,-0.34982 2.03054,0.383658 22.87753,6.416944 24.8056,7.160473 1.92807,0.743527 3.23825,0.241226 2.61153,3.466966 -0.62672,3.225739 -11.38862,38.288324 -11.93971,39.882132 -0.55105,1.593821 1.01711,2.234867 1.01711,2.234867 0,0 2.30621,-7.416122 3.9982,-11.991999 1.692,-4.575875 8.69696,-30.884691 8.88874,-31.899972 0.19187,-1.015257 0.0756,-1.631928 -2.05799,-2.336723 -2.13361,-0.704789 -26.02703,-7.994574 -26.83674,-8.225134 -0.80971,-0.230557 -4.25412,-1.114069 -4.90769,0.839616 -0.65351,1.953694 -7.70848,29.804473 -8.42639,31.642568 -0.71792,1.838099 -4.21565,13.097235 -4.09946,13.713897 0.11621,0.616664 0.86095,0.05062 0.86095,0.05062 z"
       id="path1052035"
       inkscape:export-filename="C:\Users\jonas\Documents\Sciebo\DominionCompanion\g133300.png"
       inkscape:export-xdpi="299.93079"
       inkscape:export-ydpi="299.93079" />
    <g
       id="g718734"
       transform="matrix(0.8774297,0.10783958,-0.10783958,0.8774297,45.460962,-7.8826336)"
       inkscape:export-filename="C:\Users\jonas\Documents\Sciebo\DominionCompanion\g133300.png"
       inkscape:export-xdpi="299.93079"
       inkscape:export-ydpi="299.93079">
      <path
         id="path907"
         style="opacity:1;fill:#d79974;fill-opacity:1;stroke:none;stroke-width:0.999999px;stroke-linecap:butt;stroke-linejoin:miter;stroke-opacity:1"
         d="m 416.79688,259.15625 c -1.09137,0.0191 -1.93296,0.0697 -2.44532,0.16016 -4.0989,0.72333 -18.92749,4.94332 -25.4375,8.43945 -6.51004,3.49613 -26.40234,16.27344 -26.40234,16.27344 0,0 -7.95627,7.7171 -10.84961,10.85156 -2.89335,3.13446 -14.4283,16.77808 -18.34961,18.3125 -3.92132,1.53443 -6.30851,4.0922 -7.50195,6.30859 -1.19345,2.21641 -1.02303,8.35464 -2.89844,12.10547 -1.87541,3.75082 -2.89948,8.0135 -7.84375,10.40039 -4.94427,2.38689 -10.74039,7.84155 -12.44531,11.42188 -1.70493,3.58033 -1.87566,8.35489 -0.51172,12.61719 1.36394,4.2623 5.79687,8.18359 5.79687,8.18359 0,0 4.26335,2.89865 4.94532,7.50195 0.68197,4.60328 -1.70648,7.33113 2.21484,12.27539 3.92131,4.94427 20.03352,27.10702 23.44336,34.52344 3.40985,7.41638 16.16406,37.17773 16.16406,37.17773 0,0 10.51741,24.79722 12.9043,28.20704 2.38689,3.40985 2.21679,23.86914 2.2168,23.86914 l 2.88281,29.91211 c 11.97489,4.32994 50.99649,15.40032 83.90039,-9.58008 l -7.50391,-63.4668 c 0,0 -1.36425,-12.61703 0.68164,-19.0957 2.0459,-6.47872 6.47852,-11.25241 10.57031,-28.64258 4.09183,-17.39021 6.6505,-34.43845 5.45704,-40.57617 -1.19347,-6.13773 -3.23983,-8.52474 -1.02344,-9.88867 2.21643,-1.36395 22.97725,-9.65711 26.08398,-11.76563 4.88364,-3.31448 5.82571,-5.46038 7.16211,-11.08203 1.3389,-5.63224 -0.34196,-10.73982 -4.94531,-12.61523 -4.60331,-1.87541 -7.34275,-3.30588 -8.42773,-6.19922 -1.08503,-2.89335 -4.33961,-7.5961 -7.35352,-8.56055 -3.01391,-0.96444 -2.53125,-1.53711 -2.53125,-1.53711 0,0 3.61595,-11.00061 -0.60352,-17.26953 -4.21946,-6.26891 -5.42454,-7.47427 -14.3457,-7.83594 -8.92116,-0.36166 -22.90625,-2.41211 -22.90625,-2.41211 0,0 -10.24615,-0.84387 5.06445,-3.49609 15.31064,-2.65223 17.60157,-9.04102 17.60157,-9.04102 0,0 4.45932,-6.38962 4.09765,-12.29687 -0.3617,-5.90725 -9.6442,-11.2106 -14.82812,-11.57227 -4.53594,-0.31645 -24.39368,-1.74093 -32.0332,-1.60742 z"
         transform="scale(0.26458333)" />
      <path
         style="fill:#c1805a;fill-opacity:1;stroke:#000000;stroke-width:0.264583px;stroke-linecap:butt;stroke-linejoin:miter;stroke-opacity:0"
         d="m 111.87902,88.680027 c 0,0 0.8419,1.028988 0.8419,2.432153 0,1.403165 0.8419,0.280633 0.8419,0.280633 0,0 0.28063,-2.338607 0.93544,-2.712786 0.65481,-0.374176 -1.49671,-0.748353 -1.49671,-0.748353 z"
         id="path377376" />
      <path
         style="fill:#a87258;fill-opacity:1;stroke:#000000;stroke-width:0.264583px;stroke-linecap:butt;stroke-linejoin:miter;stroke-opacity:0"
         d="m 101.58627,94.41388 c 0,0 5.59356,-4.601155 11.81865,-3.338092 6.22509,1.263062 9.29252,2.345684 11.90887,1.804373 2.61634,-0.541311 0.90218,0.902187 0.90218,0.902187 l -9.6534,0.992407 -8.02946,0.180436 -6.22509,0.451096 z"
         id="path150865" />
      <path
         style="fill:#794a39;fill-opacity:1;stroke:#000000;stroke-width:0.264583px;stroke-linecap:butt;stroke-linejoin:miter;stroke-opacity:0"
         d="m 87.691242,101.17652 c 0,0 11.693682,1.83973 16.015168,-0.312 4.21578,-2.099098 8.14688,-4.742733 8.22607,-4.706191 0.84439,0.38962 -0.19661,0.01481 -0.19661,0.01481 l -8.75121,2.616343 -4.962032,1.669048 z"
         id="path34370"
         sodipodi:nodetypes="csscccc" />
      <path
         style="fill:#c1805a;fill-opacity:1;stroke:#000000;stroke-width:0.264583px;stroke-linecap:butt;stroke-linejoin:miter;stroke-opacity:0"
         d="m 95.625421,95.312861 c -2.037495,3.362904 -15.944453,13.070099 -1.580154,-3.157654 2.057591,-2.324518 4.691372,-4.420716 5.864215,-2.435905 1.172838,1.984812 1.489938,3.879403 0.587748,4.330496 -0.902186,0.451094 -4.871809,1.263063 -4.871809,1.263063 z"
         id="path205770"
         sodipodi:nodetypes="csssc" />
      <path
         style="fill:#a4654b;fill-opacity:1;stroke:none;stroke-width:0.264583px;stroke-linecap:butt;stroke-linejoin:miter;stroke-opacity:1"
         d="m 87.691242,101.17652 c 0,0 7.362208,-6.761014 12.593338,-7.909311 5.23113,-1.148295 14.54509,0.255177 17.60721,0 3.06213,-0.255175 3.92335,-0.303022 7.01737,-1.339678 3.09403,-1.036656 3.55653,-2.854794 3.55653,-2.854794 0,0 -0.44656,2.12116 -4.78457,3.731964 -4.338,1.610805 -10.06354,3.173764 -10.06354,3.173764 l -16.299434,4.848365 z"
         id="path135672"
         sodipodi:nodetypes="cssscsccc" />
      <path
         style="fill:#c1805a;fill-opacity:1;stroke:#000000;stroke-width:0.264583px;stroke-linecap:butt;stroke-linejoin:miter;stroke-opacity:0"
         d="m 118.19327,95.228131 c 0,0 1.73057,0.561265 2.19829,2.432153 0.46772,1.870887 0.0935,2.15152 0.0935,2.15152 l 2.15152,-0.608038 c 0,0 -1.07576,-2.666014 -0.65481,-4.022408 0.42095,-1.356392 -1.96443,-0.654809 -1.96443,-0.654809 z"
         id="path372234"
         sodipodi:nodetypes="csccscc" />
      <path
         style="fill:#794a39;fill-opacity:1;stroke:#000000;stroke-width:0.264583px;stroke-linecap:butt;stroke-linejoin:miter;stroke-opacity:0"
         d="m 113.74517,95.882774 c -2.23714,0.613021 9.75437,-0.756375 11.35538,-1.913827 1.47861,-1.068963 2.20323,-1.737979 2.87074,-3.046177 0.65136,-1.276559 0.5263,-1.770289 0.5263,-1.770289 0,0 -0.97286,1.451318 -2.2328,2.073314 -1.25994,0.621993 -7.51441,3.639179 -12.47644,4.315819 -4.96203,0.67664 -0.0432,0.34116 -0.0432,0.34116 z"
         id="path38282"
         sodipodi:nodetypes="csscsscc" />
      <path
         style="fill:#290c08;fill-opacity:1;stroke:#000000;stroke-width:0.264583px;stroke-linecap:butt;stroke-linejoin:miter;stroke-opacity:0"
         d="m 87.691242,101.17652 c 0,0 11.062277,-0.50917 13.869218,-2.295414 2.80695,-1.786239 0.31934,-2.433884 4.40181,-2.487975 4.08283,-0.0541 11.05477,-1.803551 7.59152,-0.366818 -3.54219,1.46948 -12.0817,3.726791 -13.907152,4.322057 -1.74021,0.56747 -11.09801,1.57127 -11.955396,0.82815 z"
         id="path10121"
         sodipodi:nodetypes="cssssc" />
      <path
         style="fill:#a87258;fill-opacity:1;stroke:#000000;stroke-width:0.264583px;stroke-linecap:butt;stroke-linejoin:miter;stroke-opacity:0"
         d="m 118.27455,98.562133 c 0,0 5.16734,0.701738 7.20876,-1.850033 2.04141,-2.551771 4.62508,-4.816468 5.83717,-4.752672 1.21209,0.06379 0.15949,2.264697 0.15949,2.264697 l -5.42252,3.827656 -5.03974,1.467268 z"
         id="path51868"
         sodipodi:nodetypes="csscccc" />
      <path
         style="fill:#a87258;fill-opacity:1;stroke:#000000;stroke-width:0.264583px;stroke-linecap:butt;stroke-linejoin:miter;stroke-opacity:0"
         d="m 98.293284,108.62333 c 0,0 3.157656,-5.86422 10.059386,-8.34523 6.90173,-2.481018 9.87895,-1.714161 12.72084,-1.849487 2.84189,-0.135329 1.30817,1.398389 1.30817,1.398389 l -11.23223,5.007138 -9.02187,3.69897 z"
         id="path44577" />
      <path
         style="fill:#a87258;fill-opacity:1;stroke:#000000;stroke-width:0.264583px;stroke-linecap:butt;stroke-linejoin:miter;stroke-opacity:0"
         d="m 93.357244,115.43371 c 0,0 -3.367596,-2.33861 -2.853103,-3.60146 0.514496,-1.26285 0.18709,-1.40316 0.982215,-2.19829 0.795129,-0.79513 1.449938,-0.42095 5.051396,-1.49671 3.601458,-1.07576 -0.374179,1.77734 -0.374179,1.77734 z"
         id="path268636" />
      <path
         style="fill:#724c37;fill-opacity:1;stroke:#000000;stroke-width:0.264583px;stroke-linecap:butt;stroke-linejoin:miter;stroke-opacity:0"
         d="m 104.14178,132.75085 c 0,0 -1.76043,1.71192 -3.74525,-1.2653 -1.984805,-2.97721 -9.38274,-18.76549 -7.578364,-20.11877 1.804374,-1.35328 14.434994,-11.27734 20.479644,-6.67618 6.04465,4.60115 6.04465,20.66008 4.24028,22.46446 -1.80437,1.80437 -13.39631,5.59579 -13.39631,5.59579 z"
         id="path904" />
      <path
         style="fill:#a87258;fill-opacity:1;stroke:#000000;stroke-width:0.264583px;stroke-linecap:butt;stroke-linejoin:miter;stroke-opacity:0"
         d="m 96.311679,104.31926 c 0,0 -7.770248,0.37164 -9.500816,-1.17184 -1.730571,-1.54348 -2.246787,-0.57606 -2.246787,-0.57606 0,0 0.18709,-0.37418 0,0 -0.187087,0.37418 -0.424103,2.21339 -0.140528,2.48303 1.167016,1.1097 4.617193,5.28796 4.36258,5.92202 -0.195105,0.48587 0.560435,-2.00895 0.560435,-2.00895 l 0.900364,-1.43825 1.870887,-1.21607 z"
         id="path273316"
         sodipodi:nodetypes="cscssscccc" />
      <path
         style="fill:#c1805a;fill-opacity:1;stroke:#000000;stroke-width:0.264583px;stroke-linecap:butt;stroke-linejoin:miter;stroke-opacity:0"
         d="m 96.311679,104.31926 c 0,0 -8.990973,-0.44822 -9.263763,-2.15702 l -0.119494,-0.74853 c 0,0 -2.181763,0.49725 -2.364346,1.15765 -0.801411,2.89867 9.032903,2.55648 11.747603,1.7479 z"
         id="path284874"
         sodipodi:nodetypes="cscsc" />
      <path
         style="fill:#a4654b;fill-opacity:1;stroke:#000000;stroke-width:0.264583px;stroke-linecap:butt;stroke-linejoin:miter;stroke-opacity:0"
         d="m 116.11148,127.11816 c 0,0 -2.887,4.87181 -9.6534,0.90219 -6.766407,-3.96962 -12.991497,-12.63062 -11.547997,-14.61543 1.443498,-1.98481 7.217497,-6.67619 10.014277,-8.11969 2.79678,-1.4435 15.15674,-6.766399 17.59265,-7.397931 2.4359,-0.631531 6.94684,-2.70656 7.66859,-4.510934 0.72175,-1.804376 1.53372,-1.669047 1.75926,-0.947298 0.22555,0.721751 0,2.300578 -0.40598,2.841889 -0.40599,0.541314 -0.72175,1.398392 -4.01473,2.751672 -3.29299,1.353281 -14.99107,6.855142 -14.99107,6.855142 l -6.25184,9.56914 6.25184,9.56913 z"
         id="path204804" />
      <path
         style="fill:#693f31;fill-opacity:1;stroke:#000000;stroke-width:0.264583px;stroke-linecap:butt;stroke-linejoin:miter;stroke-opacity:0"
         d="m 122.91735,100.04691 c 0,0 -25.84202,10.9221 -25.571362,14.2602 0.270656,3.33809 7.849022,13.62302 13.623022,13.98389 5.774,0.36088 10.19472,-9.92405 10.37515,-11.00668 0.18044,-1.08262 3.89632,-16.13224 1.57319,-17.23741 z"
         id="path167970"
         sodipodi:nodetypes="csssc" />
      <path
         id="path75878"
         style="fill:#a87258;fill-opacity:1;stroke:#000000;stroke-width:0.999999px;stroke-linecap:butt;stroke-linejoin:miter;stroke-opacity:0"
         d="m 411.85547,501.61914 c -7.30302,-0.0179 -23.20384,0.46794 -26.48047,0.57031 9.24582,1.4248 29.69098,30.66113 33.72461,51.02735 7.12338,-0.89023 14.53492,-2.7268 21.90234,-5.94532 -4.30156,-9.89662 -14.36382,-33.19686 -14.95703,-34.18554 -0.72332,-1.20556 -9.64405,-10.8498 -10.84961,-11.33203 -0.22604,-0.0904 -1.46881,-0.13018 -3.33984,-0.13477 z m -26.48047,0.57031 c -0.54934,-0.0847 -1.06096,-0.0726 -1.52539,0.0469 0,0 1.16431,-0.0356 1.52539,-0.0469 z"
         transform="scale(0.26458333)" />
      <path
         id="path66210"
         style="fill:#724c37;fill-opacity:1;stroke:#000000;stroke-width:0.999999px;stroke-linecap:butt;stroke-linejoin:miter;stroke-opacity:0"
         d="m 443.16406,490.42188 -56.41992,11.57421 c 0,0 29.89806,6.26749 38.57813,29.89649 2.99885,8.16356 5.07476,14.31039 6.92773,18.58398 7.28068,-2.17145 14.64614,-5.53523 21.76953,-10.50195 z"
         transform="scale(0.26458333)" />
      <path
         id="path207327"
         style="fill:#533127;fill-opacity:1;stroke:#000000;stroke-width:0.999999px;stroke-linecap:butt;stroke-linejoin:miter;stroke-opacity:0"
         d="m 464.08008,415.31836 c 0,0 -18.75519,25.91498 -24.21094,44.32812 -5.45571,18.41314 -5.7957,20.80045 -14.32031,25.57422 -8.52461,4.77381 -37.33837,10.91211 -42.45313,10.91211 -5.11476,0 -6.13858,10.91117 11.9336,8.86524 18.07215,-2.0459 30.17834,-8.18329 36.99804,-4.77344 6.81967,3.40981 6.81867,3.06769 10.22852,12.61523 3.05319,8.54898 3.92185,24.74437 6.51758,30.48828 2.84755,-1.65899 5.66842,-3.55779 8.44531,-5.71093 -2.3494,-17.81342 -8.60468,-66.22733 -5.61523,-74.19922 3.6167,-9.64449 8.74021,-21.21791 10.48828,-32.85156 1.74807,-11.63365 1.98828,-15.24805 1.98828,-15.24805 z"
         transform="scale(0.26458333)" />
      <path
         style="fill:#270a05;fill-opacity:1;stroke:#000000;stroke-width:0.264583px;stroke-linecap:butt;stroke-linejoin:miter;stroke-opacity:0"
         d="m 115.38973,104.20261 c 0,0 -7.21749,3.33809 -8.661,5.14247 -1.4435,1.80437 -7.488148,6.49575 -7.488148,6.49575 0.278782,0.27878 4.873438,-3.025 8.444128,-6.17849 3.89986,-3.44421 7.77164,-5.45307 7.70502,-5.45973 z"
         id="path10127"
         sodipodi:nodetypes="cscsc" />
      <path
         style="fill:#270a05;fill-opacity:1;stroke:#000000;stroke-width:0.264583px;stroke-linecap:butt;stroke-linejoin:miter;stroke-opacity:0"
         d="m 114.21689,116.74301 c -0.68202,-1.89485 -4.50765,-6.50143 -5.94218,-7.80018 -0.92158,-0.83436 -0.86886,-0.008 -0.99466,0.27681 -0.49289,-0.13401 1.27428,0.57805 3.03543,2.49242 1.62469,1.76604 3.51625,3.89363 3.90141,5.03095 z"
         id="path10131"
         sodipodi:nodetypes="cscsc" />
      <path
         style="fill:#c1805a;fill-opacity:1;stroke:#000000;stroke-width:0.264583px;stroke-linecap:butt;stroke-linejoin:miter;stroke-opacity:0"
         d="m 92.736457,79.904166 c 0,0 3.638021,-4.431771 4.894792,-4.828646 1.256771,-0.396875 1.918229,-0.79375 2.447391,0.06615 0.52917,0.859896 1.5875,1.918229 1.32292,2.579687 -0.26458,0.661459 -4.696353,1.058334 -4.696353,1.058334 z"
         id="path370229" />
      <path
         style="fill:#a87258;fill-opacity:1;stroke:#000000;stroke-width:0.264583px;stroke-linecap:butt;stroke-linejoin:miter;stroke-opacity:0"
         d="m 89.381609,82.085153 c 0,0 4.536901,-2.525697 7.717409,-2.80633 3.180502,-0.280633 4.957852,-0.467723 6.267472,-1.216078 1.30962,-0.748353 -3.741775,-0.327403 -3.741775,-0.327403 0,0 -5.659432,0.374176 -10.243106,4.349811 z"
         id="path337695" />
      <path
         style="fill:#c1805a;fill-opacity:1;stroke:#000000;stroke-width:0.264583px;stroke-linecap:butt;stroke-linejoin:miter;stroke-opacity:0"
         d="m 109.63396,79.606226 c 0,0 1.59025,3.741775 0,5.893295 -1.59026,2.15152 2.33861,0.841899 2.33861,0.841899 l 3.27405,-1.216078 -2.61924,-0.46772 c 0,0 -0.0936,-3.835318 0.8419,-4.677217 0.93544,-0.841899 -1.21608,-0.748355 -1.21608,-0.748355 z"
         id="path380585" />
      <path
         style="fill:#a87258;fill-opacity:1;stroke:#000000;stroke-width:0.264583px;stroke-linecap:butt;stroke-linejoin:miter;stroke-opacity:0"
         d="m 102.98906,78.25052 c 0,0 4.69636,1.058333 6.15156,1.653646 1.45521,0.595312 3.90261,0.727604 4.96094,0.06614 1.05833,-0.661458 1.45521,-1.190624 0.59531,-1.587499 -0.85989,-0.396875 -7.27604,-0.529167 -7.27604,-0.529167 z"
         id="path350216" />
      <path
         style="fill:#290c08;fill-opacity:1;stroke:#000000;stroke-width:0.264583px;stroke-linecap:butt;stroke-linejoin:miter;stroke-opacity:0"
         d="m 114.78712,78.273452 c -1.22804,0.07504 -15.459453,-0.60235 -15.459453,-0.508247 -0.681375,0.671332 17.288903,1.740897 15.459453,0.508247 z"
         id="path10125"
         sodipodi:nodetypes="ccc" />
      <path
         style="fill:#a4654b;fill-opacity:1;stroke:none;stroke-width:0.264583px;stroke-linecap:butt;stroke-linejoin:miter;stroke-opacity:1"
         d="m 99.327664,77.765205 c -0.11259,-0.168886 12.781946,-4.1951 17.054466,-3.334768 3.45949,0.696615 3.80626,-1.322213 3.80626,-1.322213 0,0 0.98881,-3.094022 1.78624,-2.360388 0.79742,0.733634 0.86122,1.148297 0.79742,1.56296 -0.0638,0.414663 -0.0319,3.221609 -2.36038,4.306112 -2.32849,1.084504 -4.70618,1.760596 -6.10456,1.783152 -1.39839,0.02254 -14.979446,-0.634855 -14.979446,-0.634855 z"
         id="path178063"
         sodipodi:nodetypes="cscssssc" />
      <path
         style="opacity:1;fill:#d2816c;fill-opacity:1;stroke:none;stroke-width:0.305296px;stroke-linecap:butt;stroke-linejoin:miter;stroke-opacity:1"
         d="m 114.29326,71.411075 c 0,0 -0.6625,3.79095 3.16526,3.680533 3.82776,-0.110414 2.68679,0.07361 3.4229,-2.171514 0.7361,-2.245125 1.4722,-2.649984 -0.36806,-2.760401 -1.84027,-0.110414 -4.56386,-0.883325 -5.29997,-0.0368 -0.7361,0.846522 -0.92013,1.030548 -0.92013,1.288184 z"
         id="path19540" />
      <path
         style="fill:#a87258;fill-opacity:1;stroke:#000000;stroke-width:0.264583px;stroke-linecap:butt;stroke-linejoin:miter;stroke-opacity:0"
         d="m 99.513508,86.341937 c 0,0 11.783712,3.645342 15.419982,2.560839 3.63627,-1.084504 7.83332,-1.320994 9.1092,-1.448584 1.27589,-0.127587 -5.38536,-0.630201 -6.1509,-0.757791 -0.76553,-0.127588 -9.05878,-0.255178 -9.05878,-0.255178 z"
         id="path177235"
         sodipodi:nodetypes="cssscc" />
      <path
         style="fill:#c1805a;fill-opacity:1;stroke:#000000;stroke-width:0.264583px;stroke-linecap:butt;stroke-linejoin:miter;stroke-opacity:0"
         d="m 87.782804,94.278552 c 0,0 2.241674,-10.471782 4.159903,-11.662407 1.918229,-1.190625 3.108854,-2.248959 4.497917,-2.050521 1.389062,0.198437 0.79375,2.248958 1.389062,3.770312 0.595313,1.521355 -2.050521,2.513542 -2.050521,2.513542 l -2.248958,1.785938 z"
         id="path344352" />
      <path
         style="fill:#c1805a;fill-opacity:1;stroke:#000000;stroke-width:0.264583px;stroke-linecap:butt;stroke-linejoin:miter;stroke-opacity:0"
         d="m 96.631296,85.593064 c 0,0 1.590254,-3.741771 5.706204,-3.274052 4.11595,0.467723 8.32544,2.619243 12.53494,3.274052 4.20949,0.654812 -3.64823,1.777344 -3.64823,1.777344 0,0 -8.69962,-0.748355 -9.26089,-0.841899 -0.56126,-0.09355 -5.332024,-0.935445 -5.332024,-0.935445 z"
         id="path367588"
         sodipodi:nodetypes="csscsc" />
      <path
         style="fill:#a87258;fill-opacity:1;stroke:#000000;stroke-width:0.264583px;stroke-linecap:butt;stroke-linejoin:miter;stroke-opacity:0"
         d="m 99.417186,85.394269 c 0,0 6.405944,-1.439869 11.046354,-1.785936 6.91364,-0.515597 5.84084,1.711216 8.40052,1.587499 2.58006,-0.124702 -0.0661,1.124479 -0.33073,1.322917 -0.26458,0.198437 -10.78177,0.661458 -11.04635,0.595312 -0.26459,-0.06615 -8.069794,-1.719792 -8.069794,-1.719792 z"
         id="path364870"
         sodipodi:nodetypes="cssssc" />
      <path
         style="fill:#a4654b;fill-opacity:1;stroke:#000000;stroke-width:0.264583px;stroke-linecap:butt;stroke-linejoin:miter;stroke-opacity:0"
         d="m 87.782804,94.278552 c 0,0 6.405528,-9.743622 9.292526,-9.563185 2.887001,0.180438 12.9915,0.902187 12.9915,0.902187 0,0 4.24028,0.180438 6.58596,-0.811966 2.34569,-0.992407 4.60115,-0.902187 4.60115,-0.902187 l 2.16525,-1.894594 c 0,0 0.49621,-1.984812 1.30818,-1.35328 0.81196,0.631531 1.21795,1.082624 1.26306,1.578827 0.0451,0.496202 0.18044,3.518529 -0.22555,3.789185 -0.40598,0.270655 -2.57123,2.12014 -5.09736,2.02992 -2.52612,-0.09022 -19.98344,-1.35328 -22.870438,-0.811966 -2.886999,0.541311 -10.014278,7.037059 -10.014278,7.037059 z"
         id="path201972" />
      <path
         style="opacity:1;fill:#d2816c;fill-opacity:1;stroke:none;stroke-width:0.264583px;stroke-linecap:butt;stroke-linejoin:miter;stroke-opacity:1"
         d="m 117.31765,82.071317 c 0,0 -0.57415,1.467268 1.18019,2.169007 1.75434,0.701736 3.89145,0.606044 4.4975,0.606044 0.60604,0 0.70174,-3.030225 0.86122,-3.763859 0.15949,-0.733634 0.38277,-0.956916 -0.35087,-0.988812 -0.73363,-0.0319 -5.80528,-0.510355 -6.18804,1.97762 z"
         id="path19542" />
      <path
         style="fill:#794a39;fill-opacity:1;stroke:#000000;stroke-width:0.264583px;stroke-linecap:butt;stroke-linejoin:miter;stroke-opacity:0"
         d="m 106.91918,87.318396 c 0,0 12.37609,0.462508 14.92786,-0.749583 2.55177,-1.21209 3.63627,-1.275887 3.82766,-0.701738 0.19138,0.574148 -0.29325,0.697778 -1.17288,1.058651 -0.87963,0.360875 0.47365,1.330727 -3.5862,1.308171 -4.05984,-0.02254 -13.9704,-0.83039 -13.99644,-0.915501 z"
         id="path94160"
         sodipodi:nodetypes="cssssc" />
      <path
         style="fill:#270a05;fill-opacity:1;stroke:#000000;stroke-width:0.264583px;stroke-linecap:butt;stroke-linejoin:miter;stroke-opacity:0"
         d="m 121.29547,87.982267 c -0.49001,0.120848 -2.64018,0.03362 -5.46261,-0.127602 -6.00082,-0.342773 -15.04051,-1.020003 -17.624503,-0.742962 -3.755826,0.40268 -10.425553,7.166849 -10.425553,7.166849 0,0 7.566353,-6.166213 11.254879,-6.465112 4.148907,-0.336206 23.555337,1.305668 22.257787,0.168827 z"
         id="path10123"
         sodipodi:nodetypes="csscsc" />
      <path
         style="opacity:1;fill:#d2816c;fill-opacity:1;stroke:none;stroke-width:0.264583px;stroke-linecap:butt;stroke-linejoin:miter;stroke-opacity:1"
         d="m 120.41167,89.120585 c 0,0 0,1.850032 2.04142,1.56296 2.04141,-0.287076 4.21042,-0.09569 4.05093,-1.084504 -0.15948,-0.988811 -0.25421,-3.45145 -0.84063,-3.282288 -0.58643,0.169158 -2.21036,1.161566 -3.31554,1.308171 -1.10518,0.146606 -2.04543,0.476475 -1.93618,1.495661 z"
         id="path19544" />
      <path
         style="opacity:1;fill:#d2816c;fill-opacity:1;stroke:none;stroke-width:0.264583px;stroke-linecap:butt;stroke-linejoin:miter;stroke-opacity:1"
         d="m 125.09427,94.10154 c 0,0 1.44165,0.840272 3.14815,0.170432 1.70649,-0.669841 2.02546,-0.430612 1.89788,-1.116402 -0.12759,-0.685786 -0.30303,-2.918587 -0.87717,-2.806946 -0.57415,0.111641 -1.25994,0.542251 -1.25994,0.542251 0,0 -1.73372,2.299331 -2.48717,2.751693 -0.66044,0.396525 -0.42175,0.458972 -0.42175,0.458972 z"
         id="path19548"
         sodipodi:nodetypes="cssscsc" />
      <path
         style="fill:#f0a48b;fill-opacity:1;stroke:none;stroke-width:0.282378px;stroke-linecap:butt;stroke-linejoin:miter;stroke-opacity:1"
         d="m 120.27396,70.184574 c 0,0 -0.45735,1.311901 -0.55364,2.070157 -0.0962,0.758254 -0.34905,2.094229 -0.21664,2.407161 0.13238,0.312928 -0.0121,0.541609 0.42124,0.397178 0.43329,-0.144427 0.75825,0.156466 0.86657,-0.698074 0.10835,-0.854541 1.38412,-3.682952 1.05916,-3.887561 -0.32497,-0.204607 -1.45633,-0.481431 -1.57669,-0.288861 z"
         id="path66696" />
      <path
         style="fill:#a4654b;fill-opacity:1;stroke:#000000;stroke-width:0.264583px;stroke-linecap:butt;stroke-linejoin:miter;stroke-opacity:0"
         d="m 122.89895,84.88164 c 0,0 -4.16719,0 -4.86172,-1.008724 -0.41492,-0.49983 -0.77939,-1.911411 -1.00872,-1.521354 -0.0331,0.181901 0.46302,2.116666 1.38906,2.282031 0.92604,0.165364 4.5806,0.843359 4.48138,0.248047 z"
         id="path352346"
         sodipodi:nodetypes="cccsc" />
      <path
         style="fill:#f0a48b;fill-opacity:1;stroke:none;stroke-width:0.264583px;stroke-linecap:butt;stroke-linejoin:miter;stroke-opacity:1"
         d="m 123.19364,80.09166 c 0,0 -0.40598,1.533718 -0.42854,2.356964 -0.0225,0.823246 -0.40598,2.58251 0.0451,2.593787 0.4511,0.01127 0.8007,0.07894 0.76686,-0.281932 -0.0338,-0.360876 0.15788,-2.413352 0.27066,-2.920833 0.11277,-0.507479 0.65409,-1.691601 0.29321,-1.747986 -0.36088,-0.05639 -0.76686,-0.07894 -0.76686,-0.07894 0,0 -0.12405,-0.01127 -0.18044,0.07894 z"
         id="path66815" />
      <path
         style="fill:#f0a48b;fill-opacity:1;stroke:none;stroke-width:0.264583px;stroke-linecap:butt;stroke-linejoin:miter;stroke-opacity:1"
         d="m 125.32506,86.53102 c 0,0 -0.10149,1.184119 0.19172,2.368241 0.29321,1.184121 -0.0564,1.669047 0.43982,1.488609 0.4962,-0.180438 0.89091,-0.02254 0.75558,-0.913466 -0.13533,-0.890908 -0.54565,-3.319407 -0.85014,-3.274298 -0.30449,0.04511 -0.50314,0.02643 -0.51442,0.127921 l -0.0226,0.202993 z"
         id="path66930"
         sodipodi:nodetypes="cssssccc" />
      <path
         style="fill:#f0a48b;fill-opacity:1;stroke:none;stroke-width:0.255901px;stroke-linecap:butt;stroke-linejoin:miter;stroke-opacity:1"
         d="m 128.7103,90.750139 c 0.0207,0.275203 0.65358,3.300105 0.98251,3.108582 0.46841,-0.272736 0.70086,-0.09723 0.62172,-0.610809 -0.0899,-0.504733 -0.5132,-1.823504 -0.54186,-2.237095 -0.013,-0.186544 -0.10619,-0.903056 -0.31982,-0.806043 -0.36895,0.167544 -0.50972,0.136018 -0.70158,0.307824 -0.0655,0.141796 -0.041,0.237541 -0.041,0.237541 z"
         id="path66932"
         sodipodi:nodetypes="cscssccc" />
      <path
         style="fill:#724c37;fill-opacity:1;stroke:none;stroke-width:0.264583px;stroke-linecap:butt;stroke-linejoin:miter;stroke-opacity:1"
         d="m 88.772859,111.22146 c 0,0 -0.94174,-3.11302 0.682196,-4.0152 1.623938,-0.90219 6.856624,-2.887 6.856624,-2.887 0,0 -5.683779,2.70656 -6.134872,4.42071 -0.451094,1.71416 -1.403948,2.48149 -1.403948,2.48149 z"
         id="path149416"
         sodipodi:nodetypes="cscsc" />
      <path
         style="fill:#a87258;fill-opacity:1;stroke:#000000;stroke-width:0.264583px;stroke-linecap:butt;stroke-linejoin:miter;stroke-opacity:0"
         d="m 98.157955,92.20352 c 0,0 -5.864215,3.247874 -3.51853,4.150061 2.345687,0.902187 4.240281,1.082625 5.593565,-0.09022 1.35328,-1.172845 3.42831,-1.804374 2.16525,-3.157657 -1.26307,-1.35328 -3.789192,-1.172842 -4.240285,-0.902187 z"
         id="path54206" />
      <path
         style="fill:#a87258;fill-opacity:1;stroke:#000000;stroke-width:0.264583px;stroke-linecap:butt;stroke-linejoin:miter;stroke-opacity:0"
         d="m 100.62998,135.53505 c 0,0 -3.253513,3.57248 0.0638,4.4656 3.3173,0.89312 4.08283,-2.67936 3.57248,-3.3173 -0.51036,-0.63795 -3.3173,-1.53106 -3.63627,-1.1483 z"
         id="path70537" />
      <path
         style="fill:#a4654b;fill-opacity:1;stroke:#000000;stroke-width:0.264583px;stroke-linecap:butt;stroke-linejoin:miter;stroke-opacity:0"
         d="m 125.39693,94.16998 c 0,0 1.10484,0.682112 2.54834,0.174633 1.4435,-0.507481 2.10886,-0.710472 1.52244,-0.33832 -0.58642,0.37215 -2.08631,1.229228 -3.31554,0.778134 -1.22923,-0.451093 -1.16122,-0.591893 -0.95823,-0.614447 0.20299,-0.02257 0.20299,0 0.20299,0 z"
         id="path84325"
         sodipodi:nodetypes="cssssc" />
      <path
         style="fill:#a4654b;fill-opacity:1;stroke:#000000;stroke-width:0.268834px;stroke-linecap:butt;stroke-linejoin:miter;stroke-opacity:0"
         d="m 120.48223,89.960491 c 0.24206,-0.259351 0.26721,0.635928 1.32594,0.624215 1.23071,-0.01362 3.70181,-0.386056 4.02591,-0.276143 0.32043,0.10867 0.21558,0.240989 -1.01598,0.403037 -1.23156,0.162047 -3.36359,0.318407 -3.81732,0.123948 -0.45374,-0.194455 -0.61579,-0.907467 -0.51855,-0.875057 z"
         id="path145238"
         sodipodi:nodetypes="cssssc" />
      <path
         style="fill:#724c37;fill-opacity:1;stroke:#000000;stroke-width:0.264583px;stroke-linecap:butt;stroke-linejoin:miter;stroke-opacity:0"
         d="m 84.398475,105.20572 c 0.204055,0.0628 -0.593454,-2.24016 0.998885,-2.99459 1.792277,-0.84915 1.533031,-0.79152 1.531064,-0.79742 0,0 -2.847587,0.49762 -2.879485,1.45453 -0.0319,0.95692 0.349536,2.33748 0.349536,2.33748 z"
         id="path264134"
         sodipodi:nodetypes="cscsc" />
      <path
         style="fill:#c1805a;fill-opacity:1;stroke:#000000;stroke-width:0.264583px;stroke-linecap:butt;stroke-linejoin:miter;stroke-opacity:0"
         d="m 82.781509,98.954165 c 0,0 -2.215885,-2.083593 -1.653645,-3.869531 0.562239,-1.785937 2.182812,-2.083594 2.182812,-2.083594 0,0 1.785938,0 2.976562,0.56224 1.190625,0.56224 1.091407,1.35599 0.992188,1.521354 -0.09922,0.165365 -2.844271,1.554427 -2.844271,1.554427 z"
         id="path333240" />
      <path
         style="fill:#724c37;fill-opacity:1;stroke:#000000;stroke-width:0.264583px;stroke-linecap:butt;stroke-linejoin:miter;stroke-opacity:0"
         d="m 82.814582,99.284895 c 0,0 -0.261707,-2.817302 1.047912,-3.401955 1.309621,-0.584649 2.829716,-0.608036 3.274052,-0.958828 0.444336,-0.35079 0.313706,0.183075 0.03307,0.533868 -0.280633,0.35079 -3.953013,2.411333 -4.355037,3.826915 z"
         id="path328752"
         sodipodi:nodetypes="csssc" />
      <path
         style="fill:#a87258;fill-opacity:1;stroke:#000000;stroke-width:0.264583px;stroke-linecap:butt;stroke-linejoin:miter;stroke-opacity:0"
         d="m 94.191665,87.444791 c 0,0 -3.042708,-1.058334 -1.719791,-2.71198 1.322916,-1.653645 1.918229,-2.513541 3.108854,-2.315104 1.190625,0.198438 2.645833,0.396875 3.175,1.984375 0.529167,1.5875 -4.299479,2.976563 -4.564063,3.042709 z"
         id="path346768" />
      <path
         style="fill:#a4654b;fill-opacity:1;stroke:#000000;stroke-width:0.264583px;stroke-linecap:butt;stroke-linejoin:miter;stroke-opacity:0"
         d="m 118.94162,74.952396 c 0,0 0.90071,0.02622 0.4096,0.213312 -0.49111,0.18709 -1.74261,0.464887 -2.7716,0.137481 -1.02898,-0.327406 -1.8475,-0.748356 -2.1749,-1.683798 -0.32741,-0.935445 -0.30402,-1.333008 0,-0.771742 0.30402,0.561266 0.6782,1.286235 1.07576,1.426551 1.14158,0.659789 2.15852,0.56847 3.46114,0.678193 z"
         id="path356451"
         sodipodi:nodetypes="cssssccc" />
    </g>
    <path
       style="fill:none;stroke:#f0a48b;stroke-width:0.365;stroke-linecap:butt;stroke-linejoin:miter;stroke-miterlimit:4;stroke-dasharray:none;stroke-opacity:1"
       d="m 117.19979,27.050512 c 1.41889,0.553519 2.87612,1.043771 4.32774,1.518825 0.9006,0.294733 1.81827,0.600602 2.72363,0.872199 0.45183,0.135543 1.59169,0.328235 1.52396,0.479499 -0.41856,0.934774 -1.52359,3.467172 -1.62421,3.802815 -0.60367,2.013648 -0.9591,3.136569 -1.43037,4.954267 -0.18201,0.702024 -0.33512,1.57544 -0.72515,2.207254 -0.70221,1.137534 -3.30834,1.726366 -4.51154,1.563939 -0.48391,-0.06532 -1.06766,-0.432128 -1.48714,-0.646629 -1.57561,-0.805674 -2.18894,-2.192848 -2.18894,-3.879776 0,-0.263712 -0.11134,-0.912386 0.0334,-1.172956 0.0314,-0.05658 1.13693,0 1.55398,0 0.99272,0 0.27491,0.383741 0.70179,1.248146 0.47824,0.968396 1.47822,1.270079 2.50642,1.157917 0.93468,-0.10196 1.56825,-1.068176 1.98842,-1.804546 0.83486,-1.463143 1.27425,-3.142922 1.73778,-4.751972 0.094,-0.326244 0.15681,-0.581131 0.27492,-0.900051 0.0491,-0.120681 -1.29333,-0.228634 -1.59491,-0.272909 -1.11194,-0.193686 -4.27239,-1.084072 -4.41129,-2.646669 -0.0382,-0.700935 0.21717,-1.901414 0.60151,-1.729353 z"
       id="path227772"
       sodipodi:nodetypes="cssssssssscssssscccc"
       inkscape:export-filename="C:\Users\jonas\Documents\Sciebo\DominionCompanion\g133300.png"
       inkscape:export-xdpi="299.93079"
       inkscape:export-ydpi="299.93079" />
    <path
       style="fill:none;stroke:#f0a48b;stroke-width:0.365;stroke-linecap:butt;stroke-linejoin:miter;stroke-miterlimit:4;stroke-dasharray:none;stroke-opacity:1"
       d="m 112.67239,44.699457 c -0.71438,1.583481 -1.18072,3.282983 -1.80992,4.916683 -0.16128,0.418727 -2.43848,5.191241 -2.35586,5.65392 0.0999,0.559376 3.18239,1.337688 3.64056,1.415133 3.51872,0.594775 5.38697,-0.857834 6.45502,-4.112915 0.23936,-0.729487 0.52553,-1.5015 0.64771,-2.263757 0.23911,-1.491791 0.15707,-2.385482 -0.58451,-3.703303 -0.87735,-1.55906 -2.98769,-2.141383 -4.60309,-2.507782 -0.23119,-0.05243 -0.56442,-0.210269 -0.80979,-0.121999 -0.291,0.104676 -0.40055,0.472236 -0.58012,0.72402 z"
       id="path227774"
       inkscape:export-filename="C:\Users\jonas\Documents\Sciebo\DominionCompanion\g133300.png"
       inkscape:export-xdpi="299.93079"
       inkscape:export-ydpi="299.93079" />
    <path
       style="fill:none;stroke:#f0a48b;stroke-width:0.365;stroke-linecap:butt;stroke-linejoin:miter;stroke-miterlimit:4;stroke-dasharray:none;stroke-opacity:1"
       d="m 113.23694,49.894746 c -0.65738,1.976668 -0.0856,0.31448 -0.49283,1.412065 -0.19588,0.527938 -0.42961,1.0321 -0.6357,1.5553 -0.0184,0.04681 -0.10262,0.112881 -0.0594,0.138742 0.78965,0.473198 1.90144,0.662793 2.62849,0.02396 0.72842,-0.640052 1.71929,-3.163298 1.1838,-4.114884 -0.21293,-0.378374 -0.53303,-0.515007 -0.90649,-0.673998 -0.52131,-0.221928 -1.02473,-0.399244 -1.08324,-0.22774 -0.52429,1.544885 -0.23822,0.69427 -0.63463,1.886555 z"
       id="path227776"
       sodipodi:nodetypes="csccssscc"
       inkscape:export-filename="C:\Users\jonas\Documents\Sciebo\DominionCompanion\g133300.png"
       inkscape:export-xdpi="299.93079"
       inkscape:export-ydpi="299.93079" />
    <path
       style="fill:none;stroke:#f0a48b;stroke-width:0.365;stroke-linecap:butt;stroke-linejoin:miter;stroke-miterlimit:4;stroke-dasharray:none;stroke-opacity:1"
       d="m 115.25319,60.551463 c -0.004,0.233 -0.58741,3.016258 -0.83547,3.127881 -0.15712,0.0707 -1.6272,-0.411219 -1.87146,-0.466175 -1.45392,-0.327118 -2.93552,-0.161671 -4.01026,0.902274 -1.29576,1.28275 -1.15865,4.082238 0.7018,4.751975 0.8152,0.29346 1.68061,0.345871 2.53983,0.345871 0.66076,0 1.34535,-0.426635 1.37017,-0.22557 0.0599,0.485105 0,1.015701 0,1.503791 0,0.19514 0.15056,1.120087 0,1.323332 -0.21114,0.285033 -1.22759,0.303284 -1.57068,0.345874 -0.56104,0.06964 -1.34341,0.131135 -1.90488,0.03008 -1.50682,-0.271217 -3.37905,-1.927627 -3.97684,-3.293298 -0.41736,-0.953476 -0.51799,-2.067647 -0.51799,-3.097805 0,-0.660146 -0.0497,-1.345221 0.0501,-2.000041 0.30836,-2.021845 2.27158,-3.935963 4.22749,-4.376026 0.9607,-0.216148 2.35336,-0.458132 3.27505,-0.09023 1.22191,0.354318 2.59263,0.786269 2.52314,1.218067 z"
       id="path227778"
       sodipodi:nodetypes="csssssssssssscscc"
       inkscape:export-filename="C:\Users\jonas\Documents\Sciebo\DominionCompanion\g133300.png"
       inkscape:export-xdpi="299.93079"
       inkscape:export-ydpi="299.93079" />
  </g>
</svg>
