<?xml version="1.0" encoding="UTF-8" standalone="no"?>
<!-- Created with Inkscape (http://www.inkscape.org/) -->

<svg
   width="113.02915mm"
   height="143.2377mm"
   viewBox="0 0 113.02915 143.2377"
   version="1.1"
   id="svg1499"
   sodipodi:docname="jdc_logo_v12_exp.svg"
   inkscape:version="1.1.2 (b8e25be833, 2022-02-05)"
   xmlns:inkscape="http://www.inkscape.org/namespaces/inkscape"
   xmlns:sodipodi="http://sodipodi.sourceforge.net/DTD/sodipodi-0.dtd"
   xmlns="http://www.w3.org/2000/svg"
   xmlns:svg="http://www.w3.org/2000/svg">
  <sodipodi:namedview
     id="namedview1501"
     pagecolor="#505050"
     bordercolor="#ffffff"
     borderopacity="1"
     inkscape:pageshadow="0"
     inkscape:pageopacity="0"
     inkscape:pagecheckerboard="1"
     inkscape:document-units="mm"
     showgrid="false"
     fit-margin-top="0"
     fit-margin-left="0"
     fit-margin-right="0"
     fit-margin-bottom="0"
     inkscape:zoom="0.51843089"
     inkscape:cx="-85.835934"
     inkscape:cy="241.11218"
     inkscape:window-width="1920"
     inkscape:window-height="1009"
     inkscape:window-x="-8"
     inkscape:window-y="-8"
     inkscape:window-maximized="1"
     inkscape:current-layer="layer1" />
  <defs
     id="defs1496">
    <clipPath
       clipPathUnits="userSpaceOnUse"
       id="clipPath2272">
      <path
         style="fill:#d2816c;fill-opacity:1;stroke:#000000;stroke-width:0.155818px;stroke-linecap:butt;stroke-linejoin:miter;stroke-opacity:0"
         d="m -21.790594,22.908004 c 0,0 2.062552,22.403066 1.75107,23.330253 -0.311477,0.927186 0.512898,1.123478 3.502807,0.524826 2.989911,-0.598658 13.4491217,-1.001789 13.4817602,-1.664045 0.032633,-0.662252 -0.5220008,-23.818105 -1.6354647,-23.913888 -1.1134526,-0.09578 -14.6668125,0.417323 -15.8333605,0.654957 -1.166542,0.237633 -1.212929,0.815715 -1.266812,1.067897 z"
         id="path2274" />
    </clipPath>
  </defs>
  <g
     inkscape:label="Ebene 1"
     inkscape:groupmode="layer"
     id="layer1"
     transform="translate(-44.53038,-40.25235)">
    <g
       id="g2266"
       transform="matrix(1.4325485,0.50599662,-0.50599662,1.4325485,140.22724,62.088201)"
       clip-path="url(#clipPath2272)"
       inkscape:export-filename="C:\Users\jonas\Documents\Sciebo\DominionCompanion\g133300.png"
       inkscape:export-xdpi="299.93079"
       inkscape:export-ydpi="299.93079">
      <path
         style="fill:#624233;fill-opacity:1;stroke:#000000;stroke-width:0.264583px;stroke-linecap:butt;stroke-linejoin:miter;stroke-opacity:0"
         d="m -25.790976,24.947382 c 0,0 -2.38125,2.513542 -2.116667,7.011459 0.264584,4.497916 2.93373,6.742483 2.593904,11.013684 -0.33073,4.15688 3.138124,11.57502 4.525324,12.154904 1.066413,0.445788 -2.54429,-8.058806 -1.673058,-10.253129 2.813757,-7.086846 1.426679,0.210534 0.143154,-6.300876 -1.204396,-6.109978 4.20026,-13.890625 3.009635,-15.875 -1.190625,-1.984375 -6.482292,2.248958 -6.482292,2.248958 z"
         id="path2068"
         sodipodi:nodetypes="cssssssc" />
      <path
         style="opacity:1;fill:#d79974;fill-opacity:1;stroke:#000000;stroke-width:0.264583px;stroke-linecap:butt;stroke-linejoin:miter;stroke-opacity:0"
         d="m -19.831399,59.120018 c 0.187089,0.42095 9.447978,10.102789 14.0316491,11.225325 4.583673,1.12253 7.577092,3.64822 15.9960809,-0.654816 8.418991,-4.303038 13.189752,-6.828734 14.03165,-8.418989 0.841899,-1.590254 3.367596,-2.712786 4.115951,-9.167344 0.748356,-6.45456 0.654812,-15.060638 1.028989,-16.463803 0.374176,-1.403165 0.841899,-2.15152 -0.280633,-4.95785 -1.122532,-2.80633 -2.432153,-6.173925 -2.899876,-9.635067 -0.46772,-3.461138 1.403165,-5.893292 -0.561266,-9.0738 C 23.666716,8.7931683 21.702285,5.4255713 15.715447,4.3030393 9.7286111,3.1805073 7.9512671,0.18708834 -3.6482299,4.6772163 -15.247727,9.1673443 -19.924943,11.412408 -21.234564,19.083044 c -1.30962,7.670636 -2.245064,13.844561 -2.057975,17.492789 0.187089,3.648231 0.467722,13.283295 1.122532,15.996081 0.65481,2.712786 2.151519,6.127155 2.338608,6.548104 z"
         id="path2070"
         sodipodi:nodetypes="zsssssssssssssz" />
      <path
         id="path2072"
         style="fill:#cb916e;fill-opacity:1;stroke:#000000;stroke-width:0.264583px;stroke-linecap:butt;stroke-linejoin:miter;stroke-opacity:0"
         d="m -23.257798,33.804722 c -0.05957,1.036431 -0.07579,1.968095 -0.03462,2.770892 0.187089,3.648231 0.467602,13.283652 1.122412,15.996438 0.274061,1.135396 1.200382,3.804547 1.611657,4.914834 1.010079,-1.749634 3.826002,-6.387092 4.391078,-4.845587 0,0 3.430196,-3.372237 6.6574751,-4.962488 3.227279,-1.590255 3.882245,-5.753026 3.367752,-6.782015 -0.514493,-1.028988 0.9766353,-1.531779 -7.1137781,-3.863848 -4.283588,-1.234748 -8.996944,-1.625642 -9.911579,-2.964764 -0.24814,-0.363304 0.01486,0.08102 -0.09039,-0.263462 z"
         sodipodi:nodetypes="cssccsssscc" />
      <path
         style="fill:#cb916e;fill-opacity:1;stroke:#000000;stroke-width:0.264583px;stroke-linecap:butt;stroke-linejoin:miter;stroke-opacity:0"
         d="m -13.236604,31.023007 c 0,0 -4.723988,-0.935445 -4.349811,-2.057977 0.374176,-1.122532 2.525696,-2.759556 3.928862,-2.759556 1.403165,0 6.7842861,-1.588821 8.1733481,0.527846 1.389063,2.116666 2.645834,4.7625 1.521355,6.614583 -1.12448,1.852084 -1.91823,2.248959 -3.439584,1.719792 -1.521354,-0.529167 -5.8341701,-4.044688 -5.8341701,-4.044688 z"
         id="path2074"
         sodipodi:nodetypes="csssssc" />
      <path
         style="fill:#c1805a;fill-opacity:1;stroke:#000000;stroke-width:0.264583px;stroke-linecap:butt;stroke-linejoin:miter;stroke-opacity:0"
         d="m -15.808992,53.13318 c 0,0 -1.014596,-1.918215 1.122531,-3.461139 2.192019,-1.582555 9.1995501,-6.850391 8.9321081,-5.246105 -0.643667,3.86112 6.793739,4.8807 8.373594,1.87851 0,0 -2.80632898,2.338607 -2.15151998,4.490127 0.65481198,2.15152 6.73519398,3.180506 -1.122532,3.367595 -7.85772202,0.18709 -12.81557212,0.374179 -13.47038412,0.18709 -0.65481,-0.18709 -1.683797,-1.216078 -1.683797,-1.216078 z"
         id="path2076"
         sodipodi:nodetypes="csscsssc" />
      <path
         style="fill:#c1805a;fill-opacity:1;stroke:#000000;stroke-width:0.264583px;stroke-linecap:butt;stroke-linejoin:miter;stroke-opacity:0"
         d="m -5.9472259,26.799466 c -1.121538,4.699777 -0.9177168,8.575769 2.4440722,9.732957 0.893978,0.307723 0.8999288,-7.625773 0.8632198,-9.732957 -0.07239,-4.155094 3.35828002,-5.647193 5.622396,-6.879167 2.62937,-1.43072 2.645833,-5.423958 0.529166,-6.482291 -2.116666,-1.058333 -8.929687,1.190625 -14.3536461,1.852083 -5.423958,0.661458 -7.276041,0.926042 -8.863541,2.38125 -1.5875,1.455208 -1.169181,0.08103 -2.066571,3.894579 -0.891303,3.787681 -0.684047,4.649839 -0.926042,6.482292 -0.401634,3.041287 0.801176,-0.124989 2.728029,-1.248746 1.842661,-1.074656 8.466667,-4.233334 10.9802091,-4.365625 2.513541,-0.132292 4.233333,-0.132292 3.042708,4.365625 z"
         id="path2078"
         sodipodi:nodetypes="cssssssssssc" />
      <path
         style="opacity:1;fill:#d5a995;fill-opacity:1;stroke:#000000;stroke-width:0.264583px;stroke-linecap:butt;stroke-linejoin:miter;stroke-opacity:0"
         d="m -3.8353169,53.671062 c 0,0 -1.196014,2.692236 -0.681521,2.902709 0.514493,0.210476 3.370921,1.096309 3.55800802,0.418113 0.187089,-0.678195 0.420949,-3.414368 0.420949,-3.414368 L -3.6716159,52.829161 c 0,0 -0.09354,0.631425 -0.163701,0.841901 z"
         id="path2080"
         sodipodi:nodetypes="cssccc" />
      <path
         style="opacity:1;fill:#d5a995;fill-opacity:1;stroke:#000000;stroke-width:0.264583px;stroke-linecap:butt;stroke-linejoin:miter;stroke-opacity:0"
         d="m -0.63142388,53.226726 c 0,0 -0.74835602,3.999018 -0.18709,3.928861 0.561266,-0.07016 3.39098198,-0.116929 3.36759598,-0.701582 -0.02339,-0.584652 -0.193938,-3.260839 -0.147165,-3.588245 0.04677,-0.327406 -2.12128298,0.103717 -2.12128298,0.103717 z"
         id="path2082"
         sodipodi:nodetypes="cssscc" />
      <path
         style="opacity:1;fill:#d5a995;fill-opacity:1;stroke:#000000;stroke-width:0.264583px;stroke-linecap:butt;stroke-linejoin:miter;stroke-opacity:0"
         d="m 2.3619951,52.922707 c 0,0 -0.11693,3.695001 0.327406,3.624842 0.444333,-0.07016 2.829716,-0.42095 2.782943,-0.818513 -0.04677,-0.397563 0.04677,-2.782945 -0.210474,-3.086964 -0.257249,-0.304017 -2.899875,0.280639 -2.899875,0.280639 z"
         id="path2084"
         sodipodi:nodetypes="cssscc" />
      <path
         style="opacity:1;fill:#d5a995;fill-opacity:1;stroke:#000000;stroke-width:0.264583px;stroke-linecap:butt;stroke-linejoin:miter;stroke-opacity:0"
         d="m 5.1652741,52.513658 c 0,0 0.08268,3.423047 0.363802,3.290755 0.28112,-0.132291 2.265495,-0.51263 2.116666,-0.992187 -0.148828,-0.479557 -0.08268,-2.397787 -0.380338,-2.38125 -0.297656,0.01654 -2.10013,0.08268 -2.10013,0.08268 z"
         id="path2086" />
      <path
         style="opacity:1;fill:#793236;fill-opacity:1;stroke:#000000;stroke-width:0.264583px;stroke-linecap:butt;stroke-linejoin:miter;stroke-opacity:0"
         d="m 7.3976961,52.530195 c 0,0 -0.115756,2.480468 0.281119,2.315104 0.396875,-0.165365 4.3821619,-1.653646 4.6963539,-1.86862 0.314193,-0.214974 -3.4561189,-0.396875 -3.4561189,-0.396875 z"
         id="path2088" />
      <path
         style="opacity:1;fill:#d5a995;fill-opacity:1;stroke:#000000;stroke-width:0.264583px;stroke-linecap:butt;stroke-linejoin:miter;stroke-opacity:0"
         d="m -6.2118089,52.811314 c 0,0 -0.959115,2.364714 -0.413412,2.728516 0.545703,0.363802 1.918229,1.058333 2.050521,0.777214 0.132292,-0.28112 1.041797,-3.356901 0.810286,-3.472657 -0.23151,-0.115755 -2.530078,-0.06615 -2.530078,-0.06615 z"
         id="path2090" />
      <path
         style="opacity:1;fill:#d5a995;fill-opacity:1;stroke:#000000;stroke-width:0.264583px;stroke-linecap:butt;stroke-linejoin:miter;stroke-opacity:0"
         d="m -8.2954029,52.794778 c 0,0 -0.711068,1.471745 -0.264583,1.719792 0.446484,0.248046 1.620572,1.058333 1.670182,0.79375 0.04961,-0.264584 0.677995,-2.315105 0.644922,-2.43086 -0.03307,-0.115755 -0.545703,-0.132291 -0.611849,-0.132291 -0.06615,0 -1.438672,0.04961 -1.438672,0.04961 z"
         id="path2092" />
      <path
         style="fill:#794a39;fill-opacity:1;stroke:#000000;stroke-width:0.264583px;stroke-linecap:butt;stroke-linejoin:miter;stroke-opacity:0"
         d="m -1.5551709,57.178974 c 0,0 0.84768202,-0.215782 0.88182102,-1.038918 0.03566,-0.859853 0.06874,-1.078153 0.06874,-1.078153 0.10273,-0.01652 -0.09094,1.481825 0.382445,1.789665 0.484214,0.314884 0.596345,0.280633 0.596345,0.280633 0,0 0.09354,0.11693 -0.619731,0.152009 -0.713276,0.03508 -1.30962102,-0.105236 -1.30962102,-0.105236 z"
         id="path2094"
         sodipodi:nodetypes="cscscscc" />
      <path
         id="path2096"
         style="opacity:1;fill:#c1805a;fill-opacity:1;stroke:#000000;stroke-width:0.264583px;stroke-linecap:butt;stroke-linejoin:miter;stroke-opacity:0"
         d="m -14.72757,51.592268 c -0.687903,8.5e-5 3.407852,-2.796524 2.587829,-2.388674 -3.813005,1.896446 -6.954908,5.173006 -5.883234,5.513546 1.780809,0.565878 7.890866,11.101374 8.9844651,13.521655 0.554398,0.403654 1.09796,0.771904 1.622124,1.094508 1.474771,-0.347155 2.310722,-3.043823 2.812745,-4.607986 0.863182,-2.689418 3.83160902,-3.579622 6.419766,-4.584735 4.641416,-1.802497 -3.677881,-2.301626 -7.544245,-2.949172 -3.232988,-0.541468 -5.2847661,-5.599597 -8.9994501,-5.599142 z"
         sodipodi:nodetypes="sssccssss" />
      <path
         style="opacity:1;fill:#793236;fill-opacity:1;stroke:#000000;stroke-width:0.264583px;stroke-linecap:butt;stroke-linejoin:miter;stroke-opacity:0"
         d="m -8.4732919,52.683522 c 0,0 -3.6585701,-0.285616 -3.9396901,-0.236006 -0.281119,0.04961 3.7041671,2.323373 3.7868501,1.876888 0.08268,-0.446484 0.442228,-1.541659 0.442228,-1.541659 z"
         id="path2098"
         sodipodi:nodetypes="csscc" />
      <path
         style="fill:#794a39;fill-opacity:1;stroke:#000000;stroke-width:0.264583px;stroke-linecap:butt;stroke-linejoin:miter;stroke-opacity:0"
         d="m 1.7071831,56.78141 c 0.04045,0.05393 0.499137,-0.574718 0.413411,-1.35599 -0.05732,-0.522401 0.08269,0.694531 0.56224,0.876433 0.479557,0.181901 0.231511,0.694531 -0.396875,0.644921 -0.628385,-0.04961 -0.578776,-0.165364 -0.578776,-0.165364 z"
         id="path2100"
         sodipodi:nodetypes="csssc" />
      <path
         style="fill:#794a39;fill-opacity:1;stroke:#000000;stroke-width:0.264583px;stroke-linecap:butt;stroke-linejoin:miter;stroke-opacity:0"
         d="m 4.4868751,55.957692 c 0,0 0.330729,-0.198438 0.380338,-0.56224 0.04961,-0.363802 -0.03307,-0.06615 0.644922,0.132292 0.677995,0.198438 0.314193,0.51263 0.06615,0.595313 -0.248047,0.08268 -0.760677,0.214973 -0.909505,0.115755 -0.148828,-0.09922 -0.181901,-0.28112 -0.181901,-0.28112 z"
         id="path2102" />
      <path
         style="fill:#c1805a;fill-opacity:1;stroke:#000000;stroke-width:0.264583px;stroke-linecap:butt;stroke-linejoin:miter;stroke-opacity:0"
         d="m 0.65481012,60.569955 c 0,0 2.24506398,-0.982215 4.02240698,-0.233859 1.777342,0.748355 2.99342,0.467722 3.648229,-1.403165 0.654809,-1.870887 0.561266,-2.619243 1.403165,-3.741775 0.8418989,-1.122532 0.3741789,-1.122532 -1.964431,0.09355 -2.338607,1.216076 -3.274052,2.057974 -3.928861,2.432151 -0.654812,0.374179 -3.18050898,2.853102 -3.18050898,2.853102 z"
         id="path2104" />
      <path
         style="opacity:1;fill:#ac5460;fill-opacity:1;stroke:#000000;stroke-width:0.264583px;stroke-linecap:butt;stroke-linejoin:miter;stroke-opacity:0"
         d="m -13.144927,52.295739 c 0,0 2.926954,2.960026 3.9191411,4.084505 0.992188,1.124479 4.101042,3.241146 6.746875,3.241146 2.64583302,0 8.334375,-0.264584 9.921875,-2.38125 1.5875,-2.116667 5.2930509,-4.040751 5.6057579,-4.612254 0.304108,-0.555788 -2.708999,1.026721 -5.8703409,2.231004 -3.168769,1.207112 -7.01145898,2.447396 -10.384896,1.455208 -3.373437,-0.992187 -4.034896,-1.322917 -4.960937,-2.116667 -0.926042,-0.79375 -4.9774751,-1.901692 -4.9774751,-1.901692 z"
         id="path2106"
         sodipodi:nodetypes="csssssssc" />
      <path
         style="fill:#794a39;fill-opacity:1;stroke:#000000;stroke-width:0.264583px;stroke-linecap:butt;stroke-linejoin:miter;stroke-opacity:0"
         d="m 2.0864831,54.894907 c 0,0 -0.02038,-1.852766 0.293816,-2.233105 0.314193,-0.380338 0.221824,0.01722 -0.390025,0.03376 -0.611849,0.01654 -0.727605,-0.06615 -0.727605,-0.06615 0,0 0.529167,0.03307 0.611849,0.959115 0.08268,0.926041 0.211965,1.30638 0.211965,1.30638 z"
         id="path2108"
         sodipodi:nodetypes="csscssc" />
      <path
         style="fill:#794a39;fill-opacity:1;stroke:#000000;stroke-width:0.264583px;stroke-linecap:butt;stroke-linejoin:miter;stroke-opacity:0"
         d="m -1.7203139,52.845697 c 0,0 1.26284902,0.374176 1.14591802,1.520095 -0.11693,1.145918 -0.02339,-0.02339 0.280633,-0.701583 0.304019,-0.678196 0.07016,-0.654809 0.748355,-0.795126 0.67819598,-0.140316 0.86528498,-0.280632 -0.53788,-0.374179 -1.40316502,-0.09354 -1.63702602,0.350793 -1.63702602,0.350793 z"
         id="path2110" />
      <path
         style="fill:#794a39;fill-opacity:1;stroke:#000000;stroke-width:0.264583px;stroke-linecap:butt;stroke-linejoin:miter;stroke-opacity:0"
         d="m 4.8285261,54.464129 c 0,0 -0.165364,-1.852083 0.959115,-2.017448 1.124479,-0.165365 -2.248958,-0.132292 -2.248958,-0.132292 l 0.694531,0.198438 c 0,0 0.529166,1.852083 0.595312,1.951302 z"
         id="path2112" />
      <path
         style="fill:#794a39;fill-opacity:1;stroke:#000000;stroke-width:0.264583px;stroke-linecap:butt;stroke-linejoin:miter;stroke-opacity:0"
         d="m -3.9222649,52.633395 c 0.119034,-0.16876 0.721746,0.938937 0.489559,2.102967 -0.150884,0.75643 0.648531,-2.211498 0.979178,-1.826691 0.256167,0.298127 0.160004,-0.258736 -0.732965,-0.374491 -0.892969,-0.115756 -0.735772,0.09822 -0.735772,0.09822 z"
         id="path2114"
         sodipodi:nodetypes="cssscc" />
      <path
         style="fill:#794a39;fill-opacity:1;stroke:#000000;stroke-width:0.264583px;stroke-linecap:butt;stroke-linejoin:miter;stroke-opacity:0"
         d="m -6.3539069,52.927709 c 0,0 0.413411,0.264584 0.214974,1.289844 -0.198438,1.025261 0.264583,-1.041797 0.661458,-1.405599 0.396875,-0.363802 0.727604,-0.429948 -0.01654,-0.479557 -0.744141,-0.04961 -0.859896,0.595312 -0.859896,0.595312 z"
         id="path2116" />
      <path
         style="opacity:1;fill:#ac5460;fill-opacity:1;stroke:#000000;stroke-width:0.264583px;stroke-linecap:butt;stroke-linejoin:miter;stroke-opacity:0"
         d="m -13.244146,52.229593 c -0.08107,0.506705 6.7887741,0.721572 8.3798411,0.763267 1.590396,0.04167 2.712786,0.982215 6.314241,0.140316 3.601458,-0.841899 7.595092,-0.289309 8.9451769,-0.128621 1.891451,0.225121 2.660616,-0.623485 2.560777,-0.502801 0,0 -5.7529749,-0.49111 -7.2496859,-0.444337 -1.496708,0.04677 -3.133736,0 -5.79974898,0.280633 -2.66601302,0.280633 -2.10474702,-0.04677 -4.39658402,-0.04677 -2.291836,0 -8.7540171,-0.06169 -8.7540171,-0.06169 z"
         id="path2118"
         sodipodi:nodetypes="cssscsssc" />
      <path
         style="fill:#cb916e;fill-opacity:1;stroke:#000000;stroke-width:0.264583px;stroke-linecap:butt;stroke-linejoin:miter;stroke-opacity:0"
         d="m 25.405898,10.924466 c 0,0 -8.863541,1.455208 -6.349999,9.789583 2.513541,8.334375 -2.526553,8.092265 0,10.31875 2.579479,2.273125 8.418261,5.113619 7.408333,9.789583 -0.817602,3.785494 1.984375,0.926042 2.645833,-0.926041 0.661458,-1.852084 2.116667,-8.73125 1.058333,-16.007292 -1.058333,-7.276041 -4.7625,-12.964583 -4.7625,-12.964583 z"
         id="path2120"
         sodipodi:nodetypes="csssssc" />
      <path
         style="opacity:1;fill:#413129;fill-opacity:1;stroke:#000000;stroke-width:0.264583px;stroke-linecap:butt;stroke-linejoin:miter;stroke-opacity:0"
         d="m 16.211628,8.2786333 c 0,0 8.797395,0.132291 9.19427,5.9531247 0.396875,5.820833 1.521355,16.999479 3.108855,16.602604 1.5875,-0.396875 2.444641,-5.914378 2.180058,-3.070107 -0.264583,2.844271 -0.661458,5.390885 -0.694531,7.176823 -0.03307,1.785937 -0.165365,6.416146 -0.463021,7.242969 -0.297656,0.826822 -1.644243,5.169346 -2.73565,6.6907 -1.091406,1.521354 5.811431,-4.568192 7.531223,-15.548401 1.719792,-10.980208 5.22827,-11.620109 0.86265,-19.756047 C 30.829857,5.4343623 29.440794,1.3994663 25.009023,-0.84949166 20.577253,-3.0984507 11.713711,-3.8922007 12.242878,0.20884134 c 0.529166,4.10104196 3.96875,8.06979196 3.96875,8.06979196 z"
         id="path2122"
         sodipodi:nodetypes="cssssssssssc" />
      <path
         style="opacity:1;fill:#624133;fill-opacity:1;stroke:#000000;stroke-width:0.264583px;stroke-linecap:butt;stroke-linejoin:miter;stroke-opacity:0"
         d="m -28.205299,31.628112 c 0,0 -1.686718,-2.182813 4.134115,-7.209896 5.820833,-5.027083 9.657291,-3.704167 19.0500001,-5.953125 9.392708,-2.248958 20.5296539,0.3242 23.4156239,-9.2604167 2.73729,-9.09083396 6.901749,-9.54328496 3.307292,-12.567708 C 17.488983,-6.9076957 10.853815,-11.8297 3.3131901,-10.771367 -4.2274339,-9.7130337 -13.090976,-7.7286587 -19.970143,2.3255083 -26.849309,12.379674 -30.421184,21.375507 -30.156601,26.005716 c 0.264584,4.630208 1.951302,5.622396 1.951302,5.622396 z"
         id="path2124"
         sodipodi:nodetypes="csssssssc" />
      <path
         style="fill:#cb916e;fill-opacity:1;stroke:#000000;stroke-width:0.264583px;stroke-linecap:butt;stroke-linejoin:miter;stroke-opacity:0"
         d="m 2.5958561,32.085706 c -0.875434,-1.890722 -0.07214,-5.801572 0.744341,-6.635 0.83321,-0.850499 4.283666,-1.316267 5.593288,-1.035634 1.3096179,0.280633 0.04677,0.841897 0.23386,1.309619 0.187087,0.467723 11.9736749,0.701578 11.9736749,0.701578 0.100319,0.08107 -9.535054,2.288192 -13.4703859,2.666014 1.29152,1.433609 -3.495588,6.404082 -5.074778,2.993423 z"
         id="path2126"
         sodipodi:nodetypes="ssssccs" />
      <path
         style="opacity:1;fill:#693f31;fill-opacity:1;stroke:#000000;stroke-width:0.264583px;stroke-linecap:butt;stroke-linejoin:miter;stroke-opacity:0"
         d="m 8.4189901,24.274753 c 0,0 -3.695002,2.104748 -1.777341,2.432154 1.917657,0.327406 4.8175329,0.140316 8.3722149,-0.04677 3.554685,-0.187087 5.292453,-0.176303 5.986838,-0.140317 1.053213,0.05458 -1.564512,-1.592481 -3.928861,-1.824114 -2.165919,-0.212193 -8.3722179,-0.561266 -8.6528509,-0.42095 z"
         id="path2128"
         sodipodi:nodetypes="csssssc" />
      <path
         style="opacity:1;fill:#693f31;fill-opacity:1;stroke:#000000;stroke-width:0.264583px;stroke-linecap:butt;stroke-linejoin:miter;stroke-opacity:0"
         d="m -19.835368,30.869215 c 0,0 1.719792,-1.719792 4.663282,-1.951302 2.943489,-0.23151 6.4822915,0.03307 6.1184895,-1.058333 -0.3638021,-1.091407 -0.5622391,-2.38125 -2.5135425,-2.248959 -1.951302,0.132292 -7.639843,1.686719 -7.937499,3.472657 -0.297657,1.785937 -0.33073,1.785937 -0.33073,1.785937 z"
         id="path2130" />
      <path
         style="fill:#cb916e;fill-opacity:1;stroke:#000000;stroke-width:0.264583px;stroke-linecap:butt;stroke-linejoin:miter;stroke-opacity:0"
         d="m 2.8998741,30.401908 c 0,0 -1.769496,3.872037 -1.372621,6.980891 0.396875,3.108854 0.992187,4.960937 1.852083,4.101042 0.859896,-0.859896 0.315666,-2.990349 0.876932,-3.738702 0.561266,-0.748355 0.561265,-1.356393 2.712785,-1.824115 2.151521,-0.467723 4.7239889,-0.280633 5.0981649,-1.870888 0.374179,-1.590254 2.245064,-1.777341 -1.216075,-2.899873 -3.4611409,-1.122531 -4.6772169,-1.683797 -5.7997489,-1.49671 -1.122531,0.187089 -2.15152,0.748355 -2.15152,0.748355 z"
         id="path2132"
         sodipodi:nodetypes="csssssssc" />
      <path
         style="fill:#cb916e;fill-opacity:1;stroke:#000000;stroke-width:0.264583px;stroke-linecap:butt;stroke-linejoin:miter;stroke-opacity:0"
         d="m 17.071841,32.179249 c 0,0 1.169305,0.420952 3.414369,0.09355 2.245063,-0.327406 2.011203,-0.748355 0.608039,-1.543481 -1.403168,-0.795128 -5.612662,-2.057977 -6.828737,-1.91766 -1.216078,0.140316 0.935442,1.496711 0.935442,1.496711 z"
         id="path2134" />
      <path
         style="opacity:1;fill:#cea8aa;fill-opacity:1;stroke:#000000;stroke-width:0.264583px;stroke-linecap:butt;stroke-linejoin:miter;stroke-opacity:0"
         d="m 6.5071781,32.173404 c 0,0 3.40852,-2.636781 5.0689339,-2.543238 1.660411,0.09355 4.583671,0.350793 5.472343,1.403167 0.888671,1.052373 0.631425,1.0056 -1.239462,1.379779 -1.870887,0.374176 -4.718142,0.742507 -9.3018149,-0.239708 z"
         id="path2136"
         sodipodi:nodetypes="csssc" />
      <path
         id="path2138"
         style="fill:#cb916e;fill-opacity:1;stroke:#000000;stroke-width:0.264583px;stroke-linecap:butt;stroke-linejoin:miter;stroke-opacity:0"
         d="m -18.724741,52.506425 c -1.008902,0.0066 -2.298452,0.178493 -3.356384,0.412892 0.691478,2.648929 2.070258,5.797421 2.249475,6.200656 0.162488,0.365599 7.168399,7.71379 12.0111521,10.376112 0.01352,-0.416346 -0.03721,-0.74104 -0.03721,-0.74104 0,0 -2.2452811,-9.822032 -2.8065471,-10.851017 -0.561268,-1.028989 -4.95102,-4.754682 -5.886464,-5.409491 -0.263093,-0.184163 -1.483381,0.0074 -2.174027,0.01188 z"
         sodipodi:nodetypes="scsccsss" />
      <path
         style="fill:#d79974;fill-opacity:1;stroke:#000000;stroke-width:0.264583px;stroke-linecap:butt;stroke-linejoin:miter;stroke-opacity:0"
         d="m -10.664053,37.137099 c 0,0 -5.893294,2.15152 -5.144939,5.238483 0.748354,3.086965 2.525696,3.928864 4.396583,3.461141 1.8708871,-0.467722 3.7949071,-3.596627 5.1449391,-4.022407 3.500918,-1.104137 -3.59045,-4.735736 -4.3965831,-4.677217 z"
         id="path2140"
         sodipodi:nodetypes="csssc" />
      <path
         style="opacity:1;fill:#c1805a;fill-opacity:1;stroke:#000000;stroke-width:0.264583px;stroke-linecap:butt;stroke-linejoin:miter;stroke-opacity:0"
         d="m -5.0747805,27.946368 c 0,0 -3.1571204,9.424594 -5.2618675,9.56491 -2.104749,0.140316 -1.880711,0.113557 1.9644311,1.262848 2.5516,0.762658 1.776069,1.905725 1.403165,3.601456 -0.283126,1.28748 -0.705573,3.234262 0.848545,4.281316 0.519789,0.350196 1.028507,0.762314 1.37166,0.942677 0.343152,0.180364 0.520738,0.128972 0.378261,-0.44785 -0.168781,-0.683318 0.466327,-1.626225 0.80186,-2.685147 0.335534,-1.058923 0.3714976,-2.233861 0.501138,-3.007066 0.551082,-3.28678 1.3136324,-19.780612 -2.0071926,-13.513144 z"
         id="path2142"
         sodipodi:nodetypes="cssssssssc" />
      <path
         style="fill:#cb916e;fill-opacity:1;stroke:#000000;stroke-width:0.264583px;stroke-linecap:butt;stroke-linejoin:miter;stroke-opacity:0"
         d="m 7.3480861,34.406236 c 0,0 1.653646,1.819011 4.0018229,1.852084 2.348177,0.03307 4.332552,-0.132291 4.729427,-0.330729 0.396875,-0.198438 1.231215,-2.767687 -0.130027,-1.643592 -1.220359,1.007756 -3.086962,0.841899 -3.086962,0.841899 L 8.7463961,34.751719 Z"
         id="path2144"
         sodipodi:nodetypes="csssccc" />
      <path
         style="opacity:1;fill:#a87258;fill-opacity:1;stroke:#000000;stroke-width:0.264583px;stroke-linecap:butt;stroke-linejoin:miter;stroke-opacity:0"
         d="m 7.1561421,33.629187 c 0,0 3.9756339,1.964431 7.4367729,0.888672 3.461141,-1.075761 0.157745,0.480446 -0.964783,0.807852 -1.122532,0.327403 -6.7058459,0.501763 -6.4719859,-1.696524 z"
         id="path2146"
         sodipodi:nodetypes="csssc" />
      <path
         style="opacity:1;fill:#c1805a;fill-opacity:1;stroke:#000000;stroke-width:0.264583px;stroke-linecap:butt;stroke-linejoin:miter;stroke-opacity:0"
         d="m 5.4723441,32.646972 c 0,0 -1.54312,-1.068489 -0.748356,-3.367596 1.218707,-3.525496 5.7700099,-1.478903 7.6097609,-0.717632 2.390718,0.989258 2.025306,0.390226 0.668914,0.670859 -1.356394,0.280633 -4.3965839,1.028989 -5.2852549,1.730571 -0.888672,0.701582 -2.245064,1.683798 -2.245064,1.683798 z"
         id="path2148"
         sodipodi:nodetypes="cssssc" />
      <path
         style="fill:#a87258;fill-opacity:1;stroke:#000000;stroke-width:0.264583px;stroke-linecap:butt;stroke-linejoin:miter;stroke-opacity:0"
         d="m 5.3320271,32.085706 c 0,0 1.496709,-2.61924 2.61924,-3.180506 1.122532,-0.561266 6.2674719,-0.935445 8.3254479,0.374176 2.057974,1.309622 0.374177,1.309622 0.374177,1.309622 l -3.741775,-0.748356 c -1.122532,0.249452 -2.152501,-0.796976 -3.3675949,0.748356 -1.403165,0.498903 -4.597833,2.789308 -4.209495,1.496708 z"
         id="path2150"
         sodipodi:nodetypes="csscccc" />
      <path
         style="opacity:1;fill:#2e2120;fill-opacity:1;stroke:#000000;stroke-width:0.264583px;stroke-linecap:butt;stroke-linejoin:miter;stroke-opacity:0"
         d="m 10.336648,29.747099 c 0,0 -0.6963189,0.679539 -0.4677199,2.011201 0.2461579,1.433945 0.09354,1.239464 1.4265509,1.309621 1.333005,0.07016 2.876486,0.30402 3.320822,-0.724969 0.444336,-1.028986 0.444336,-2.455537 -0.02339,-2.595853 -0.46772,-0.140317 -1.941044,-0.654812 -1.941044,-0.654812 z"
         id="path2152"
         sodipodi:nodetypes="csssscc" />
      <path
         style="fill:#392a27;fill-opacity:1;stroke:none;stroke-width:0.264583px;stroke-linecap:butt;stroke-linejoin:miter;stroke-opacity:1"
         d="m 10.208025,32.249409 c 0,0 -0.140316,-1.625333 0.853592,-1.099146 0.993909,0.526185 1.929352,0.456028 2.642627,0.105236 0.713276,-0.35079 0.970523,0.140316 0.900365,0.514495 -0.07016,0.374177 -0.08185,0.619731 -0.245554,0.783434 -0.163703,0.163703 -1.239463,0.514493 -1.286235,0.514493 -0.04677,0 -1.601947,-0.128625 -1.718877,-0.128625 -0.11693,0 -0.748354,-0.175395 -0.748354,-0.175395 z"
         id="path2154" />
      <path
         style="fill:#40322f;fill-opacity:1;stroke:none;stroke-width:0.264583px;stroke-linecap:butt;stroke-linejoin:miter;stroke-opacity:1"
         d="m 10.570509,32.68205 c 0,0 -0.26894,-1.087453 0.210475,-0.900364 0.479415,0.18709 1.672105,0.654812 2.315222,0.292328 0.643118,-0.362485 1.601947,-0.374179 1.145918,0.526184 -0.456028,0.900364 -2.701092,0.643118 -2.701092,0.643118 l -0.643117,-0.222168 z"
         id="path2156" />
      <path
         style="fill:#40322f;fill-opacity:1;stroke:none;stroke-width:0.264583px;stroke-linecap:butt;stroke-linejoin:miter;stroke-opacity:1"
         d="m 9.9741642,30.401908 c 0,0 0.1169308,-0.280633 0.1987818,-0.23386 0.08185,0.04677 -0.07016,0.537879 -0.08185,0.689888 -0.01169,0.152011 -0.01169,0.771742 0.03508,1.028988 0.04677,0.257247 0.163698,0.374177 0.315712,0.53788 0.152009,0.163703 0.684043,0.263095 0.684043,0.263095 l 1.291594,0.125125 0.700021,-0.107831 c 0,0 1.15966,-0.198538 1.288283,-0.502557 0.128624,-0.30402 0.374177,-0.865286 0.350791,-1.169305 -0.02339,-0.304017 -0.03508,-0.713275 -0.140316,-1.064067 -0.105238,-0.35079 0.254108,0.168431 0.254108,0.168431 l 0.01654,0.264583 0.05374,0.51263 -0.07855,0.553972 -0.148828,0.570508 -0.318326,0.702799 -0.512631,0.272852 -2.05052,0.173632 -1.372527,-0.165364 -0.396874,-0.248047 -0.04134,-0.31006 -0.1405595,-0.938443 0.00827,-0.582911 z"
         id="path2158"
         sodipodi:nodetypes="csssscccssscccccccccccccc" />
      <path
         style="fill:#1e0803;fill-opacity:1;stroke:#000000;stroke-width:0.264583px;stroke-linecap:butt;stroke-linejoin:miter;stroke-opacity:0"
         d="m 10.091096,30.29667 c 0,0 -0.2689409,0.678199 -0.1286249,1.508403 0.1403169,0.830207 0.1520109,0.958829 0.2923279,1.04068 0.140316,0.08185 2.38538,0.222168 2.701091,0.175398 0.315712,-0.04677 1.262849,-0.198784 1.297927,-0.245555 0.03508,-0.04677 0.796126,-1.242568 0.626626,-2.19755 -0.169497,-0.954979 -0.08682,-0.843359 0.03721,-0.740005 0.124024,0.103352 -0.05374,0.194302 -0.05374,0.194302 0,0 0.161232,0.603581 0.07855,1.087274 -0.08268,0.48369 -0.198438,1.244367 -0.487826,1.570963 -0.289388,0.326594 -1.029395,0.409276 -1.029395,0.409276 l -1.430404,0.05788 -1.86862,-0.190169 -0.06142,-0.151043 c 0,0 -0.3065099,-1.126397 -0.2610359,-1.643163 0.04548,-0.516763 0.103354,-0.818555 0.144696,-0.859896 0.04134,-0.04134 0.1426499,-0.0168 0.1426499,-0.0168 z"
         id="path2160" />
      <path
         style="fill:#72473d;fill-opacity:1;stroke:#000000;stroke-width:0.264583px;stroke-linecap:butt;stroke-linejoin:miter;stroke-opacity:0"
         d="m 8.3072011,32.537617 c 0,0 -0.496094,-0.777214 -0.165365,-1.190625 0.330729,-0.413412 -0.363802,-0.09922 -0.363802,-0.09922 l -1.174088,0.677995 -0.03307,0.23151 0.246171,0.09798 z"
         id="path2162" />
      <path
         style="opacity:1;fill:#72473d;fill-opacity:1;stroke:#000000;stroke-width:0.264583px;stroke-linecap:butt;stroke-linejoin:miter;stroke-opacity:0"
         d="m 6.4551171,32.157278 c 0,0 5.1263019,1.025261 7.6067709,0.56224 2.480469,-0.463021 3.638021,-0.992188 3.505729,-0.694531 -0.132291,0.297656 -3.505729,1.355989 -5.886979,1.25677 -2.3812499,-0.09922 -5.0601559,-1.02526 -5.2255209,-1.124479 z"
         id="path2164" />
      <path
         style="fill:#72473d;fill-opacity:1;stroke:#000000;stroke-width:0.264583px;stroke-linecap:butt;stroke-linejoin:miter;stroke-opacity:0"
         d="m 17.303034,32.091132 c 0,0 0.460467,-0.196422 -0.165365,-0.992187 -0.63455,-0.80685 0.382718,-1.264063 1.215673,0.140317 0.247118,0.416645 1.286728,1.028201 0.07417,0.918016 -1.054505,-0.09582 -1.124479,-0.06615 -1.124479,-0.06615 z"
         id="path2166"
         sodipodi:nodetypes="cssscc" />
      <path
         style="opacity:1;fill:#1e0803;fill-opacity:1;stroke:#000000;stroke-width:0.264583px;stroke-linecap:butt;stroke-linejoin:miter;stroke-opacity:0"
         d="m 6.6535551,32.223424 c 0,0 -1.885156,0.892969 -1.157552,0.06615 0.727604,-0.826823 3.326027,-2.695269 5.2255209,-3.141927 1.005419,-0.23642 2.265491,-0.478728 3.671093,-0.165365 1.30384,0.290676 3.476887,0.971652 3.538802,1.422136 0.02092,0.15222 -0.325643,1.269598 -1.190624,0.79375 -1.050009,-0.577638 -3.208073,-2.083594 -5.192448,-1.455209 -1.9843749,0.628386 -4.6302089,2.38125 -4.8947919,2.480469 z"
         id="path2168"
         sodipodi:nodetypes="csssssssc" />
      <path
         style="opacity:1;fill:#150403;fill-opacity:1;stroke:#000000;stroke-width:0.343106px;stroke-linecap:butt;stroke-linejoin:miter;stroke-opacity:0"
         d="m 12.121262,30.673229 c 0,0 -0.606535,0.363919 -0.333596,0.9098 0.272941,0.545879 0.576207,0.394246 0.849148,0.212287 0.272938,-0.181961 0.485225,-0.576207 0.212287,-0.849146 -0.272941,-0.272941 -0.636861,-0.303268 -0.727839,-0.272941 z"
         id="path2170" />
      <path
         style="opacity:1;fill:#a87258;fill-opacity:1;stroke:#000000;stroke-width:0.235751px;stroke-linecap:butt;stroke-linejoin:miter;stroke-opacity:0"
         d="m -13.248964,48.675158 c 0,0 -3.123698,1.82707 -2.652196,3.418388 0.471502,1.591318 -0.05894,3.300512 -0.589377,1.355568 -0.53044,-1.944945 -0.412564,-3.300513 3.241573,-4.773956 z"
         id="path2172" />
      <path
         style="opacity:1;fill:#794a39;fill-opacity:1;stroke:#000000;stroke-width:0.264583px;stroke-linecap:butt;stroke-linejoin:miter;stroke-opacity:0"
         d="m -5.6826429,46.709361 c 0,0 3.307292,1.5875 5.09322902,0.859896 1.78593798,-0.727604 3.70416698,-1.5875 4.56406298,-1.389062 0.859896,0.198437 0.264583,0.529166 -0.727604,1.190625 -0.992188,0.661458 -3.17499998,1.719791 -4.894792,1.389062 -1.719792,-0.330729 -4.828646,-1.918229 -4.034896,-2.050521 z"
         id="path2174" />
      <path
         style="fill:#c1805a;fill-opacity:1;stroke:#000000;stroke-width:0.218223px;stroke-linecap:butt;stroke-linejoin:miter;stroke-opacity:0"
         d="m 5.2142381,43.301682 c 0,0 -2.388266,-3.1106 -2.6868,-0.877349 -0.298533,2.23325 0.956184,4.442703 2.255099,3.151439 1.043659,-1.037511 0.553597,-1.730404 0.431701,-2.27409 z"
         id="path2176"
         sodipodi:nodetypes="cssc" />
      <path
         style="opacity:1;fill:#794a39;fill-opacity:1;stroke:#000000;stroke-width:0.237973px;stroke-linecap:butt;stroke-linejoin:miter;stroke-opacity:0"
         d="m 2.5374711,41.687275 c 0,0 -0.465118,1.932034 0.01083,2.40798 0.475946,0.475945 0.435185,0.05099 0.535439,-0.535439 0.392407,-2.295364 -0.482248,-2.14995 -0.546266,-1.872541 z"
         id="path2178"
         sodipodi:nodetypes="cssc" />
      <path
         style="fill:#cea8aa;fill-opacity:1;stroke:#000000;stroke-width:0.290351px;stroke-linecap:butt;stroke-linejoin:miter;stroke-opacity:0"
         d="m 11.452184,31.186698 c 0,0 0.23591,0.290352 0.47182,0.03629 0.235911,-0.254058 0.381086,-0.635143 0.127029,-0.635143 -0.254057,0 -0.671437,0.544407 -0.598849,0.598849 z"
         id="path2180" />
      <path
         style="fill:#bb6774;fill-opacity:1;stroke:#000000;stroke-width:0.264583px;stroke-linecap:butt;stroke-linejoin:miter;stroke-opacity:0"
         d="m -1.2177179,57.392553 c 0,0 -2.513541,-0.198437 -3.96875,0.09922 -1.455208,0.297656 -2.116666,0.562239 -1.289843,0.826823 0.826822,0.264583 3.175,0.198437 4.266406,0.198437 1.091406,0 4.927864,0.09922 5.886979,-0.396875 0.959114,-0.496094 3.538802,-1.091406 4.067968,-1.686719 0.529167,-0.595312 1.124479,-0.926041 0.727604,-1.091406 -0.396875,-0.165364 -2.546614,0.06615 -3.108854,0.330729 -0.562239,0.264584 -3.208072,1.521355 -4.167187,1.554427 -0.95911398,0.03307 -2.282031,0.165365 -2.414323,0.165364 z"
         id="path2182" />
      <path
         id="path2184"
         style="fill:#a87258;fill-opacity:1;stroke:#000000;stroke-width:0.264583px;stroke-linecap:butt;stroke-linejoin:miter;stroke-opacity:0"
         d="m -8.6292339,63.862836 c -0.01371,0.0059 -0.02584,0.08277 -0.02532,0.325046 0.03666,-0.144666 0.06253,-0.23358 0.06253,-0.23358 0,0 -0.01994,-0.09887 -0.03721,-0.09147 z m -0.02532,0.325046 c -0.194207,0.766291 -0.737193,3.295041 0.102319,4.857067 0.497952,0.31242 0.978506,0.584856 1.432986,0.80305 -0.284075,-0.386172 -1.351251,-1.969585 -1.472776,-4.116543 -0.04591,-0.810985 -0.06196,-1.27747 -0.062529,-1.543574 z" />
      <path
         id="path2186"
         style="fill:#a87258;fill-opacity:1;stroke:#000000;stroke-width:0.264583px;stroke-linecap:butt;stroke-linejoin:miter;stroke-opacity:0"
         d="m 20.389149,63.323851 c 0,0 -1.777338,1.496583 -4.864301,3.601331 -0.03167,0.0216 -0.06287,0.04156 -0.09405,0.06201 1.17507,-0.616903 2.24745,-1.190641 3.193603,-1.71514 1.167445,-1.135891 1.764749,-1.948201 1.764748,-1.948201 z m -8.699727,2.338358 c 0,0 0.374044,-0.795134 -1.169437,2.478918 -1.1350969,2.407786 -5.6566909,3.524666 -7.9716049,3.947566 2.020705,-0.11204 4.439917,-0.75856 7.6481089,-2.398306 1.594538,-0.814986 3.014578,-1.546979 4.345472,-2.240174 -2.267479,0.842483 -2.852539,-1.788004 -2.852539,-1.788004 z" />
      <path
         id="path2188"
         style="fill:#cb916e;fill-opacity:1;stroke:#000000;stroke-width:0.264583px;stroke-linecap:butt;stroke-linejoin:miter;stroke-opacity:0"
         d="m 29.257858,36.432987 c -1.884862,-3.089653 -1.182851,6.236166 -7.215063,9.150345 -4.065794,1.964198 -3.96875,7.408333 -3.96875,7.408333 4.377217,3.950803 -11.9747099,13.766715 -4.652946,15.013038 5.453705,-2.306836 10.193448,-5.491618 10.807094,-6.732924 0.772385,-1.562407 3.386341,-2.655287 4.115511,-9.167399 0.637429,-5.692773 0.665753,-13.046139 0.914154,-15.671393 z"
         sodipodi:nodetypes="csccssc" />
      <path
         style="fill:#c1805a;fill-opacity:1;stroke:#000000;stroke-width:0.264583px;stroke-linecap:butt;stroke-linejoin:miter;stroke-opacity:0"
         d="m 6.8347181,47.1286 c 0,0 3.7703119,4.101042 5.9531239,3.96875 2.182813,-0.132291 2.248959,1.124479 2.447396,2.447396 0.198438,1.322917 3.638021,2.182812 4.828646,-1.190629 1.190625,-3.373433 3.373437,-5.820829 -1.058333,-6.482288 -4.431771,-0.661458 -12.6783939,-2.44711 -14.3320399,-2.976276 -1.653646,-0.529167 -0.220043,1.190339 0.573707,2.380964 0.79375,1.190625 1.5875,1.852083 1.5875,1.852083 z"
         id="path2190"
         sodipodi:nodetypes="cssssssc" />
      <path
         style="fill:#a87258;fill-opacity:1;stroke:#000000;stroke-width:0.420941px;stroke-linecap:butt;stroke-linejoin:miter;stroke-opacity:0"
         d="m 14.424972,55.078241 c -0.216948,0 1.368059,-2.104706 0.105242,-2.94659 -1.262824,-0.84188 -3.262294,-1.420674 -3.262294,-1.420674 0,0 2.736118,-0.05262 3.78847,0.894499 1.052353,0.947118 0.07059,3.472765 -0.631413,3.472765 z"
         id="path2192"
         sodipodi:nodetypes="sscsss" />
      <path
         style="opacity:1;fill:#c1805a;fill-opacity:1;stroke:#000000;stroke-width:0.264583px;stroke-linecap:butt;stroke-linejoin:miter;stroke-opacity:0"
         d="m -8.2085139,34.377542 c -0.172023,-0.417446 -0.190194,0.958433 -3.5925791,1.809441 -3.112645,0.778539 -4.731863,-0.06181 -4.782234,0.164345 -0.185875,0.834537 3.188374,0.663947 5.531848,1.626979 2.9152908,1.198015 3.1395351,-0.01839 4.4799901,-2.337919 1.30642,-2.260639 2.08136,-2.57247 1.145918,-3.063576 -0.935445,-0.491109 -2.782943,1.800727 -2.782943,1.800727 z"
         id="path2194"
         sodipodi:nodetypes="cssssscc" />
      <path
         style="opacity:1;fill:#a87258;fill-opacity:1;stroke:#000000;stroke-width:0.264583px;stroke-linecap:butt;stroke-linejoin:miter;stroke-opacity:0"
         d="m -12.394624,31.197034 c 0,0 5.4132841,1.459777 5.0688631,1.717114 -0.745855,0.557272 -3.3108951,1.364662 -3.3108951,1.364662 0,0 2.9660211,1.244651 4.1587101,0.355979 1.192692,-0.888672 3.0432306,-2.966021 1.9908586,-3.784533 -1.052375,-0.818513 -4.2125356,-1.874899 -8.3284867,-0.144328 -4.11595,1.73057 0.42095,0.491106 0.42095,0.491106 z"
         id="path2196"
         sodipodi:nodetypes="cscsssc" />
      <path
         style="fill:#a87258;fill-opacity:1;stroke:none;stroke-width:0.264583px;stroke-linecap:butt;stroke-linejoin:miter;stroke-opacity:1"
         d="m -7.6234283,35.245219 c 0,0 1.8955935,-1.23523 2.0875183,-0.356258 0.1919248,0.878972 -0.1327995,2.537766 0.2983481,2.699978 0.4311476,0.162211 0.9584091,0.365656 1.0881771,-1.422301 0.1297679,-1.787961 0.1233709,-4.485012 -0.035808,-4.803674 -0.159179,-0.318662 -0.1808215,-0.446777 -0.8427026,-0.548652 -0.6618814,-0.101874 -1.1695588,-0.119108 -1.3839197,0.221378 -0.2143607,0.340492 -0.036383,1.782502 -0.036383,1.782502 l 0.3716821,0.837359 z"
         id="path2198"
         sodipodi:nodetypes="cssssssccc" />
      <path
         style="opacity:1;fill:#cea8aa;fill-opacity:1;stroke:#000000;stroke-width:0.264583px;stroke-linecap:butt;stroke-linejoin:miter;stroke-opacity:0"
         d="m -17.522747,34.042434 c 0,0 1.223698,-2.61276 4.134115,-2.711979 2.910416,-0.09922 6.5319011,0.595313 6.1350251,1.620573 -0.198437,0.51263 -0.430034,0.675659 -0.922079,0.801481 -0.492046,0.125822 -1.128785,0.181365 -1.9059991,0.412875 -1.554427,0.463021 -4.92752,0.836165 -7.441062,-0.122948 z"
         id="path2200"
         sodipodi:nodetypes="csssssc" />
      <path
         style="opacity:1;fill:#2e2120;fill-opacity:1;stroke:#000000;stroke-width:0.264583px;stroke-linecap:butt;stroke-linejoin:miter;stroke-opacity:0"
         d="m -14.218739,32.062319 c 0.0083,-0.02073 -0.838222,0.821016 -0.11693,2.03459 0.590332,0.993233 2.676799,0.579802 3.531299,0.07016 0.8071841,-0.481423 0.749403,-1.418929 0.678196,-2.151517 -0.08965,-0.922286 -1.824114,-0.608039 -1.941044,-0.631426 -0.11693,-0.02339 -2.151521,0.678196 -2.151521,0.678196 z"
         id="path2202"
         sodipodi:nodetypes="csssscc" />
      <path
         style="fill:#392a27;fill-opacity:1;stroke:#000000;stroke-width:0.264583px;stroke-linecap:butt;stroke-linejoin:miter;stroke-opacity:0"
         d="m -14.155208,34.280078 c 0,0 -0.309033,-1.588345 0.177889,-1.487795 1.765625,0.364604 4.0207515,1.254025 1.091406,0.56224 -0.505099,-0.119283 0.515955,-0.008 0.697856,-0.206466 0.181901,-0.198438 0.873108,-0.71958 1.203837,-0.752653 0.330729,-0.03307 0.830835,0.495607 0.71508,0.909019 -0.115755,0.413411 -0.190169,0.669726 -0.7028,0.967382 -0.51263,0.297657 -1.488281,0.338998 -1.752864,0.355534 -0.264584,0.01654 -1.025261,-0.09095 -1.025261,-0.09095 z"
         id="path2204"
         sodipodi:nodetypes="cssssssscc" />
      <path
         style="fill:#40322f;fill-opacity:1;stroke:none;stroke-width:0.264583px;stroke-linecap:butt;stroke-linejoin:miter;stroke-opacity:1"
         d="m -13.617773,34.371028 c 0,0 -0.661458,-0.264583 -0.702799,-0.8847 -0.04134,-0.620117 0.05788,-1.174089 0.115755,-1.231966 0.05788,-0.05788 1.976106,-0.603581 2.009179,-0.611849 0.03307,-0.0083 1.050065,-0.03307 1.050065,-0.03307 l 0.587045,0.04961 0.181901,0.107487 c 0,0 0.190169,1.116211 0.0083,1.579232 -0.181901,0.463021 -0.694531,0.835091 -0.752409,0.859896 -0.05788,0.02479 -0.868164,0.14056 -0.868164,0.14056 l -0.0083,0.248046 1.132747,-0.190169 0.04961,-0.223242 0.355534,-0.297656 0.206705,-0.314193 0.148828,-0.396875 -0.01654,-1.02526 -0.132292,-0.7028 -3.232877,0.14056 -1.033529,0.463021 -0.03307,0.669726 -0.03307,0.785482 0.173633,0.429948 0.256315,0.355534 0.570508,0.305924 0.28112,0.04961 z"
         id="path2206" />
      <path
         style="fill:#40322f;fill-opacity:1;stroke:none;stroke-width:0.264583px;stroke-linecap:butt;stroke-linejoin:miter;stroke-opacity:1"
         d="m -13.49377,34.658175 c -0.152052,0 -0.79349,-1.232843 -0.280632,-1.262848 0.455894,-0.02667 1.375004,0.906104 1.952737,0.222166 0.429035,-0.507905 0.713276,-0.654811 0.947137,-0.514494 0.233861,0.140316 0.339098,0.783434 0.08185,1.064067 -0.257247,0.280633 -0.900364,0.432644 -1.321314,0.467723 -0.420949,0.03508 -0.830206,-0.03507 -0.830206,-0.03507 z"
         id="path2208"
         sodipodi:nodetypes="cssssscc" />
      <path
         style="fill:#1e0803;fill-opacity:1;stroke:#000000;stroke-width:0.264583px;stroke-linecap:butt;stroke-linejoin:miter;stroke-opacity:0"
         d="m -14.382442,32.436498 c 0,0 -0.315711,1.531787 0.491109,1.929352 0.806821,0.397563 1.952736,0.23386 2.256756,0.140317 0.304019,-0.09355 1.543481,-0.561266 1.438246,-1.625333 -0.105238,-1.064067 0.152008,-1.216078 -0.666504,-1.333008 -0.818512,-0.11693 0.8641771,-0.101616 0.8641771,-0.101616 l -0.1736331,0.198438 c 0,0 0.2976561,1.157552 -0.02479,1.860352 -0.322474,0.702799 -1.306393,1.083138 -1.306393,1.083138 0,0 -2.199349,0.09922 -2.232422,0.09095 -0.03307,-0.0083 -1.000456,-0.65319 -0.942578,-1.405599 0.05788,-0.752409 0.132292,-0.909505 0.132292,-0.909505 z"
         id="path2210" />
      <path
         style="fill:#794a39;fill-opacity:1;stroke:#000000;stroke-width:0.264583px;stroke-linecap:butt;stroke-linejoin:miter;stroke-opacity:0"
         d="m -7.1967949,45.06438 c 0,0 0.314193,-0.744141 0.84336,-0.744141 0.529166,0 0.496093,0.33073 0.760676,-0.09922 0.264584,-0.429948 0.03307,-0.644922 -0.165362,-1.240234 -0.198437,-0.595313 -0.777213,-0.06615 -1.008724,0.396874 -0.23151,0.463021 -0.429948,1.686719 -0.429948,1.686719 z"
         id="path2212"
         sodipodi:nodetypes="csssscc" />
      <path
         style="opacity:1;fill:#150403;fill-opacity:1;stroke:#000000;stroke-width:0.312149px;stroke-linecap:butt;stroke-linejoin:miter;stroke-opacity:0"
         d="m -12.569473,32.434892 c 0,0 -0.786326,0.386263 -0.358675,0.965662 0.42765,0.579395 1.076021,0.09656 1.103612,-0.151749 0.0276,-0.248311 0.09657,-1.11741 -0.744937,-0.813913 z"
         id="path2214" />
      <path
         style="fill:#cea8aa;fill-opacity:1;stroke:#000000;stroke-width:0.277932px;stroke-linecap:butt;stroke-linejoin:miter;stroke-opacity:0"
         d="m -12.919462,32.493815 c 0,0 -0.393057,0.257943 -0.147396,0.442188 0.245658,0.184246 0.503602,0 0.515884,-0.12283 0.01228,-0.122829 -0.331641,-0.380773 -0.368488,-0.319358 z"
         id="path2216" />
      <path
         style="fill:#a87258;fill-opacity:1;stroke:#000000;stroke-width:0.264583px;stroke-linecap:butt;stroke-linejoin:miter;stroke-opacity:0"
         d="m 5.4298571,31.561966 c 0,0 -0.330729,0.694531 -0.198437,0.859896 0.132291,0.165364 0.562239,-0.595313 1.02526,-1.289844 0.463021,-0.694531 1.190625,-1.719792 1.752865,-2.017448 0.562239,-0.297656 1.9996989,-0.51339 2.0932429,-0.51339 0.09355,0 3.975634,-0.11693 4.607059,0.163703 0.631423,0.280633 1.850669,0.723739 1.850669,0.723739 0,0 -0.985383,-0.840671 -2.528867,-1.004372 -1.543481,-0.163703 -5.5424999,-0.350792 -6.5948739,0.65481 -1.052375,1.005602 -2.006918,2.422906 -2.006918,2.422906 z"
         id="path2218"
         sodipodi:nodetypes="cssssscssc" />
      <path
         style="fill:#a87258;fill-opacity:1;stroke:#000000;stroke-width:0.264583px;stroke-linecap:butt;stroke-linejoin:miter;stroke-opacity:0"
         d="m -17.901473,35.922152 c 0.132291,0.03307 3.879608,0.247206 6.133851,-0.90002 3.7082786,-1.887213 6.133424,-0.9961 5.1363328,-0.315653 -0.9019057,0.615489 -4.7036348,1.662485 -6.7061218,2.108641 -2.121085,0.47258 -4.614308,-0.527196 -4.564062,-0.892968 z"
         id="path2220"
         sodipodi:nodetypes="csssc" />
      <path
         style="fill:#a87258;fill-opacity:1;stroke:#000000;stroke-width:0.264583px;stroke-linecap:butt;stroke-linejoin:miter;stroke-opacity:0"
         d="m -6.9394139,45.22108 c 0,0 0.661459,1.025261 0.84336,1.141016 0.181901,0.115755 -0.181901,0.314192 -0.545703,-0.314193 -0.363802,-0.628385 -0.297657,-0.826823 -0.297657,-0.826823 z"
         id="path2222" />
      <path
         style="fill:#a87258;fill-opacity:1;stroke:#000000;stroke-width:0.264583px;stroke-linecap:butt;stroke-linejoin:miter;stroke-opacity:0"
         d="m 4.5699611,45.78332 c 0,0 0.926042,-1.157552 0.694531,-1.719792 -0.23151,-0.56224 0.03307,-0.79375 0.132292,-0.330729 0.09922,0.463021 0.145717,0.303197 0.07556,0.653986 -0.07016,0.350793 -0.495144,1.436675 -0.902383,1.396535 z"
         id="path2224" />
      <path
         style="fill:#413129;fill-opacity:1;stroke:#000000;stroke-width:0.264583px;stroke-linecap:butt;stroke-linejoin:miter;stroke-opacity:0"
         d="m -28.039934,32.091132 c 0.501014,-0.02947 -4.445378,-2.602232 -0.661458,-15.213541 3.953933,-13.1779413 10.715624,-18.5208327 12.303124,-19.8437497 1.5875,-1.322917 6.4357971,-5.733464 14.3402921,-7.0898573 7.904496,-1.356393 8.559308,-1.403165 10.757599,-0.841899 2.1982929,0.561266 7.3878349,2.8251503 8.0448119,3.4143683 4.378109,3.926564 -5.496349,0.290008 -9.6818369,2.970033 -4.159626,2.663464 -11.178548,15.6452887 -11.178548,15.6452887 l -16.9315251,9.72861 c 0,0 -4.303039,1.028988 -5.519116,3.741774 -1.216076,2.712787 -1.473343,7.488973 -1.473343,7.488973 z"
         id="path2226"
         sodipodi:nodetypes="cssssssccsc" />
      <path
         id="path2228"
         style="fill:#72473d;fill-opacity:1;stroke:#000000;stroke-width:0.999999px;stroke-linecap:butt;stroke-linejoin:miter;stroke-opacity:0"
         d="m -31.785156,119.19141 c -0.226453,0.005 -0.105593,0.32425 -0.08984,0.68945 0.05543,1.28535 -0.917936,0.84093 -1.292969,0.62305 0.744221,0.46341 6.472453,4.10265 4.453125,5.12695 -5.139801,2.38364 -11.38675,3.30977 -15.921875,4.38867 -7.778181,1.85616 -20.771484,-1.50195 -20.771484,-1.50195 0,0 -1.962682,0.16475 3.712891,2.38476 8.9153,3.48724 22.82989,-0.49073 26.314453,-1.55859 3.012239,-0.92312 12.779805,-3.66067 11.289062,-5.54102 -1.372127,-1.31726 -5.065432,-3.16959 -6.597656,-4.0957 -0.622465,-0.37623 -0.940762,-0.51929 -1.095703,-0.51562 z m -1.527344,1.2207 c 0,0 0.05308,0.0379 0.138672,0.0879 -0.04655,-0.029 -0.138672,-0.0879 -0.138672,-0.0879 z"
         sodipodi:nodetypes="ssccccsscssccc"
         transform="scale(0.26458333)" />
      <path
         style="fill:#4b3831;fill-opacity:1;stroke:#000000;stroke-width:0.264583px;stroke-linecap:butt;stroke-linejoin:miter;stroke-opacity:0"
         d="m -24.335768,22.698424 c 0.661459,-2.38125 5.027084,-18.6531247 12.170834,-22.48958266 7.1437501,-3.83645804 12.08944412,-9.30467104 19.7623611,-8.37863004 7.6729159,0.926042 11.1938879,2.690089 7.6220129,6.526547 -3.571875,3.836458 -30.559374,22.6218747 -39.555208,24.3416657 z"
         id="path2232"
         sodipodi:nodetypes="csssc" />
      <path
         style="fill:#4a362d;fill-opacity:1;stroke:#000000;stroke-width:0.264583px;stroke-linecap:butt;stroke-linejoin:miter;stroke-opacity:0"
         d="m -4.8888929,-5.6119917 c 0,0 -14.0229161,6.879166 -16.2718751,14.816666 -2.248958,7.9374997 -5.159375,12.6999997 -6.614583,14.6843747 -1.455208,1.984375 -1.81901,4.597136 -0.363802,6.581511 1.455208,1.984375 -2.600336,3.85567 1.338702,-3.997514 3.814658,-7.60521 4.156678,-9.479022 7.156141,-13.657473 3.000265,-4.1795687 7.296459,-8.5125337 11.3188631,-10.1027877 4.022408,-1.590253 5.425573,-3.08696296 8.41899202,-6.080381 2.99341898,-2.993419 5.61265898,-4.490128 6.92227998,-4.864306 1.309621,-0.374177 -3.320825,-0.467717 -6.59487498,0.467722 -3.27405202,0.935444 -5.30984302,2.152188 -5.30984302,2.152188 z"
         id="path2234"
         sodipodi:nodetypes="csssssssssc" />
      <path
         style="fill:#46322b;fill-opacity:1;stroke:#000000;stroke-width:0.264583px;stroke-linecap:butt;stroke-linejoin:miter;stroke-opacity:0"
         d="m 7.0817811,-8.4267987 c 0,0 -14.484215,4.005432 -17.7915071,10.22314 -3.307292,6.217708 -5.423958,13.4937497 -10.31875,17.8593747 -4.894792,4.365625 -6.35,5.688541 -6.879167,8.995833 -0.529166,3.307292 -0.165364,4.365625 -0.165364,4.365625 0,0 -3.023168,-2.927843 1.210165,-7.558052 4.233334,-4.630208 10.464574,-6.994031 14.036449,-9.110698 3.5718751,-2.116666 5.9531251,-11.9062497 9.2604171,-14.0229157 3.30729102,-2.11666696 11.505264,-6.017939 12.567708,-7.672917 1.2422419,-1.935052 -0.131621,-3.372663 -1.919951,-3.07939 z"
         id="path2236"
         sodipodi:nodetypes="cssscssssc" />
      <path
         style="fill:#4b352c;fill-opacity:1;stroke:#000000;stroke-width:0.264583px;stroke-linecap:butt;stroke-linejoin:miter;stroke-opacity:0"
         d="m 8.8547681,-8.0533097 c 0,0 -2.763453,3.102776 -8.98116098,6.806943 -6.21770802,3.704166 -8.20208302,9.789583 -9.65729102,10.847916 -1.4552091,1.0583337 -4.7625001,4.7624997 -9.1281251,6.4822917 -4.365625,1.719792 -8.069792,4.696355 -8.069792,4.696355 0,0 3.704167,-1.389063 6.879167,-2.050522 3.175,-0.661458 14.8166661,-5.953125 16.1395831,-7.408333 1.322917,-1.4552077 5.656323,-8.1498947 9.392708,-11.24479166 4.8569649,-4.02308804 4.518911,-7.99310904 3.424911,-8.12985904 z"
         id="path2238"
         sodipodi:nodetypes="cssscsssc" />
      <path
         style="fill:#624233;fill-opacity:1;stroke:#000000;stroke-width:0.264583px;stroke-linecap:butt;stroke-linejoin:miter;stroke-opacity:0"
         d="m 12.41724,-7.3003717 c 0,0 -8.1780079,15.049838 -15.7186329,18.6217127 -7.5406251,3.571875 -21.0343751,5.820833 -24.4739581,9.789583 -3.439583,3.96875 -2.910416,3.704167 -0.661458,2.513542 2.248958,-1.190625 9.657291,-3.307292 13.890625,-4.233333 4.233333,-0.926042 30.956249,-9.7895837 31.882291,-15.8749997 0.926042,-6.085417 2.034581,-9.231474 -4.918867,-10.816505 z"
         id="path2240"
         sodipodi:nodetypes="csssssc" />
      <path
         style="fill:#85624e;fill-opacity:1;stroke:#000000;stroke-width:0.264583px;stroke-linecap:butt;stroke-linejoin:miter;stroke-opacity:0"
         d="m 12.301078,5.8932943 c 0,0 -9.6818379,8.6996217 -21.6555119,11.1317747 -11.9736751,2.432151 -20.7668421,3.928862 -20.9539311,7.670634 -0.187088,3.741774 0.862067,6.093752 2.178918,8.627802 1.298273,2.498299 0.551865,2.168544 0.374178,-2.61924 -0.168822,-4.548934 7.92387,-8.814892 14.284884,-9.563247 6.3610151,-0.748353 23.526399,-7.202912 25.771463,-15.2477237 z"
         id="path2242"
         sodipodi:nodetypes="csssssc" />
      <path
         style="fill:#4b352c;fill-opacity:1;stroke:#000000;stroke-width:0.264583px;stroke-linecap:butt;stroke-linejoin:miter;stroke-opacity:0"
         d="m 21.234564,2.2918353 c 0,0 5.799748,14.6864597 10.476965,18.1476017 4.677217,3.461139 4.677217,3.414367 4.677217,3.414367 0,0 -4.844444,-7.286866 -6.735194,-12.862347 -1.857853,-5.4784717 -2.19688,-7.2001007 -5.051393,-8.3254437 -2.782058,-1.096779 -3.345575,-0.175999 -3.367595,-0.374178 z"
         id="path2244"
         sodipodi:nodetypes="cscssc" />
      <path
         style="fill:#735241;fill-opacity:1;stroke:#000000;stroke-width:0.264583px;stroke-linecap:butt;stroke-linejoin:miter;stroke-opacity:0"
         d="m 16.039329,-6.2068537 c 0,0 -5.773491,10.060815 -9.7422409,12.640503 -3.96875,2.579687 -5.55624998,3.175 -5.55624998,3.175 0,0 8.34973898,-1.787985 11.44460588,-3.5478 4.834805,-2.749185 6.704465,-11.949931 3.853885,-12.267703 z"
         id="path2246"
         sodipodi:nodetypes="cscsc" />
      <path
         style="fill:#ac8774;fill-opacity:1;stroke:#000000;stroke-width:0.264583px;stroke-linecap:butt;stroke-linejoin:miter;stroke-opacity:0"
         d="m 17.007797,-5.5523977 c 0.237372,0.09288 -5.604227,16.8873577 -11.5591369,18.6467137 -4.76904198,1.408996 -9.525,5.027083 -15.08125,5.688542 -5.5562501,0.661458 -8.5989581,1.058333 -8.5989581,1.058333 0,0 3.175,0.661458 7.276041,0.529167 4.1010421,-0.132292 21.32896,-2.593502 24.077083,-6.879167 2.637477,-4.1131147 6.414518,-17.8792577 3.886221,-19.0435887 z"
         id="path2248"
         sodipodi:nodetypes="csscssc" />
      <path
         style="fill:#85624e;fill-opacity:1;stroke:#000000;stroke-width:0.264583px;stroke-linecap:butt;stroke-linejoin:miter;stroke-opacity:0"
         d="m 17.35491,9.9193163 c 0,0 5.027083,0.2645837 7.276041,3.3072917 2.248958,3.042708 2.778125,4.630208 2.778125,4.630208 0,0 1.190625,-10.7156247 -1.852083,-14.0229157 C 22.514285,0.52660834 21.455951,0.12973334 21.455951,0.12973334 L 19.206993,1.9818163 18.14866,4.7599413 Z"
         id="path2250" />
      <path
         style="fill:#ad8271;fill-opacity:1;stroke:#000000;stroke-width:0.264583px;stroke-linecap:butt;stroke-linejoin:miter;stroke-opacity:0"
         d="m 16.65089,-5.2384827 c 0,0 -0.467722,16.2767137 -3.928861,18.6153207 -3.4611409,2.33861 -6.6416469,3.554685 -6.6416469,3.554685 0,0 8.9802539,-0.374176 11.5059529,-3.835318 2.525697,-3.4611387 4.994096,-13.26412766 6.019356,-13.85943966 1.02526,-0.59531304 -4.101042,-5.52317804 -5.55625,-5.62239604 -1.455208,-0.09922 -1.398551,1.147148 -1.398551,1.147148 z"
         id="path2252"
         sodipodi:nodetypes="cscsssc" />
      <path
         id="path2254"
         style="fill:#413129;fill-opacity:1;stroke:#000000;stroke-width:0.264583px;stroke-linecap:butt;stroke-linejoin:miter;stroke-opacity:0"
         d="m 16.038195,-6.8527861 c -0.535543,0.011668 -0.535369,0.2356446 -0.535369,0.2356446 l 1.322917,0.9260416 c 0.857118,0.2380882 4.243078,4.2067067 5.615678,7.2024676 0.46065,0.3648178 1.027491,0.1626251 1.926497,1.0729952 -0.119668,-1.870447 -0.266133,-3.38067119 -0.266133,-3.38067119 0,0 -1.455209,-3.96875071 -5.027084,-5.29166661 -1.674315,-0.6201174 -2.563971,-0.7751061 -3.036506,-0.7648112 z"
         sodipodi:nodetypes="scccccss" />
      <path
         style="fill:#cb916e;fill-opacity:1;stroke:#000000;stroke-width:0.230413px;stroke-linecap:butt;stroke-linejoin:miter;stroke-opacity:0"
         d="m 28.41293,31.342509 c 0.319946,0.158744 1.716538,-3.885809 1.902987,-4.770614 0.26492,-1.257192 1.502358,-0.132517 1.402201,1.722722 -0.100158,1.855238 -0.200315,7.951022 -0.300471,9.938777 -0.100158,1.987756 -1.85291,7.619728 -3.054797,7.884763 -1.201886,0.265033 0.250394,-9.740002 0.150237,-11.330206 C 28.41293,33.197747 28.41293,31.342509 28.41293,31.342509 Z"
         id="path2256"
         sodipodi:nodetypes="csssssc" />
      <path
         style="fill:#413129;fill-opacity:1;stroke:#000000;stroke-width:0.264583px;stroke-linecap:butt;stroke-linejoin:miter;stroke-opacity:0"
         d="m 28.437477,30.682541 c 0,0 0.608038,7.717407 0.420951,8.418989 -0.18709,0.701583 0.656354,-4.396443 0.748354,-5.42557 0.10311,-1.153405 -0.179378,-4.824228 -0.5145,-4.069179 -0.246668,0.555756 -0.654809,1.07576 -0.654809,1.07576 z"
         id="path2258"
         sodipodi:nodetypes="cssscc" />
      <path
         style="fill:#413129;fill-opacity:1;stroke:#000000;stroke-width:0.264583px;stroke-linecap:butt;stroke-linejoin:miter;stroke-opacity:0"
         d="m 28.110071,28.71811 c 0,0 0.888672,1.917658 1.777344,2.478924 0.888669,0.561265 0.631422,0.397563 0.631422,0.397563 0,0 -0.818512,-1.286233 -1.005601,-3.531296 -0.187087,-2.245067 -0.841899,-2.993419 -0.841899,-2.993419 l -0.841899,2.057974 z"
         id="path2260"
         sodipodi:nodetypes="cscsccc" />
      <path
         style="fill:#413129;fill-opacity:1;stroke:#000000;stroke-width:0.295702px;stroke-linecap:butt;stroke-linejoin:miter;stroke-opacity:0"
         d="m 30.495788,31.643835 c 0,0 -0.670512,-0.771283 0.408128,-4.130381 1.078648,-3.359099 -0.746756,-2.766317 -0.746756,-2.766317 0,0 -1.825404,2.634587 -1.742433,2.898046 0.08298,0.263459 0.165947,1.514887 0.165947,1.514887 z"
         id="path2262"
         sodipodi:nodetypes="cscscc" />
      <path
         id="path2264"
         style="fill:#624233;fill-opacity:1;stroke:#000000;stroke-width:0.264583px;stroke-linecap:butt;stroke-linejoin:miter;stroke-opacity:0"
         d="m 24.893984,13.587309 c -0.124005,1.558663 -0.8968,12.619077 1.868104,15.875516 2.976562,3.505729 3.902604,2.182813 3.902604,2.182813 0,0 -3.704166,-2.71198 -3.439583,-6.813021 0.177977,-2.758649 1.580703,-5.152758 2.4815,-6.428031 -0.710358,-0.890879 -1.423865,-1.944984 -2.119249,-3.080433 -0.06714,1.503699 -0.178284,2.532663 -0.178284,2.532663 0,0 -0.48837,-1.462651 -2.515092,-4.269507 z" />
      <path
         style="opacity:1;fill:#1e0803;fill-opacity:1;stroke:#000000;stroke-width:0.264583px;stroke-linecap:butt;stroke-linejoin:miter;stroke-opacity:0"
         d="m -17.870012,34.058971 c 0.565769,0.155063 0.877175,-0.832849 2.761588,-1.389063 1.826381,-0.539085 2.315825,-0.890496 4.48138,-0.859896 2.1555421,0.03046 3.0398911,0.525511 2.6326211,0.08649 -0.59737,-0.643941 -0.236758,-0.526036 -1.447671,-0.798734 -2.1043771,-0.414066 -5.7371761,-0.06637 -7.2703661,1.059508 -0.588172,0.652538 -1.235994,1.247194 -1.15755,1.901695 z"
         id="path2230"
         sodipodi:nodetypes="sssscccs" />
    </g>
    <rect
       style="fill:none;fill-opacity:1;stroke:none;stroke-width:0.447129;stroke-linecap:round;stroke-linejoin:round;stroke-miterlimit:4;stroke-dasharray:none;stroke-opacity:1;paint-order:markers stroke fill"
       id="rect236162"
       width="87.511444"
       height="87.511444"
       x="53.206402"
       y="76.835342"
       inkscape:export-filename="C:\Users\jonas\Documents\Sciebo\DominionCompanion\logo.png"
       inkscape:export-xdpi="300"
       inkscape:export-ydpi="300" />
    <path
       style="fill:#693f31;fill-opacity:1;stroke:#000000;stroke-width:0.20485px;stroke-linecap:butt;stroke-linejoin:miter;stroke-opacity:0"
       d="m 88.36005,118.44664 c 0,0 3.890352,-10.48914 5.694318,-17.88243 1.803974,-7.393301 3.785969,-15.940776 4.273099,-16.329202 0.48712,-0.388428 0.91474,-0.567881 2.486863,-0.270844 1.57212,0.297043 17.71265,4.968241 19.20543,5.54391 1.49279,0.575666 2.50718,0.186766 2.02195,2.684256 -0.48523,2.497489 -8.8175,29.64427 -9.24418,30.87825 -0.42664,1.234 0.78749,1.73032 0.78749,1.73032 0,0 1.78555,-5.74184 3.09555,-9.28465 1.31001,-3.54282 6.73352,-23.912102 6.882,-24.698171 0.14856,-0.78605 0.0585,-1.2635 -1.59337,-1.809179 -1.65192,-0.545674 -20.15111,-6.189702 -20.77802,-6.36821 -0.62691,-0.178506 -3.293703,-0.862554 -3.799723,0.650062 -0.50597,1.512624 -5.968197,23.075748 -6.52403,24.498878 -0.555841,1.42312 -3.263915,10.14037 -3.173957,10.61781 0.08997,0.47745 0.66658,0.0392 0.66658,0.0392 z"
       id="path1052035"
       inkscape:export-filename="C:\Users\jonas\Documents\Sciebo\DominionCompanion\g133300.png"
       inkscape:export-xdpi="299.93079"
       inkscape:export-ydpi="299.93079" />
    <path
       id="path907"
       style="fill:#d79974;fill-opacity:1;stroke:none;stroke-width:0.181094px;stroke-linecap:butt;stroke-linejoin:miter;stroke-opacity:1"
       d="m 103.02234,109.04702 c -0.19658,-0.0207 -0.34897,-0.0302 -0.44306,-0.0252 -0.75272,0.0395 -3.511263,0.4704 -4.758623,0.95499 -1.24736,0.48459 -5.105101,2.34176 -5.105101,2.34176 0,0 -1.600551,1.21133 -2.189854,1.7108 -0.589296,0.49948 -2.964007,2.69699 -3.702731,2.88616 -0.738723,0.18918 -1.224302,0.59618 -1.487775,0.9682 -0.263481,0.37201 -0.368444,1.47907 -0.788391,2.11183 -0.419954,0.63274 -0.698184,1.3763 -1.639611,1.6961 -0.941419,0.3198 -2.103721,1.17219 -2.48926,1.77806 -0.385539,0.60587 -0.521705,1.46029 -0.370705,2.25653 0.151,0.79625 0.861154,1.59899 0.861154,1.59899 0,0 0.702272,0.6152 0.723161,1.45767 0.0209,0.84246 -0.468677,1.28001 0.126921,2.25532 0.595598,0.97533 3.002045,5.31483 3.451095,6.7232 0.449058,1.40836 2.084063,7.03948 2.084063,7.03948 0,0 1.342629,4.68943 1.696324,5.35505 0.353695,0.66562 -0.128841,4.33926 -0.128841,4.33926 l -0.142622,5.44013 c 2.056732,1.04282 8.825993,3.89465 15.292046,0.13151 l 0.0533,-11.57341 c 0,0 0.0335,-2.29795 0.54437,-3.41724 0.51085,-1.1193 1.41304,-1.87942 2.53267,-4.91476 1.11964,-3.03536 1.95615,-6.04312 1.87723,-7.17269 -0.0789,-1.12957 -0.39402,-1.60382 0.0345,-1.80002 0.42852,-0.19619 4.34331,-1.22819 4.9483,-1.53855 0.95101,-0.48787 1.16774,-0.85276 1.53214,-1.83368 0.36508,-0.98278 0.17579,-1.93795 -0.61019,-2.37674 -0.78599,-0.43878 -1.24677,-0.75641 -1.37788,-1.30044 -0.13111,-0.54402 -0.6122,-1.4612 -1.13262,-1.70113 -0.52042,-0.23993 -0.42102,-0.3322 -0.42102,-0.3322 0,0 0.89296,-1.89738 0.27303,-3.11738 -0.61993,-1.22 -0.80991,-1.46328 -2.40542,-1.72536 -1.59551,-0.26208 -4.06392,-0.93958 -4.06392,-0.93958 0,0 -1.82302,-0.37803 0.98752,-0.51651 2.81055,-0.13849 3.36346,-1.23622 3.36346,-1.23622 0,0 0.94268,-1.04997 1.00817,-2.11974 0.0655,-1.06977 -1.48581,-2.22806 -2.40959,-2.40759 -0.80831,-0.15708 -4.3461,-0.8518 -5.72219,-0.99656 z" />
    <path
       style="fill:#c1805a;fill-opacity:1;stroke:#000000;stroke-width:0.181094px;stroke-linecap:butt;stroke-linejoin:miter;stroke-opacity:0"
       d="m 102.43113,122.84334 c 0,0 0.48602,0.76933 0.36887,1.72254 -0.11716,0.95323 0.5485,0.26095 0.5485,0.26095 0,0 0.3859,-1.56528 0.86198,-1.7648 0.47608,-0.19952 -0.95429,-0.63336 -0.95429,-0.63336 z"
       id="path377376" />
    <path
       style="fill:#a87258;fill-opacity:1;stroke:#000000;stroke-width:0.181094px;stroke-linecap:butt;stroke-linejoin:miter;stroke-opacity:0"
       d="m 94.960118,125.87919 c 0,0 4.184089,-2.65871 8.307582,-1.28091 4.12349,1.37779 6.11693,2.36938 7.93952,2.22009 1.82257,-0.14928 0.53755,0.68822 0.53755,0.68822 l -6.64079,-0.13182 -5.469793,-0.54783 -4.266618,-0.21331 z"
       id="path150865" />
    <path
       style="fill:#794a39;fill-opacity:1;stroke:#000000;stroke-width:0.181094px;stroke-linecap:butt;stroke-linejoin:miter;stroke-opacity:0"
       d="m 84.956044,129.31318 c 0,0 7.790373,2.22614 10.905783,1.12521 3.03921,-1.07402 5.930483,-2.54172 5.981233,-2.51029 0.5411,0.33519 -0.13481,-0.006 -0.13481,-0.006 l -6.163482,1.04672 -3.510262,0.71955 z"
       id="path34370"
       sodipodi:nodetypes="csscccc" />
    <path
       style="fill:#c1805a;fill-opacity:1;stroke:#000000;stroke-width:0.181094px;stroke-linecap:butt;stroke-linejoin:miter;stroke-opacity:0"
       d="m 90.835622,125.99222 c -1.664937,2.11442 -11.922961,7.54776 -0.809822,-2.27706 1.591887,-1.40734 3.556136,-2.61147 4.187179,-1.16518 0.631034,1.44628 0.688266,2.75983 0.03771,2.99095 -0.650553,0.23112 -3.41507,0.45129 -3.41507,0.45129 z"
       id="path205770"
       sodipodi:nodetypes="csssc" />
    <path
       style="fill:#a4654b;fill-opacity:1;stroke:none;stroke-width:0.181094px;stroke-linecap:butt;stroke-linejoin:miter;stroke-opacity:1"
       d="m 84.956044,129.31318 c 0,0 5.565934,-3.97833 9.215521,-4.32165 3.649582,-0.34331 9.859755,1.38777 11.961275,1.47008 2.10153,0.0823 2.69058,0.12173 4.87903,-0.32419 2.18845,-0.4459 2.65445,-1.64243 2.65445,-1.64243 0,0 -0.48047,1.40371 -3.56194,2.1358 -3.08147,0.73209 -7.10155,1.31582 -7.10155,1.31582 l -11.477657,1.93279 z"
       id="path135672"
       sodipodi:nodetypes="cssscsccc" />
    <path
       style="fill:#c1805a;fill-opacity:1;stroke:#000000;stroke-width:0.181094px;stroke-linecap:butt;stroke-linejoin:miter;stroke-opacity:0"
       d="m 106.17393,127.81892 c 0,0 1.12877,0.52578 1.29031,1.8358 0.16153,1.31002 -0.11612,1.46942 -0.11612,1.46942 l 1.51238,-0.23343 c 0,0 -0.50821,-1.90095 -0.109,-2.78725 0.39922,-0.88631 -1.27984,-0.60885 -1.27984,-0.60885 z"
       id="path372234"
       sodipodi:nodetypes="csccscc" />
    <path
       style="fill:#794a39;fill-opacity:1;stroke:#000000;stroke-width:0.181094px;stroke-linecap:butt;stroke-linejoin:miter;stroke-opacity:0"
       d="m 103.09749,127.89226 c -1.57096,0.22966 6.68969,0.30059 7.87395,-0.35204 1.09373,-0.60274 1.64185,-0.99672 2.20455,-1.8297 0.54908,-0.81283 0.50534,-1.15868 0.50534,-1.15868 0,0 -0.78208,0.9047 -1.68994,1.22206 -0.90786,0.31734 -5.40868,1.84483 -8.83608,1.8902 -3.427393,0.0454 -0.0578,0.22816 -0.0578,0.22816 z"
       id="path38282"
       sodipodi:nodetypes="csscsscc" />
    <path
       style="fill:#290c08;fill-opacity:1;stroke:#000000;stroke-width:0.181094px;stroke-linecap:butt;stroke-linejoin:miter;stroke-opacity:0"
       d="m 84.956044,129.31318 c 0,0 7.557552,0.57773 9.613556,-0.40138 2.056007,-0.9791 0.420156,-1.62677 3.198047,-1.32266 2.778153,0.30414 7.660533,-0.30222 5.187853,0.38465 -2.52904,0.70252 -8.518743,1.52301 -9.808538,1.77499 -1.229575,0.24021 -7.670506,0.14081 -8.190918,-0.4356 z"
       id="path10121"
       sodipodi:nodetypes="cssssc" />
    <path
       style="fill:#a87258;fill-opacity:1;stroke:#000000;stroke-width:0.181094px;stroke-linecap:butt;stroke-linejoin:miter;stroke-opacity:0"
       d="m 105.95077,130.09063 c 0,0 3.45179,0.90816 5.05166,-0.65492 1.59987,-1.56307 3.54414,-2.88585 4.36224,-2.74131 0.81809,0.14454 -0.0807,1.55182 -0.0807,1.55182 l -4.00332,2.14752 -3.5462,0.57599 z"
       id="path51868"
       sodipodi:nodetypes="csscccc" />
    <path
       style="fill:#a87258;fill-opacity:1;stroke:#000000;stroke-width:0.181094px;stroke-linecap:butt;stroke-linejoin:miter;stroke-opacity:0"
       d="m 91.536663,135.25729 c 0,0 2.634747,-3.72015 7.530504,-4.82936 4.895773,-1.1092 6.854283,-0.33966 8.796203,-0.19432 1.9419,0.14535 0.77193,1.05921 0.77193,1.05921 l -8.04856,2.46372 -6.437752,1.75959 z"
       id="path44577" />
    <path
       style="fill:#a87258;fill-opacity:1;stroke:#000000;stroke-width:0.181094px;stroke-linecap:butt;stroke-linejoin:miter;stroke-opacity:0"
       d="m 87.6148,139.47172 c 0,0 -2.092486,-1.86988 -1.637529,-2.68483 0.454958,-0.81495 0.244249,-0.9376 0.850803,-1.41138 0.606545,-0.47378 1.020143,-0.16491 3.556577,-0.59501 2.536427,-0.43011 -0.402596,1.17617 -0.402596,1.17617 z"
       id="path268636" />
    <path
       style="fill:#724c37;fill-opacity:1;stroke:#000000;stroke-width:0.181094px;stroke-linecap:butt;stroke-linejoin:miter;stroke-opacity:0"
       d="m 93.495291,152.13637 c 0,0 -1.338866,1.01599 -2.438655,-1.17227 -1.099774,-2.18826 -4.807266,-13.53154 -3.468493,-14.30022 1.338773,-0.76868 10.747844,-6.45591 14.470047,-2.82548 3.7222,3.63044 2.38139,14.5399 1.00495,15.61503 -1.37643,1.07513 -9.567849,2.68294 -9.567849,2.68294 z"
       id="path904" />
    <path
       style="fill:#a87258;fill-opacity:1;stroke:#000000;stroke-width:0.181094px;stroke-linecap:butt;stroke-linejoin:miter;stroke-opacity:0"
       d="m 90.549843,132.16791 c 0,0 -5.309662,-0.39629 -6.356431,-1.58933 -1.046777,-1.19304 -1.478237,-0.57893 -1.478237,-0.57893 0,0 0.158339,-0.23858 0,0 -0.158339,0.23857 -0.472912,1.46823 -0.302781,1.67508 0.700143,0.8513 2.69513,3.97783 2.469222,4.38731 -0.173111,0.31378 0.548455,-1.31796 0.548455,-1.31796 l 0.73174,-0.90189 1.372499,-0.66992 z"
       id="path273316"
       sodipodi:nodetypes="cscssscccc" />
    <path
       style="fill:#c1805a;fill-opacity:1;stroke:#000000;stroke-width:0.181094px;stroke-linecap:butt;stroke-linejoin:miter;stroke-opacity:0"
       d="m 90.549843,132.16791 c 0,0 -6.070497,-1.05518 -6.113135,-2.23881 l -0.01866,-0.51848 c 0,0 -1.523677,0.15563 -1.702851,0.58903 -0.786447,1.90226 5.922959,2.4909 7.834668,2.16826 z"
       id="path284874"
       sodipodi:nodetypes="cscsc" />
    <path
       style="fill:#a4654b;fill-opacity:1;stroke:#000000;stroke-width:0.181094px;stroke-linecap:butt;stroke-linejoin:miter;stroke-opacity:0"
       d="m 102.09707,149.30926 c 0,0 -2.368023,3.06856 -6.633264,-0.19311 -4.265245,-3.26167 -7.771056,-9.66518 -6.624712,-10.89302 1.146345,-1.22783 5.460545,-3.93278 7.481033,-4.6799 2.02048,-0.7471 10.861523,-3.33119 12.569063,-3.55683 1.70753,-0.22564 4.94524,-1.25865 5.58621,-2.42418 0.64096,-1.16552 1.18127,-1.00579 1.27422,-0.49665 0.093,0.50915 -0.19208,1.56288 -0.51308,1.89672 -0.321,0.33383 -0.60706,0.88972 -2.95711,1.53411 -2.35004,0.6444 -10.75638,3.40531 -10.75638,3.40531 l -5.046083,5.97871 3.44816,7.02267 z"
       id="path204804" />
    <path
       style="fill:#693f31;fill-opacity:1;stroke:#000000;stroke-width:0.181094px;stroke-linecap:butt;stroke-linejoin:miter;stroke-opacity:0"
       d="m 108.98084,131.48694 c 0,0 -18.467425,5.26217 -18.562269,7.55247 -0.09484,2.2903 4.19472,9.91 8.087096,10.63724 3.892373,0.72725 7.754273,-5.89061 7.967233,-6.61101 0.21297,-0.72041 3.99386,-10.63396 2.50794,-11.5787 z"
       id="path167970"
       sodipodi:nodetypes="csssc" />
    <path
       style="fill:#d79974;fill-opacity:1;stroke:none;stroke-width:0.20485px;stroke-linecap:butt;stroke-linejoin:miter;stroke-opacity:1"
       d="m 88.718484,159.93532 c 0,0 -1.435677,23.12892 -0.494142,25.95352 0.941535,2.82459 16.295758,1.37608 16.295758,1.37608 0,0 -0.18805,-23.62196 -0.38373,-27.27384 -0.19568,-3.65188 -15.417886,-0.0557 -15.417886,-0.0557"
       id="path39209" />
    <path
       id="path75878"
       style="fill:#a87258;fill-opacity:1;stroke:#000000;stroke-width:0.181094px;stroke-linecap:butt;stroke-linejoin:miter;stroke-opacity:0"
       d="m 96.777917,152.51859 c -1.31226,-0.16455 -4.181036,-0.42849 -4.772244,-0.48248 1.630382,0.46035 4.659374,6.167 4.934484,9.91677 1.30003,-0.002 2.67277,-0.16903 4.068103,-0.58478 -0.55454,-1.87386 -1.848433,-6.28418 -1.933213,-6.47499 -0.10339,-0.23267 -1.49376,-2.16321 -1.6998,-2.27652 -0.0386,-0.0212 -0.26113,-0.0558 -0.59733,-0.098 z m -4.772244,-0.48248 c -0.09687,-0.0273 -0.1891,-0.0365 -0.275211,-0.0252 0,0 0.210059,0.0194 0.275211,0.0252 z" />
    <path
       id="path52472"
       style="fill:#a87258;fill-opacity:1;stroke:#000000;stroke-width:0.20485px;stroke-linecap:butt;stroke-linejoin:miter;stroke-opacity:0"
       d="m 102.51869,159.71248 -5.578563,2.24055 c 0,0 2.0705,18.47495 6.986913,17.4507 0.18193,-0.0379 0.35483,-0.0908 0.51973,-0.15684 -0.0585,-5.80548 -0.14574,-13.26297 -0.24046,-17.13702 z" />
    <path
       id="path66210"
       style="fill:#724c37;fill-opacity:1;stroke:#000000;stroke-width:0.181094px;stroke-linecap:butt;stroke-linejoin:miter;stroke-opacity:0"
       d="m 102.65275,151.19761 -10.396712,0.834 c 0,0 5.235469,1.78701 6.273659,6.22588 0.35868,1.53358 0.59601,2.68428 0.83466,3.49336 1.356623,-0.22946 2.754803,-0.67137 4.144893,-1.40673 z" />
    <path
       id="path48746"
       style="fill:#724c37;fill-opacity:1;stroke:#000000;stroke-width:0.20485px;stroke-linecap:butt;stroke-linejoin:miter;stroke-opacity:0"
       d="m 102.84718,158.69262 c -0.58493,0.13547 -1.11904,0.32521 -1.2243,0.39891 -0.18106,0.12674 -1.12238,1.23099 -1.1767,1.32152 -0.0543,0.0905 -1.081863,1.33793 -1.081863,1.33793 0,0 2.502673,11.25732 5.000433,10.18651 -0.0661,-5.34741 -0.1463,-10.41332 -0.22846,-11.94654 -0.0337,-0.63029 -0.51563,-1.0441 -1.28911,-1.29833 z" />
    <path
       id="path207327"
       style="fill:#533127;fill-opacity:1;stroke:#000000;stroke-width:0.181094px;stroke-linecap:butt;stroke-linejoin:miter;stroke-opacity:0"
       d="m 108.07134,138.16042 c 0,0 -3.94359,4.24369 -5.33097,7.43277 -1.38738,3.1891 -1.50123,3.61068 -3.138923,4.28042 -1.63769,0.66973 -6.952328,1.13651 -7.871666,1.02352 -0.919338,-0.11299 -1.344394,1.82559 1.949128,1.85708 3.293518,0.0315 5.605088,-0.80421 6.755541,-0.0406 1.15046,0.76354 1.15784,0.70203 1.55981,2.49344 0.35994,1.60406 0.1583,4.53424 0.49797,5.62401 0.54847,-0.23529 1.09745,-0.51427 1.64414,-0.83993 -0.0288,-3.25372 -0.0836,-12.09391 0.62984,-13.46075 0.86313,-1.65362 2.0397,-3.62067 2.6109,-5.6731 0.57121,-2.05244 0.69423,-2.6968 0.69423,-2.6968 z" />
    <path
       style="fill:#270a05;fill-opacity:1;stroke:#000000;stroke-width:0.181094px;stroke-linecap:butt;stroke-linejoin:miter;stroke-opacity:0"
       d="m 103.52006,133.68156 c 0,0 -5.181843,1.66508 -6.313123,2.77035 -1.13128,1.10525 -5.629348,3.7876 -5.629348,3.7876 0.166113,0.21267 3.563283,-1.6481 6.252288,-3.49226 2.936903,-2.01418 5.734883,-3.0556 5.690183,-3.06569 z"
       id="path10127"
       sodipodi:nodetypes="cscsc" />
    <path
       style="fill:#270a05;fill-opacity:1;stroke:#000000;stroke-width:0.181094px;stroke-linecap:butt;stroke-linejoin:miter;stroke-opacity:0"
       d="m 101.67626,142.10282 c -0.30512,-1.34418 -2.519403,-4.79304 -3.385493,-5.7951 -0.55641,-0.64376 -0.58958,-0.078 -0.69883,0.105 -0.32365,-0.13219 0.81741,0.49908 1.85399,1.94664 0.956263,1.33539 2.063633,2.93868 2.230333,3.74346 z"
       id="path10131"
       sodipodi:nodetypes="cscsc" />
    <path
       style="fill:#c1805a;fill-opacity:1;stroke:#000000;stroke-width:0.181094px;stroke-linecap:butt;stroke-linejoin:miter;stroke-opacity:0"
       d="m 90.159557,115.28327 c 0,0 2.841476,-2.70692 3.728389,-2.8716 0.886905,-0.16468 1.369402,-0.37907 1.657086,0.24928 0.287691,0.62834 0.918295,1.43567 0.683315,1.86294 -0.23496,0.42726 -3.278777,0.32685 -3.278777,0.32685 z"
       id="path370229" />
    <path
       style="fill:#a87258;fill-opacity:1;stroke:#000000;stroke-width:0.181094px;stroke-linecap:butt;stroke-linejoin:miter;stroke-opacity:0"
       d="m 87.698379,116.4848 c 0,0 3.292973,-1.33701 5.477051,-1.2621 2.184071,0.0749 3.407107,0.0962 4.359277,-0.30284 0.95216,-0.39904 -2.514601,-0.53483 -2.514601,-0.53483 0,0 -3.87592,-0.21833 -7.321727,2.09977 z"
       id="path337695" />
    <path
       style="fill:#c1805a;fill-opacity:1;stroke:#000000;stroke-width:0.181094px;stroke-linecap:butt;stroke-linejoin:miter;stroke-opacity:0"
       d="m 101.66357,116.4917 c 0,0 0.76791,2.67471 -0.49205,4.00355 -1.259963,1.32883 1.51842,0.76719 1.51842,0.76719 l 2.32573,-0.55277 -1.7403,-0.53642 c 0,0 0.25663,-2.6133 0.96245,-3.10713 0.70577,-0.49383 -0.76365,-0.60992 -0.76365,-0.60992 z"
       id="path380585" />
    <path
       style="fill:#a87258;fill-opacity:1;stroke:#000000;stroke-width:0.181094px;stroke-linecap:butt;stroke-linejoin:miter;stroke-opacity:0"
       d="m 97.262627,115.01591 c 0,0 3.102053,1.11109 4.040923,1.63701 0.93888,0.52592 2.59045,0.82013 3.36465,0.45913 0.77419,-0.36099 1.08799,-0.68733 0.53695,-1.02874 -0.55101,-0.34141 -4.89872,-0.96699 -4.89872,-0.96699 z"
       id="path350216" />
    <path
       style="fill:#290c08;fill-opacity:1;stroke:#000000;stroke-width:0.181094px;stroke-linecap:butt;stroke-linejoin:miter;stroke-opacity:0"
       d="m 105.27559,116.01655 c -0.84052,-0.0516 -10.451916,-1.69996 -10.459774,-1.63603 -0.518933,0.39917 11.599684,2.62617 10.459774,1.63603 z"
       id="path10125"
       sodipodi:nodetypes="ccc" />
    <path
       style="fill:#a4654b;fill-opacity:1;stroke:none;stroke-width:0.181094px;stroke-linecap:butt;stroke-linejoin:miter;stroke-opacity:1"
       d="m 94.815816,114.38052 c -0.0624,-0.12413 9.033534,-1.78269 11.864194,-0.8415 2.29201,0.76208 2.69614,-0.58044 2.69614,-0.58044 0,0 0.93007,-2.01933 1.41055,-1.45436 0.48046,0.56496 0.48918,0.85199 0.41122,1.12836 -0.078,0.27637 -0.29066,2.1859 -1.96304,2.72823 -1.67238,0.54233 -3.34409,0.80311 -4.29594,0.70168 -0.95186,-0.10145 -10.123124,-1.68197 -10.123124,-1.68197 z"
       id="path178063"
       sodipodi:nodetypes="cscssssc" />
    <path
       style="fill:#d2816c;fill-opacity:1;stroke:none;stroke-width:0.20896px;stroke-linecap:butt;stroke-linejoin:miter;stroke-opacity:1"
       d="m 105.51306,111.31344 c 0,0 -0.76658,2.52002 1.84299,2.76461 2.60957,0.24458 1.81909,0.27433 2.50662,-1.18941 0.68751,-1.46374 1.22137,-1.67732 -0.0196,-1.90598 -1.24095,-0.22866 -3.02666,-0.98113 -3.59741,-0.46751 -0.57074,0.51362 -0.71112,0.62327 -0.73263,0.79829 z"
       id="path19540" />
    <path
       style="fill:#a87258;fill-opacity:1;stroke:#000000;stroke-width:0.181094px;stroke-linecap:butt;stroke-linejoin:miter;stroke-opacity:0"
       d="m 94.225963,120.22255 c 0,0 7.700777,3.46028 10.261587,3.02714 2.56082,-0.43314 5.43177,-0.24337 6.30919,-0.22352 0.87741,0.0199 -3.60588,-0.87777 -4.11528,-1.02836 -0.5094,-0.15059 -6.13268,-0.9297 -6.13268,-0.9297 z"
       id="path177235"
       sodipodi:nodetypes="cssscc" />
    <path
       style="fill:#c1805a;fill-opacity:1;stroke:#000000;stroke-width:0.181094px;stroke-linecap:butt;stroke-linejoin:miter;stroke-opacity:0"
       d="m 85.594178,124.63476 c 0,0 2.397188,-6.92673 3.79972,-7.5754 1.402539,-0.64868 2.299742,-1.26824 3.226822,-1.01746 0.927072,0.25079 0.35145,1.59408 0.628844,2.6773 0.277401,1.08322 -1.602866,1.53634 -1.602866,1.53634 l -1.676914,1.02548 z"
       id="path344352" />
    <path
       style="fill:#c1805a;fill-opacity:1;stroke:#000000;stroke-width:0.181094px;stroke-linecap:butt;stroke-linejoin:miter;stroke-opacity:0"
       d="m 92.330489,119.47316 c 0,0 1.392738,-2.40916 4.149818,-1.74776 2.75706,0.6614 5.437103,2.47447 8.242113,3.27077 2.805,0.79631 -2.62678,0.90282 -2.62678,0.90282 0,0 -5.847513,-1.23475 -6.221,-1.34516 -0.373477,-0.11041 -3.544151,-1.08067 -3.544151,-1.08067 z"
       id="path367588"
       sodipodi:nodetypes="csscsc" />
    <path
       style="fill:#a87258;fill-opacity:1;stroke:#000000;stroke-width:0.181094px;stroke-linecap:butt;stroke-linejoin:miter;stroke-opacity:0"
       d="m 94.239651,119.57072 c 0,0 4.472026,-0.44331 7.653339,-0.29096 4.73976,0.22698 3.82503,1.65016 5.57426,1.77983 1.76314,0.1307 -0.1388,0.75839 -0.33514,0.8711 -0.1963,0.11271 -7.379713,-0.45086 -7.553923,-0.51788 -0.17422,-0.067 -5.338536,-1.84209 -5.338536,-1.84209 z"
       id="path364870"
       sodipodi:nodetypes="cssssc" />
    <path
       style="fill:#a4654b;fill-opacity:1;stroke:#000000;stroke-width:0.181094px;stroke-linecap:butt;stroke-linejoin:miter;stroke-opacity:0"
       d="m 85.594178,124.63476 c 0,0 5.165057,-6.0844 7.111243,-5.72078 1.946187,0.36363 8.750319,1.69759 8.750319,1.69759 0,0 2.86552,0.47662 4.54189,-0.002 1.67637,-0.47833 3.20107,-0.22872 3.20107,-0.22872 l 1.62912,-1.10629 c 0,0 0.50282,-1.30693 1.00169,-0.81011 0.49887,0.49682 0.73701,0.83716 0.72623,1.17802 -0.0108,0.34085 -0.1712,2.40533 -0.4696,2.5553 -0.2984,0.14997 -1.92376,1.22561 -3.63232,0.95341 -1.70856,-0.2722 -13.462554,-2.58782 -15.468999,-2.46113 -2.006445,0.12668 -7.390643,3.94442 -7.390643,3.94442 z"
       id="path201972" />
    <path
       style="fill:#d2816c;fill-opacity:1;stroke:none;stroke-width:0.181094px;stroke-linecap:butt;stroke-linejoin:miter;stroke-opacity:1"
       d="m 106.67759,118.80788 c 0,0 -0.51255,0.94883 0.62065,1.57203 1.1332,0.62318 2.59301,0.73661 3.00473,0.78721 0.41171,0.0506 0.72972,-1.99995 0.89931,-2.48502 0.16961,-0.48507 0.33993,-0.61812 -0.1558,-0.70104 -0.49572,-0.0829 -3.90114,-0.83141 -4.36889,0.82682 z"
       id="path19542" />
    <path
       style="fill:#794a39;fill-opacity:1;stroke:#000000;stroke-width:0.181094px;stroke-linecap:butt;stroke-linejoin:miter;stroke-opacity:0"
       d="m 99.175397,121.50421 c 0,0 8.368953,1.34753 10.203673,0.73716 1.83472,-0.61036 2.57679,-0.56315 2.65887,-0.15713 0.0821,0.40602 -0.25748,0.44954 -0.88518,0.62125 -0.62769,0.17172 0.21067,0.94356 -2.54547,0.58927 -2.75612,-0.35428 -9.421303,-1.73055 -9.431893,-1.79055 z"
       id="path94160"
       sodipodi:nodetypes="cssssc" />
    <path
       style="fill:#270a05;fill-opacity:1;stroke:#000000;stroke-width:0.181094px;stroke-linecap:butt;stroke-linejoin:miter;stroke-opacity:0"
       d="m 108.88635,123.15553 c -0.34297,0.0412 -1.79638,-0.1976 -3.70031,-0.54277 -4.04797,-0.73389 -10.132448,-1.94872 -11.910989,-1.97626 -2.585102,-0.04 -7.680873,3.99826 -7.680873,3.99826 0,0 5.654964,-3.55721 8.185677,-3.4523 2.846582,0.11801 15.893055,2.85371 15.106495,1.97307 z"
       id="path10123"
       sodipodi:nodetypes="csscsc" />
    <path
       style="fill:#d2816c;fill-opacity:1;stroke:none;stroke-width:0.181094px;stroke-linecap:butt;stroke-linejoin:miter;stroke-opacity:1"
       d="m 108.19091,123.85505 c 0,0 -0.15447,1.2568 1.25632,1.23222 1.41078,-0.0245 2.86829,0.28654 2.8425,-0.39852 -0.0258,-0.68506 0.11548,-2.36593 -0.29702,-2.29997 -0.41251,0.066 -1.59857,0.60454 -2.3616,0.61186 -0.76303,0.007 -1.42932,0.15291 -1.4402,0.85441 z"
       id="path19544" />
    <path
       style="fill:#d2816c;fill-opacity:1;stroke:none;stroke-width:0.181094px;stroke-linecap:butt;stroke-linejoin:miter;stroke-opacity:1"
       d="m 110.95611,127.62977 c 0,0 0.90921,0.6912 2.12443,0.37863 1.21521,-0.31257 1.41193,-0.12342 1.38252,-0.59996 -0.0294,-0.47652 0.0378,-2.008 -0.36154,-1.9801 -0.39936,0.0279 -0.9012,0.26318 -0.9012,0.26318 0,0 -1.36977,1.41727 -1.91938,1.66167 -0.48177,0.21423 -0.32483,0.27658 -0.32483,0.27658 z"
       id="path19548"
       sodipodi:nodetypes="cssscsc" />
    <path
       style="fill:#f0a48b;fill-opacity:1;stroke:none;stroke-width:0.193274px;stroke-linecap:butt;stroke-linejoin:miter;stroke-opacity:1"
       d="m 109.67839,110.97958 c 0,0 -0.42023,0.85304 -0.54895,1.36011 -0.12866,0.50708 -0.41198,1.39355 -0.34816,1.61719 0.0638,0.22364 -0.0534,0.36693 0.25301,0.30499 0.30641,-0.0619 0.50204,0.1696 0.64697,-0.40188 0.14496,-0.57147 1.24779,-2.3864 1.04412,-2.55254 -0.20368,-0.16613 -0.94914,-0.44864 -1.04699,-0.32787 z"
       id="path66696" />
    <path
       style="fill:#a4654b;fill-opacity:1;stroke:#000000;stroke-width:0.181094px;stroke-linecap:butt;stroke-linejoin:miter;stroke-opacity:0"
       d="m 110.23454,121.18304 c 0,0 -2.83094,-0.34794 -3.21854,-1.09119 -0.24014,-0.37419 -0.36987,-1.36357 -0.55824,-1.11773 -0.0377,0.1208 0.13782,1.47658 0.75311,1.66624 0.61529,0.18966 3.04137,0.95538 3.02367,0.54268 z"
       id="path352346"
       sodipodi:nodetypes="cccsc" />
    <path
       style="fill:#f0a48b;fill-opacity:1;stroke:none;stroke-width:0.181094px;stroke-linecap:butt;stroke-linejoin:miter;stroke-opacity:1"
       d="m 110.83467,117.95362 c 0,0 -0.40385,1.00802 -0.48792,1.5654 -0.084,0.55739 -0.49142,1.7205 -0.18593,1.76582 0.30551,0.0453 0.53736,0.12048 0.5445,-0.1275 0.007,-0.24798 0.30875,-1.62629 0.42775,-1.96163 0.11897,-0.33533 0.58558,-1.09456 0.34513,-1.16299 -0.24046,-0.0684 -0.51437,-0.11766 -0.51437,-0.11766 0,0 -0.0833,-0.018 -0.12917,0.0386 z"
       id="path66815" />
    <path
       style="fill:#f0a48b;fill-opacity:1;stroke:none;stroke-width:0.181094px;stroke-linecap:butt;stroke-linejoin:miter;stroke-opacity:1"
       d="m 111.74498,122.50609 c 0,0 -0.16781,0.79594 -0.0675,1.62484 0.10033,0.82891 -0.17766,1.12914 0.1745,1.048 0.35216,-0.0811 0.60712,0.0591 0.58957,-0.55747 -0.0176,-0.61653 -0.0935,-2.30056 -0.30415,-2.29534 -0.21062,0.005 -0.34401,-0.0241 -0.36015,0.044 l -0.0323,0.13602 z"
       id="path66930"
       sodipodi:nodetypes="cssssccc" />
    <path
       style="fill:#f0a48b;fill-opacity:1;stroke:none;stroke-width:0.175152px;stroke-linecap:butt;stroke-linejoin:miter;stroke-opacity:1"
       d="m 113.69244,125.65495 c -0.009,0.18868 0.16846,2.29646 0.40791,2.19381 0.34098,-0.14617 0.48424,-0.008 0.47336,-0.36303 -0.019,-0.3504 -0.19639,-1.28163 -0.18133,-1.56499 0.007,-0.12781 0.003,-0.62235 -0.14997,-0.57428 -0.26462,0.083 -0.35762,0.0499 -0.50231,0.15054 -0.0564,0.0908 -0.0477,0.15794 -0.0477,0.15794 z"
       id="path66932"
       sodipodi:nodetypes="cscssccc" />
    <path
       style="fill:#724c37;fill-opacity:1;stroke:none;stroke-width:0.181094px;stroke-linecap:butt;stroke-linejoin:miter;stroke-opacity:1"
       d="m 84.852141,136.22741 c 0,0 -0.379841,-2.19343 0.798688,-2.67073 1.17853,-0.47731 4.899014,-1.38877 4.899014,-1.38877 0,0 -4.087194,1.36411 -4.536755,2.49094 -0.449569,1.12683 -1.160947,1.56856 -1.160947,1.56856 z"
       id="path149416"
       sodipodi:nodetypes="cscsc" />
    <path
       style="fill:#a87258;fill-opacity:1;stroke:#000000;stroke-width:0.181094px;stroke-linecap:butt;stroke-linejoin:miter;stroke-opacity:0"
       d="m 92.815681,124.09136 c 0,0 -4.254971,1.71679 -2.736784,2.52553 1.518195,0.80874 2.790198,1.0895 3.807462,0.40574 1.017263,-0.68377 2.479638,-0.93954 1.734587,-1.96434 -0.745065,-1.02479 -2.476222,-1.11313 -2.805265,-0.96693 z"
       id="path54206" />
    <path
       style="fill:#a87258;fill-opacity:1;stroke:#000000;stroke-width:0.181094px;stroke-linecap:butt;stroke-linejoin:miter;stroke-opacity:0"
       d="m 90.877121,153.73457 c 0,0 -2.508515,2.15528 -0.329508,3.03899 2.179007,0.88371 2.997338,-1.47931 2.703902,-1.95529 -0.293444,-0.476 -2.12574,-1.31709 -2.374387,-1.0837 z"
       id="path70537" />
    <path
       style="fill:#a4654b;fill-opacity:1;stroke:#000000;stroke-width:0.181094px;stroke-linecap:butt;stroke-linejoin:miter;stroke-opacity:0"
       d="m 111.156,127.70153 c 0,0 0.69361,0.55564 1.71661,0.33141 1.02299,-0.22423 1.49195,-0.30658 1.0625,-0.10272 -0.42945,0.20386 -1.51994,0.66087 -2.31735,0.25179 -0.7974,-0.40908 -0.73944,-0.49905 -0.59966,-0.49743 0.13979,0.002 0.1379,0.017 0.1379,0.017 z"
       id="path84325"
       sodipodi:nodetypes="cssssc" />
    <path
       style="fill:#a4654b;fill-opacity:1;stroke:#000000;stroke-width:0.184004px;stroke-linecap:butt;stroke-linejoin:miter;stroke-opacity:0"
       d="m 108.16872,124.43152 c 0.18609,-0.15597 0.12843,0.45432 0.84864,0.53476 0.83721,0.0935 2.54702,0.0468 2.75801,0.14854 0.20861,0.10058 0.12634,0.18171 -0.72384,0.18897 -0.85017,0.007 -2.3116,-0.0645 -2.60361,-0.23451 -0.292,-0.16999 -0.34256,-0.6679 -0.2792,-0.63776 z"
       id="path145238"
       sodipodi:nodetypes="cssssc" />
    <path
       style="fill:#724c37;fill-opacity:1;stroke:#000000;stroke-width:0.181094px;stroke-linecap:butt;stroke-linejoin:miter;stroke-opacity:0"
       d="m 82.382725,131.77544 c 0.133378,0.0597 -0.216121,-1.57138 0.928613,-1.95094 1.288464,-0.42722 1.107532,-0.40971 1.106688,-0.41388 0,0 -1.976025,0.10029 -2.07759,0.7477 -0.101564,0.64741 0.04227,1.61712 0.04227,1.61712 z"
       id="path264134"
       sodipodi:nodetypes="cscsc" />
    <path
       style="fill:#c1805a;fill-opacity:1;stroke:#000000;stroke-width:0.181094px;stroke-linecap:butt;stroke-linejoin:miter;stroke-opacity:0"
       d="m 81.80622,127.39351 c 0,0 -1.331372,-1.60048 -0.800307,-2.76679 0.531066,-1.16632 1.656838,-1.23322 1.656838,-1.23322 0,0 1.213262,0.14911 1.975151,0.63047 0.761896,0.48137 0.628224,1.01231 0.547014,1.11636 -0.08122,0.10406 -2.062012,0.81851 -2.062012,0.81851 z"
       id="path333240" />
    <path
       style="fill:#724c37;fill-opacity:1;stroke:#000000;stroke-width:0.181094px;stroke-linecap:butt;stroke-linejoin:miter;stroke-opacity:0"
       d="m 81.801071,127.62095 c 0,0 0.05745,-1.93576 0.995933,-2.22359 0.938493,-0.28783 1.973107,-0.1768 2.304248,-0.378 0.331142,-0.20121 0.197826,0.15055 -0.02214,0.36544 -0.21993,0.21487 -2.886761,1.30805 -3.278069,2.23615 z"
       id="path328752"
       sodipodi:nodetypes="csssc" />
    <path
       style="fill:#a87258;fill-opacity:1;stroke:#000000;stroke-width:0.181094px;stroke-linecap:butt;stroke-linejoin:miter;stroke-opacity:0"
       d="m 90.518548,120.52741 c 0,0 -1.978673,-0.97301 -0.941891,-1.98594 1.036774,-1.01293 1.512992,-1.54739 2.305262,-1.31317 0.79227,0.23422 1.764279,0.49052 1.991223,1.61316 0.226937,1.12263 -3.169334,1.66311 -3.354594,1.68595 z"
       id="path346768" />
    <path
       style="fill:#a4654b;fill-opacity:1;stroke:#000000;stroke-width:0.181094px;stroke-linecap:butt;stroke-linejoin:miter;stroke-opacity:0"
       d="m 108.3752,114.1073 c 0,0 0.6097,0.093 0.26045,0.17911 -0.34925,0.0861 -1.22264,0.17032 -1.89434,-0.13801 -0.67169,-0.30833 -1.1926,-0.66264 -1.33691,-1.32546 -0.14431,-0.66282 -0.0952,-0.93095 0.0644,-0.52428 0.15967,0.40668 0.35334,0.93042 0.6117,1.05894 0.72043,0.54353 1.4189,0.5664 2.29466,0.7497 z"
       id="path356451"
       sodipodi:nodetypes="cssssccc" />
    <path
       id="path57044"
       style="fill:#c1805a;fill-opacity:1;stroke:#000000;stroke-width:0.20485px;stroke-linecap:butt;stroke-linejoin:miter;stroke-opacity:0"
       d="m 88.760107,158.34574 -0.04161,1.58959 c 0,0 -1.435655,23.12899 -0.494122,25.95359 0.639971,1.91991 7.869762,1.86138 12.479475,1.6296 -2.420593,-2.06097 -3.124403,-5.90701 -3.933373,-7.42383 -1.158807,-2.17276 -2.389785,-17.45429 -2.389785,-17.45429 0,0 0.305008,-4.09377 -1.955683,-3.11437 -1.585569,0.68693 -2.974798,-0.44311 -3.664902,-1.18029 z" />
    <path
       id="path41452"
       style="fill:#533127;fill-opacity:1;stroke:#000000;stroke-width:0.20485px;stroke-linecap:butt;stroke-linejoin:miter;stroke-opacity:0"
       d="m 103.62937,159.08313 -1.11068,0.62935 -0.0264,1.11867 c 0,0 0.31466,3.20918 1.77565,4.35428 -0.042,-2.42704 -0.0866,-4.35342 -0.13164,-5.19448 -0.0201,-0.37588 -0.20139,-0.67369 -0.50692,-0.90782 z" />
    <path
       id="path67717"
       style="fill:#a87258;fill-opacity:1;stroke:#000000;stroke-width:0.20485px;stroke-linecap:butt;stroke-linejoin:miter;stroke-opacity:0"
       d="m 88.430425,165.12781 c -0.362727,6.97934 -0.864791,18.78489 -0.206051,20.76111 0.338165,1.01449 2.521207,1.47359 5.180477,1.64961 -0.693824,-1.97882 -1.282689,-4.72297 -1.559184,-8.5301 -0.636044,-8.75781 -2.361678,-12.42244 -3.415242,-13.88062 z" />
    <path
       style="fill:#d79974;fill-opacity:1;stroke:#000000;stroke-width:0.20485px;stroke-linecap:butt;stroke-linejoin:miter;stroke-opacity:0"
       d="m 92.113594,160.72923 c 0,0 -0.651529,0.24376 -1.317195,-0.0506 -0.665682,-0.29437 -1.5011,-0.18715 -0.593972,0.30072 0.90712,0.48786 1.44815,1.04628 2.248603,0.8132 0.800454,-0.23304 1.728982,-0.0431 1.256782,-0.57888 -0.472208,-0.53587 -1.228693,-0.66949 -1.42274,-0.54251 -0.194039,0.12694 -0.171478,0.0581 -0.171478,0.0581 z"
       id="path74701" />
  </g>
</svg>
